<svg width="143" height="259" viewBox="0 0 143 259" fill="none" xmlns="http://www.w3.org/2000/svg">
<line x1="109.75" y1="34" x2="109.75" y2="259" stroke="black" stroke-width="1.5"/>
<line x1="-6.55671e-08" y1="53.25" x2="133" y2="53.25" stroke="black" stroke-width="1.5"/>
<path fill-rule="evenodd" clip-rule="evenodd" d="M92.3359 51.7567L78.6523 54L91.7297 56.144C78.1822 81.8715 72.2563 103.941 78.4625 107.507C83.6698 110.5 95.9401 99.6172 108.977 81.5406L109.5 84.7036L110.34 79.6277C110.659 79.1744 110.979 78.7169 111.299 78.2553C116.753 82.3773 121.999 83.8989 125.632 81.8113C131.143 78.6445 131.285 68.1231 126.664 56.2434L140.348 54L127.27 51.856C140.818 26.1285 146.744 4.05915 140.537 0.492736C135.33 -2.4996 123.06 8.38277 110.023 26.4594L109.5 23.2965L108.66 28.3722C108.341 28.8256 108.021 29.2831 107.701 29.7447C102.247 25.6227 97.0005 24.1011 93.3678 26.1887C87.8569 29.3555 87.7154 39.8769 92.3359 51.7567ZM95.6327 96.1844C99.728 91.8398 104.18 86.3439 108.718 79.9792L107.966 75.4337C104.075 71.787 100.224 66.9323 96.917 61.2309C96.0191 59.683 95.1956 58.1318 94.4477 56.5896L92.8958 56.3352C86.8726 67.7327 82.3552 78.4031 79.7294 87.0455C78.0727 92.4981 77.1878 97.0831 77.1253 100.508C77.094 102.221 77.2701 103.585 77.6188 104.602C77.9644 105.611 78.4546 106.214 79.0234 106.54C79.5922 106.867 80.3619 106.988 81.4119 106.782C82.4714 106.574 83.7463 106.044 85.2211 105.16C88.1699 103.394 91.7168 100.339 95.6327 96.1844ZM95.8064 56.8124C96.447 58.0952 97.1412 59.3845 97.8884 60.6726C100.843 65.7668 104.227 70.154 107.659 73.5799L105.137 58.3422L95.8064 56.8124ZM111.051 76.6417C110.987 76.5903 110.924 76.5385 110.86 76.4863L113.863 58.3422L123.32 56.7917C122.601 58.0794 121.865 59.3736 121.112 60.6726C117.808 66.3674 114.419 71.7283 111.051 76.6417ZM111.935 77.3337C112.179 77.5188 112.422 77.6985 112.665 77.8725C117.799 81.5518 122.217 82.4849 125.071 80.8444C127.926 79.2039 129.323 74.9293 128.689 68.6646C128.317 64.9991 127.258 60.815 125.533 56.4288L124.73 56.5605C123.873 58.1086 122.991 59.6664 122.083 61.2309C118.754 66.9705 115.334 72.3768 111.935 77.3337ZM124.552 51.4104L126.104 51.6649C132.127 40.2673 136.645 29.5969 139.271 20.9545C140.927 15.5019 141.812 10.9169 141.875 7.49192C141.906 5.77902 141.73 4.41491 141.381 3.39761C141.036 2.38942 140.545 1.78649 139.977 1.45965C139.408 1.1328 138.638 1.01171 137.588 1.21792C136.529 1.42598 135.254 1.95625 133.779 2.83964C130.83 4.60599 127.283 7.66122 123.367 11.8156C119.272 16.1602 114.82 21.6561 110.282 28.0208L111.034 32.5662C114.925 36.213 118.776 41.0677 122.083 46.7691C122.981 48.317 123.804 49.8682 124.552 51.4104ZM111.341 34.4201C114.773 37.846 118.157 42.2332 121.112 47.3274C121.859 48.6156 122.553 49.9048 123.194 51.1877L113.863 49.6579L111.341 34.4201ZM107.949 31.3583C108.013 31.4097 108.076 31.4615 108.14 31.5137L105.137 49.6579L95.6804 51.2083C96.3987 49.9207 97.1349 48.6264 97.8884 47.3274C101.192 41.6326 104.581 36.2717 107.949 31.3583ZM107.065 30.6663C103.666 35.6232 100.246 41.0295 96.917 46.7691C96.0095 48.3336 95.1269 49.8914 94.2701 51.4395L93.4671 51.5712C91.7417 47.185 90.6826 43.0009 90.3113 39.3354C89.6768 33.0707 91.0739 28.7961 93.9286 27.1556C96.7833 25.5151 101.201 26.4482 106.335 30.1275C106.578 30.3015 106.821 30.4812 107.065 30.6663Z" fill="#404040"/>
<path fill-rule="evenodd" clip-rule="evenodd" d="M67 12.4543L66.4967 15.5097C65.8215 19.6087 62.6088 22.8215 58.5097 23.4967L55.4543 24L58.5097 24.5032C62.6087 25.1784 65.8215 28.3912 66.4967 32.4903L67 35.5456L67.5032 32.4903C68.1784 28.3912 71.3912 25.1784 75.4903 24.5032L78.5456 24L75.4903 23.4967C71.3912 22.8215 68.1784 19.6088 67.5032 15.5097L67 12.4543ZM66.0303 15.4328L66.7667 10.9615L67.2332 10.9615L67.9697 15.4328C68.6119 19.332 71.668 22.388 75.5671 23.0303L80.0384 23.7667V24.2332L75.5671 24.9697C71.668 25.6119 68.6119 28.668 67.9697 32.5671L67.2332 37.0384H66.7667L66.0303 32.5671C65.388 28.668 62.332 25.6119 58.4328 24.9697L53.9615 24.2332L53.9615 23.7667L58.4328 23.0303C62.332 22.388 65.388 19.332 66.0303 15.4328Z" fill="#202020"/>
</svg>
