<svg width="737" height="379" viewBox="0 0 737 379" fill="none" xmlns="http://www.w3.org/2000/svg">
<path d="M26.5 178L26.9481 192.798C27.2223 201.852 33.1579 209.112 40.5555 209.443L53 210L40.5555 210.557C33.1579 210.888 27.2223 218.148 26.9481 227.202L26.5 242L26.0519 227.202C25.7777 218.148 19.8421 210.888 12.4445 210.557L0 210L12.4445 209.443C19.8421 209.112 25.7777 201.852 26.0519 192.798L26.5 178Z" fill="#3B3B3A"/>
<path d="M710.5 178L710.948 192.798C711.222 201.852 717.158 209.112 724.556 209.443L737 210L724.556 210.557C717.158 210.888 711.222 218.148 710.948 227.202L710.5 242L710.052 227.202C709.778 218.148 703.842 210.888 696.444 210.557L684 210L696.444 209.443C703.842 209.112 709.778 201.852 710.052 192.798L710.5 178Z" fill="#3B3B3A"/>
<path d="M413.615 265.503C360.107 296.396 306.719 315.728 263.676 322.031C242.152 325.183 223.255 325.071 208.237 321.546C193.222 318.022 182.156 311.105 176.149 300.701C170.143 290.297 169.686 277.256 174.141 262.49C178.597 247.722 187.949 231.3 201.44 214.236C228.42 180.112 271.857 143.542 325.365 112.65C378.872 81.7568 432.261 62.4243 475.304 56.1212C496.827 52.9694 515.724 53.0814 530.742 56.6064C545.757 60.1309 556.823 67.0471 562.83 77.4513C568.837 87.8555 569.294 100.897 564.838 115.663C560.382 130.431 551.03 146.852 537.539 163.916C510.559 198.041 467.122 234.61 413.615 265.503Z" stroke="#443A33" stroke-width="1.5"/>
</svg>
