<svg width="689" height="469" viewBox="0 0 689 469" fill="none" xmlns="http://www.w3.org/2000/svg">
<path d="M51.6202 45.4231C47.577 45.4231 44.2508 44.1773 41.6416 41.6856C39.0559 39.1703 37.763 35.9969 37.763 32.1654C37.763 28.2397 39.0441 25.0546 41.6063 22.6099C44.1921 20.1417 47.5183 18.9076 51.5849 18.9076C53.3244 18.9076 54.8288 19.2014 56.0982 19.7891L59.8358 21.9047C60.541 21.9047 61.0111 21.6696 61.2462 21.1995C61.4812 20.7059 61.6458 20.0124 61.7398 19.1192H62.445V30.2613H61.8456C60.8113 27.3935 60.0708 25.4542 59.6242 24.4434C59.2011 23.4326 58.4841 22.4571 57.4733 21.5168C56.4626 20.5766 55.1697 20.1064 53.5947 20.1064C51.5497 20.1064 50.0335 21.2583 49.0462 23.5619C48.0589 25.8656 47.5653 28.5571 47.5653 31.6365C47.5653 34.9509 48.1529 37.8305 49.3283 40.2752C50.5271 42.6963 52.2784 43.9069 54.582 43.9069C56.7211 43.9069 58.4371 43.1312 59.73 41.5798C61.0228 40.0283 61.8808 38.0068 62.304 35.5151L62.9034 35.6208C62.5743 38.4416 61.5047 40.7806 59.6947 42.6376C57.8847 44.4946 55.1932 45.4231 51.6202 45.4231ZM83.5294 36.6434C83.5294 39.1351 82.5774 41.2154 80.6733 42.8844C78.7928 44.5299 76.5714 45.3526 74.0092 45.3526C71.3059 45.3526 69.0375 44.5299 67.204 42.8844C65.394 41.2154 64.489 39.1351 64.489 36.6434C64.489 34.1517 65.4057 32.0831 67.2393 30.4376C69.0963 28.7686 71.3529 27.9342 74.0092 27.9342C76.6184 27.9342 78.8516 28.7569 80.7086 30.4024C82.5891 32.0478 83.5294 34.1282 83.5294 36.6434ZM76.5126 36.6081C76.5126 36.279 76.4891 35.6208 76.4421 34.6336C76.3951 33.6463 76.3716 33.0586 76.3716 32.8706C76.3716 31.6012 76.1718 30.5552 75.7722 29.7324C75.3961 28.9097 74.7967 28.4983 73.9739 28.4983C73.2217 28.4983 72.6458 28.9332 72.2462 29.8029C71.8466 30.6492 71.6468 31.6717 71.6468 32.8706C71.6468 33.3172 71.6233 33.8696 71.5762 34.5278C71.5527 35.1625 71.5292 35.8559 71.5057 36.6081C71.5057 36.9372 71.5292 37.6189 71.5762 38.6532C71.6233 39.664 71.6468 40.2517 71.6468 40.4162C71.6468 41.6856 71.8348 42.7316 72.2109 43.5543C72.6105 44.3771 73.21 44.7884 74.0092 44.7884C74.7849 44.7884 75.3726 44.3653 75.7722 43.5191C76.1718 42.6728 76.3716 41.6385 76.3716 40.4162C76.3716 39.9461 76.3834 39.3937 76.4069 38.759C76.4304 38.1008 76.4656 37.3838 76.5126 36.6081ZM98.0323 33.3995L97.997 31.9538C97.997 30.1203 97.3506 29.2035 96.0577 29.2035C95.235 29.2035 94.6473 29.4621 94.2947 29.9792C93.9656 30.4964 93.6953 31.0253 93.4837 31.5659V40.5925L93.519 42.2145C93.519 43.1782 93.6013 43.7894 93.7658 44.048C93.9539 44.3066 94.4828 44.4358 95.3525 44.4358V45H84.3866V44.4358L85.2329 44.4006C85.9146 44.3301 86.3259 44.1655 86.467 43.9069C86.608 43.6484 86.6785 43.0842 86.6785 42.2145L86.7138 40.5925V32.1654L86.6785 30.7197C86.6315 30.1555 86.561 29.7324 86.467 29.4503C86.373 29.1683 85.9498 28.992 85.1976 28.9214L84.3866 28.8509V28.2868H93.3427V30.9313C93.6013 30.2731 94.0596 29.6149 94.7178 28.9567C95.3995 28.275 96.7041 27.9342 98.6317 27.9342C100.301 27.9342 101.746 28.4043 102.969 29.3446C104.191 30.2848 104.802 31.3896 104.802 32.659V40.5925L104.837 42.2145C104.837 43.0607 104.908 43.6249 105.049 43.9069C105.19 44.1655 105.601 44.3301 106.283 44.4006L107.059 44.4358V45H96.1635V44.4358C97.0097 44.4358 97.5269 44.3066 97.7149 44.048C97.903 43.7659 97.997 43.1547 97.997 42.2145L98.0323 40.5925V33.3995ZM109.433 29.6266H107.035V28.6746C107.834 28.4631 108.669 28.0752 109.538 27.511C110.408 26.9234 111.231 26.2534 112.007 25.5012C112.806 24.7255 113.464 23.9733 113.981 23.2446C114.522 22.5159 114.933 21.8577 115.215 21.27H116.202V28.2868H120.822L120.328 29.6266H116.202V39.2174L116.273 41.0156C116.273 42.0264 116.496 42.7904 116.943 43.3075C117.39 43.8247 117.954 44.0832 118.635 44.0832C119.552 44.0832 120.222 43.7071 120.645 42.9549C121.068 42.1792 121.28 41.3212 121.28 40.3809H121.774C121.774 41.6973 121.386 42.8609 120.61 43.8717C119.834 44.859 118.165 45.3526 115.603 45.3526C113.981 45.3526 112.547 44.9295 111.301 44.0832C110.055 43.237 109.433 42.0499 109.433 40.522V29.6266ZM140.014 43.237C140.578 43.237 140.966 42.8962 141.178 42.2145C141.413 41.5093 141.53 40.6748 141.53 39.711H142.024C142.024 41.7796 141.648 43.143 140.896 43.8012C140.167 44.4593 139.509 44.8707 138.921 45.0353C138.334 45.2233 137.581 45.3173 136.665 45.3173C135.654 45.3173 134.749 45.0588 133.95 44.5416C133.174 44.0245 132.704 43.331 132.539 42.4613C132.163 43.4251 131.528 44.1538 130.635 44.6474C129.765 45.1175 128.625 45.3526 127.215 45.3526C125.71 45.3526 124.488 44.9412 123.548 44.1185C122.608 43.2958 122.137 42.1557 122.137 40.6983C122.137 39.5229 122.431 38.5827 123.019 37.8775C123.607 37.1488 124.206 36.7021 124.817 36.5376C125.428 36.3731 126.369 36.232 127.638 36.1145C128.907 35.9969 129.836 35.8677 130.424 35.7266C131.035 35.5621 131.47 35.3975 131.728 35.233C131.987 35.0449 132.116 34.7393 132.116 34.3162L132.081 31.1076C132.081 30.1908 131.963 29.5326 131.728 29.133C131.493 28.7334 130.999 28.5336 130.247 28.5336C129.777 28.5336 129.377 28.6394 129.048 28.8509C128.743 29.0625 128.59 29.3328 128.59 29.6619C128.59 29.9205 128.837 30.2496 129.33 30.6492C129.848 31.0253 130.106 31.6012 130.106 32.3769C130.106 33.1056 129.777 33.7521 129.119 34.3162C128.484 34.8804 127.438 35.1625 125.981 35.1625C125.182 35.1625 124.476 34.9509 123.865 34.5278C123.277 34.0812 122.984 33.4935 122.984 32.7648C122.984 31.3074 123.795 30.1438 125.417 29.274C127.062 28.4043 129.013 27.9694 131.27 27.9694C133.174 27.9694 134.925 28.369 136.524 29.1683C138.122 29.944 138.921 31.1546 138.921 32.8V40.8746C138.921 41.6268 138.992 42.2027 139.133 42.6023C139.25 43.0254 139.544 43.237 140.014 43.237ZM132.116 42.2145V35.4798L132.01 35.4445C131.799 35.7266 131.399 35.9969 130.811 36.2555C130.247 36.4906 129.848 36.7257 129.613 36.9607C129.401 37.1958 129.225 37.6542 129.084 38.3359C128.966 38.994 128.907 39.6757 128.907 40.3809C128.907 41.4387 128.99 42.285 129.154 42.9197C129.319 43.5543 129.695 43.8717 130.282 43.8717C130.729 43.8717 131.117 43.6954 131.446 43.3428C131.799 42.9902 132.022 42.6141 132.116 42.2145ZM152.679 28.4983C152.021 28.4983 151.469 28.7569 151.022 29.274C150.576 29.7912 150.223 30.4259 149.964 31.1781C149.729 31.9303 149.553 32.753 149.436 33.6463C149.342 34.516 149.295 35.3623 149.295 36.185C149.295 38.3241 149.647 40.1929 150.352 41.7913C151.081 43.3663 152.35 44.1538 154.16 44.1538C155.453 44.1538 156.582 43.7541 157.545 42.9549C158.509 42.1322 159.238 41.0979 159.731 39.852L160.26 40.1341C158.685 43.6131 155.865 45.3526 151.798 45.3526C149.118 45.3526 146.838 44.5651 144.958 42.9902C143.077 41.3917 142.137 39.2879 142.137 36.6786C142.137 34.0459 143.053 31.9303 144.887 30.3318C146.744 28.7334 149.048 27.9342 151.798 27.9342C152.832 27.9342 153.784 28.0517 154.654 28.2868C155.524 28.4983 156.335 28.8039 157.087 29.2035C157.863 29.5796 158.591 30.132 159.273 30.8607C159.978 31.5659 160.331 32.4004 160.331 33.3642C160.331 34.2339 160.061 34.9391 159.52 35.4798C158.979 35.9969 158.18 36.2555 157.122 36.2555C156.205 36.2555 155.371 35.9382 154.619 35.3035C153.89 34.6453 153.526 33.9049 153.526 33.0821C153.526 32.4474 153.655 31.8363 153.914 31.2486C154.172 30.6609 154.301 30.1673 154.301 29.7677C154.301 29.3916 154.16 29.086 153.878 28.8509C153.596 28.6159 153.197 28.4983 152.679 28.4983ZM162.736 29.6266H160.338V28.6746C161.137 28.4631 161.972 28.0752 162.842 27.511C163.711 26.9234 164.534 26.2534 165.31 25.5012C166.109 24.7255 166.767 23.9733 167.284 23.2446C167.825 22.5159 168.236 21.8577 168.518 21.27H169.506V28.2868H174.125L173.631 29.6266H169.506V39.2174L169.576 41.0156C169.576 42.0264 169.799 42.7904 170.246 43.3075C170.693 43.8247 171.257 44.0832 171.939 44.0832C172.855 44.0832 173.525 43.7071 173.948 42.9549C174.372 42.1792 174.583 41.3212 174.583 40.3809H175.077C175.077 41.6973 174.689 42.8609 173.913 43.8717C173.137 44.859 171.468 45.3526 168.906 45.3526C167.284 45.3526 165.85 44.9295 164.605 44.0832C163.359 43.237 162.736 42.0499 162.736 40.522V29.6266Z" fill="#3B3A3A"/>
<path d="M20.1333 33.4533C16.6535 33.0884 13.9 30.0931 13.5651 26.309L13 19.9194L12.4349 26.309C12.1 30.0937 9.34651 33.0891 5.86666 33.4533L0 34.0679L5.86666 34.6825C9.34651 35.0474 12.1 38.0427 12.4349 41.8268L13 48.2164L13.5651 41.8268C13.9 38.0421 16.6535 35.0467 20.1333 34.6825L26 34.0679L20.1333 33.4533Z" fill="#3E3E3E"/>
<rect x="9.5" y="75.5" width="324" height="46" stroke="black"/>
<rect x="9.5" y="152.5" width="679" height="46" stroke="black"/>
<rect x="9.5" y="229.5" width="679" height="164" stroke="black"/>
<rect x="364.5" y="75.5" width="324" height="46" stroke="black"/>
<rect x="539" y="417" width="150" height="37" fill="#1F1E1E"/>
<path d="M25.3412 105V94.0393H25.5796L32.8669 102.429V94.0393H33.9473V105H33.7014L26.4738 96.7143V105H25.3412ZM40.2957 96.6845C41.5425 96.6845 42.5758 97.1365 43.3954 98.0406C44.1405 98.8652 44.5131 99.8413 44.5131 100.969C44.5131 102.101 44.1182 103.092 43.3283 103.942C42.5435 104.786 41.5326 105.209 40.2957 105.209C39.0539 105.209 38.038 104.786 37.2482 103.942C36.4633 103.092 36.0709 102.101 36.0709 100.969C36.0709 99.8463 36.4435 98.8727 37.1886 98.0481C38.0082 97.139 39.0439 96.6845 40.2957 96.6845ZM40.2957 97.7053C39.4314 97.7053 38.6887 98.0257 38.0678 98.6665C37.4469 99.3073 37.1364 100.082 37.1364 100.991C37.1364 101.577 37.278 102.124 37.5611 102.631C37.8443 103.137 38.2268 103.53 38.7086 103.808C39.1905 104.081 39.7195 104.218 40.2957 104.218C40.8719 104.218 41.401 104.081 41.8828 103.808C42.3647 103.53 42.7471 103.137 43.0303 102.631C43.3134 102.124 43.455 101.577 43.455 100.991C43.455 100.082 43.1421 99.3073 42.5162 98.6665C41.8952 98.0257 41.1551 97.7053 40.2957 97.7053ZM46.4504 96.8931H47.4861V98.2939C47.8487 97.7773 48.2213 97.3998 48.6038 97.1614C49.1303 96.8435 49.6842 96.6845 50.2654 96.6845C50.6578 96.6845 51.0304 96.7615 51.3831 96.9155C51.7357 97.0695 52.0239 97.2756 52.2474 97.5339C52.4709 97.7873 52.6647 98.1524 52.8286 98.6292C53.1763 97.9934 53.611 97.5116 54.1325 97.1837C54.6541 96.8509 55.2154 96.6845 55.8165 96.6845C56.3778 96.6845 56.8721 96.8261 57.2993 97.1092C57.7315 97.3924 58.0519 97.7873 58.2605 98.2939C58.4691 98.8006 58.5734 99.5606 58.5734 100.574V105H57.5079V100.574C57.5079 99.7047 57.4458 99.1086 57.3216 98.7857C57.1975 98.4579 56.9839 98.1946 56.6808 97.9959C56.3828 97.7972 56.0251 97.6979 55.6079 97.6979C55.1012 97.6979 54.6367 97.8469 54.2145 98.1449C53.7972 98.443 53.4917 98.8404 53.298 99.3371C53.1043 99.8339 53.0074 100.663 53.0074 101.826V105H51.9717V100.85C51.9717 99.8711 51.9096 99.208 51.7854 98.8602C51.6662 98.5075 51.4551 98.2269 51.1521 98.0183C50.8491 97.8047 50.4889 97.6979 50.0716 97.6979C49.5898 97.6979 49.1378 97.8444 48.7155 98.1375C48.2983 98.4256 47.9878 98.8155 47.7841 99.3073C47.5854 99.7991 47.4861 100.552 47.4861 101.565V105H46.4504V96.8931Z" fill="black" fill-opacity="0.5"/>
<path d="M378.326 92.0393H380.51C381.761 92.0393 382.606 92.094 383.043 92.2033C383.669 92.3572 384.18 92.6752 384.578 93.157C384.975 93.6339 385.174 94.2349 385.174 94.9602C385.174 95.6904 384.98 96.2939 384.593 96.7708C384.205 97.2427 383.671 97.5606 382.991 97.7246C382.494 97.8438 381.565 97.9034 380.204 97.9034H379.422V103H378.326V92.0393ZM379.422 93.1048V96.8304L381.277 96.8528C382.027 96.8528 382.576 96.7857 382.924 96.6516C383.271 96.5125 383.545 96.2915 383.743 95.9884C383.942 95.6805 384.041 95.3377 384.041 94.9602C384.041 94.5926 383.942 94.2573 383.743 93.9543C383.545 93.6463 383.281 93.4277 382.953 93.2986C382.631 93.1694 382.099 93.1048 381.359 93.1048H379.422ZM386.798 94.8931H387.864V96.0779C388.182 95.6109 388.517 95.2632 388.87 95.0347C389.222 94.8012 389.59 94.6845 389.972 94.6845C390.261 94.6845 390.569 94.7764 390.896 94.9602L390.353 95.8394C390.134 95.745 389.95 95.6979 389.801 95.6979C389.453 95.6979 389.118 95.8419 388.795 96.13C388.472 96.4132 388.226 96.8553 388.058 97.4563C387.928 97.9183 387.864 98.8522 387.864 100.258V103H386.798V94.8931ZM398.608 100.31L399.488 100.772C399.2 101.338 398.867 101.795 398.489 102.143C398.112 102.491 397.687 102.757 397.215 102.94C396.743 103.119 396.209 103.209 395.613 103.209C394.292 103.209 393.258 102.776 392.513 101.912C391.768 101.043 391.396 100.062 391.396 98.9689C391.396 97.9407 391.711 97.0242 392.342 96.2194C393.142 95.1961 394.212 94.6845 395.553 94.6845C396.934 94.6845 398.037 95.2086 398.862 96.2567C399.448 96.9968 399.746 97.9208 399.756 99.0285H392.469C392.489 99.9723 392.789 100.747 393.37 101.353C393.951 101.954 394.669 102.255 395.524 102.255C395.936 102.255 396.336 102.183 396.723 102.039C397.116 101.895 397.449 101.703 397.722 101.465C397.995 101.227 398.29 100.842 398.608 100.31ZM398.608 98.1269C398.469 97.5706 398.266 97.126 397.997 96.7932C397.734 96.4604 397.384 96.1921 396.947 95.9884C396.51 95.7848 396.05 95.6829 395.568 95.6829C394.774 95.6829 394.091 95.9388 393.519 96.4504C393.102 96.823 392.787 97.3818 392.573 98.1269H398.608ZM396.09 91.093H397.692L395.494 93.388H394.466L396.09 91.093ZM401.708 94.8931H402.751V96.3461C403.169 95.7897 403.63 95.375 404.137 95.1018C404.644 94.8236 405.195 94.6845 405.791 94.6845C406.397 94.6845 406.934 94.8385 407.401 95.1465C407.873 95.4544 408.22 95.8692 408.444 96.3908C408.667 96.9124 408.779 97.7246 408.779 98.8273V103H407.744V99.1328C407.744 98.199 407.704 97.5755 407.624 97.2626C407.5 96.7261 407.267 96.3237 406.924 96.0555C406.581 95.7823 406.134 95.6457 405.583 95.6457C404.952 95.6457 404.386 95.8543 403.884 96.2716C403.387 96.6889 403.059 97.2055 402.9 97.8214C402.801 98.2238 402.751 98.959 402.751 100.027V103H401.708V94.8931ZM414.859 94.6845C416.106 94.6845 417.139 95.1365 417.959 96.0406C418.704 96.8652 419.077 97.8413 419.077 98.9689C419.077 100.101 418.682 101.092 417.892 101.942C417.107 102.786 416.096 103.209 414.859 103.209C413.618 103.209 412.602 102.786 411.812 101.942C411.027 101.092 410.635 100.101 410.635 98.9689C410.635 97.8463 411.007 96.8727 411.752 96.0481C412.572 95.139 413.608 94.6845 414.859 94.6845ZM414.859 95.7053C413.995 95.7053 413.252 96.0257 412.632 96.6665C412.011 97.3073 411.7 98.0822 411.7 98.9913C411.7 99.5774 411.842 100.124 412.125 100.631C412.408 101.137 412.79 101.53 413.272 101.808C413.754 102.081 414.283 102.218 414.859 102.218C415.436 102.218 415.965 102.081 416.447 101.808C416.928 101.53 417.311 101.137 417.594 100.631C417.877 100.124 418.019 99.5774 418.019 98.9913C418.019 98.0822 417.706 97.3073 417.08 96.6665C416.459 96.0257 415.719 95.7053 414.859 95.7053ZM421.014 94.8931H422.05V96.2939C422.412 95.7773 422.785 95.3998 423.167 95.1614C423.694 94.8435 424.248 94.6845 424.829 94.6845C425.222 94.6845 425.594 94.7615 425.947 94.9155C426.299 95.0695 426.588 95.2756 426.811 95.5339C427.035 95.7873 427.228 96.1524 427.392 96.6292C427.74 95.9934 428.175 95.5116 428.696 95.1837C429.218 94.8509 429.779 94.6845 430.38 94.6845C430.942 94.6845 431.436 94.8261 431.863 95.1092C432.295 95.3924 432.616 95.7873 432.824 96.2939C433.033 96.8006 433.137 97.5606 433.137 98.574V103H432.072V98.574C432.072 97.7047 432.01 97.1086 431.885 96.7857C431.761 96.4579 431.548 96.1946 431.245 95.9959C430.946 95.7972 430.589 95.6979 430.172 95.6979C429.665 95.6979 429.2 95.8469 428.778 96.1449C428.361 96.443 428.055 96.8404 427.862 97.3371C427.668 97.8339 427.571 98.6634 427.571 99.8258V103H426.535V98.8497C426.535 97.8711 426.473 97.208 426.349 96.8602C426.23 96.5075 426.019 96.2269 425.716 96.0183C425.413 95.8047 425.053 95.6979 424.635 95.6979C424.154 95.6979 423.701 95.8444 423.279 96.1375C422.862 96.4256 422.551 96.8155 422.348 97.3073C422.149 97.7991 422.05 98.5517 422.05 99.565V103H421.014V94.8931Z" fill="black" fill-opacity="0.5"/>
<path d="M587.967 439.695C588.394 439.685 588.831 439.68 589.279 439.68C589.727 439.669 590.2 439.634 590.698 439.573C591.197 439.502 591.812 438.998 592.545 438.062C593.277 437.116 593.816 436.144 594.162 435.147H594.406V440H582.412V439.756C582.544 439.756 582.697 439.751 582.87 439.741C583.043 439.72 583.236 439.7 583.45 439.68C583.674 439.649 583.841 439.573 583.953 439.451C584.075 439.318 584.152 439.089 584.182 438.764L584.213 438.062V430.829L584.182 430.127C584.152 429.801 584.075 429.572 583.953 429.44C583.831 429.308 583.658 429.226 583.434 429.196C583.221 429.165 583.022 429.15 582.839 429.15C582.666 429.14 582.509 429.13 582.366 429.12V428.875H594.101V433.392H593.857C593.338 432.253 592.707 431.297 591.965 430.524C591.222 429.74 590.596 429.323 590.088 429.272C589.589 429.221 589.167 429.191 588.821 429.181C588.475 429.17 588.246 429.165 588.135 429.165H587.997L587.967 434.171L588.608 434.14C589.198 434.079 589.64 433.804 589.935 433.316C590.24 432.818 590.393 432.233 590.393 431.561H590.683V437.116H590.393C590.393 436.434 590.24 435.839 589.935 435.33C589.64 434.822 589.198 434.537 588.608 434.476L587.967 434.445V439.695ZM601.291 434.979L601.276 434.354C601.276 433.56 600.996 433.164 600.437 433.164C600.081 433.164 599.826 433.275 599.674 433.499C599.531 433.723 599.414 433.952 599.323 434.186V438.092L599.338 438.794C599.338 439.212 599.373 439.476 599.445 439.588C599.526 439.7 599.755 439.756 600.131 439.756V440H595.386V439.756L595.752 439.741C596.047 439.71 596.225 439.639 596.286 439.527C596.347 439.415 596.377 439.171 596.377 438.794L596.393 438.092V434.445L596.377 433.82C596.357 433.576 596.327 433.392 596.286 433.27C596.245 433.148 596.062 433.072 595.737 433.041L595.386 433.011V432.767H599.262V433.911C599.373 433.626 599.572 433.342 599.857 433.057C600.152 432.762 600.716 432.614 601.551 432.614C602.273 432.614 602.899 432.818 603.428 433.225C603.957 433.631 604.221 434.11 604.221 434.659V438.092L604.236 438.794C604.236 439.161 604.267 439.405 604.328 439.527C604.389 439.639 604.567 439.71 604.862 439.741L605.198 439.756V440H600.482V439.756C600.849 439.756 601.072 439.7 601.154 439.588C601.235 439.466 601.276 439.201 601.276 438.794L601.291 438.092V434.979ZM609.979 433.011C609.918 433.011 609.857 433.016 609.796 433.026C609.735 433.026 609.623 433.041 609.46 433.072C609.308 433.092 609.231 433.209 609.231 433.423C609.231 433.535 609.241 433.631 609.262 433.713C609.282 433.794 609.318 433.896 609.369 434.018L610.528 437.101L611.612 434.293C611.734 433.937 611.795 433.657 611.795 433.453C611.795 433.311 611.759 433.214 611.688 433.164C611.617 433.113 611.505 433.072 611.352 433.041L610.864 433.011V432.767H613.412V433.011L612.848 433.072C612.685 433.102 612.538 433.199 612.405 433.362C612.273 433.514 612.136 433.774 611.993 434.14C611.851 434.496 611.571 435.208 611.154 436.277C610.747 437.345 610.437 438.159 610.223 438.718C610.009 439.278 609.842 439.725 609.72 440.061H608.636C608.463 439.624 608.25 439.074 607.995 438.413C607.741 437.742 607.42 436.912 607.034 435.926C606.647 434.929 606.383 434.257 606.24 433.911C606.098 433.565 605.991 433.347 605.92 433.255C605.859 433.153 605.762 433.092 605.63 433.072C605.498 433.041 605.376 433.026 605.264 433.026C605.152 433.016 605.07 433.011 605.019 433.011V432.767H609.979V433.011ZM621.392 436.383C621.392 437.462 620.98 438.362 620.156 439.084C619.342 439.797 618.38 440.153 617.271 440.153C616.102 440.153 615.12 439.797 614.326 439.084C613.543 438.362 613.151 437.462 613.151 436.383C613.151 435.305 613.548 434.41 614.342 433.698C615.145 432.975 616.122 432.614 617.271 432.614C618.401 432.614 619.367 432.97 620.171 433.682C620.985 434.394 621.392 435.295 621.392 436.383ZM618.355 436.368C618.355 436.226 618.345 435.941 618.324 435.514C618.304 435.086 618.294 434.832 618.294 434.751C618.294 434.201 618.207 433.748 618.034 433.392C617.872 433.036 617.612 432.858 617.256 432.858C616.931 432.858 616.681 433.047 616.508 433.423C616.336 433.789 616.249 434.232 616.249 434.751C616.249 434.944 616.239 435.183 616.219 435.468C616.208 435.742 616.198 436.043 616.188 436.368C616.188 436.511 616.198 436.806 616.219 437.253C616.239 437.691 616.249 437.945 616.249 438.016C616.249 438.566 616.33 439.018 616.493 439.374C616.666 439.73 616.926 439.908 617.271 439.908C617.607 439.908 617.862 439.725 618.034 439.359C618.207 438.993 618.294 438.545 618.294 438.016C618.294 437.813 618.299 437.574 618.309 437.299C618.319 437.014 618.335 436.704 618.355 436.368ZM622.556 433.804C622.434 433.55 622.332 433.372 622.251 433.27C622.17 433.158 622.063 433.087 621.931 433.057L621.335 433.011V432.767H626.325V433.011H626.097C626.015 433.011 625.908 433.026 625.776 433.057C625.654 433.077 625.593 433.179 625.593 433.362C625.593 433.443 625.613 433.55 625.654 433.682C625.695 433.804 625.735 433.927 625.776 434.049L626.966 436.887C627.068 436.643 627.231 436.246 627.455 435.697C627.678 435.137 627.856 434.664 627.989 434.277C628.121 433.891 628.187 433.611 628.187 433.438C628.187 433.306 628.162 433.214 628.111 433.164C628.07 433.113 627.948 433.072 627.745 433.041L627.256 433.011V432.767H629.805V433.011C629.744 433.011 629.678 433.016 629.606 433.026C629.545 433.026 629.423 433.041 629.24 433.072C629.067 433.102 628.92 433.194 628.798 433.347C628.675 433.499 628.447 433.998 628.111 434.842C627.785 435.687 627.429 436.582 627.043 437.528C626.666 438.474 626.239 439.456 625.761 440.473C625.293 441.49 624.85 442.253 624.433 442.762C624.026 443.271 623.477 443.525 622.785 443.525C622.378 443.525 622.002 443.388 621.656 443.113C621.32 442.838 621.152 442.482 621.152 442.045C621.152 441.638 621.29 441.292 621.564 441.007C621.839 440.722 622.19 440.58 622.617 440.58C623.055 440.58 623.395 440.707 623.64 440.961C623.884 441.216 624.006 441.516 624.006 441.862C624.006 442.208 623.909 442.487 623.716 442.701C623.523 442.915 623.426 443.042 623.426 443.083C623.518 443.072 623.614 443.062 623.716 443.052C623.94 442.95 624.153 442.757 624.357 442.472C624.571 442.187 624.759 441.892 624.921 441.587C625.084 441.282 625.257 440.921 625.44 440.504C625.217 439.975 624.937 439.323 624.601 438.55C624.275 437.767 623.909 436.907 623.502 435.971C623.106 435.035 622.79 434.313 622.556 433.804ZM637.251 437.711C636.966 438.474 636.508 439.074 635.877 439.512C635.246 439.939 634.504 440.153 633.649 440.153C632.449 440.153 631.462 439.822 630.689 439.161C629.916 438.489 629.529 437.563 629.529 436.383C629.529 435.285 629.926 434.384 630.719 433.682C631.523 432.97 632.484 432.614 633.603 432.614C634.773 432.614 635.669 432.945 636.289 433.606C636.91 434.267 637.22 435.076 637.22 436.032H632.535C632.535 436.399 632.561 436.775 632.611 437.162C632.673 437.538 632.779 437.904 632.932 438.26C633.095 438.616 633.319 438.906 633.603 439.13C633.898 439.344 634.265 439.451 634.702 439.451C635.323 439.451 635.811 439.278 636.167 438.932C636.533 438.576 636.813 438.133 637.006 437.604L637.251 437.711ZM634.565 435.727C634.555 435.615 634.544 435.483 634.534 435.33C634.534 435.178 634.534 434.985 634.534 434.751C634.534 434.13 634.458 433.662 634.305 433.347C634.153 433.021 633.888 432.858 633.512 432.858C633.186 432.858 632.957 433.016 632.825 433.331C632.703 433.637 632.617 434.11 632.566 434.751L632.535 435.727H634.565ZM637.484 440V439.756L637.896 439.741C638.191 439.71 638.369 439.639 638.43 439.527C638.491 439.415 638.521 439.171 638.521 438.794L638.537 438.092V434.445L638.521 433.82C638.501 433.576 638.47 433.392 638.43 433.27C638.389 433.148 638.206 433.072 637.88 433.041L637.484 433.011V432.767H641.436V434.049C641.507 433.865 641.66 433.591 641.894 433.225C642.128 432.858 642.662 432.675 643.496 432.675C643.984 432.675 644.396 432.848 644.732 433.194C645.078 433.53 645.251 433.932 645.251 434.4C645.251 434.868 645.088 435.259 644.763 435.575C644.447 435.88 644.056 436.032 643.588 436.032C643.201 436.032 642.865 435.9 642.58 435.636C642.306 435.361 642.168 435.051 642.168 434.705C642.168 434.45 642.214 434.216 642.306 434.003C642.407 433.81 642.509 433.611 642.611 433.408C642.56 433.336 642.509 433.301 642.458 433.301C642.194 433.301 641.96 433.459 641.756 433.774C641.563 434.089 641.466 434.384 641.466 434.659V438.184L641.482 438.947C641.482 439.232 641.517 439.425 641.589 439.527C641.66 439.629 641.838 439.695 642.123 439.725L642.58 439.756V440H637.484Z" fill="#EDEDED"/>
<path d="M28.2395 172.893V181H27.2112V179.607C26.7741 180.138 26.2823 180.538 25.7359 180.806C25.1944 181.075 24.6008 181.209 23.955 181.209C22.8075 181.209 21.8265 180.794 21.0118 179.964C20.2021 179.13 19.7973 178.116 19.7973 176.924C19.7973 175.757 20.2071 174.758 21.0267 173.929C21.8463 173.099 22.8324 172.684 23.9848 172.684C24.6505 172.684 25.2515 172.826 25.788 173.109C26.3295 173.392 26.8039 173.817 27.2112 174.383V172.893H28.2395ZM24.0668 173.69C23.4856 173.69 22.9491 173.834 22.4573 174.123C21.9656 174.406 21.5731 174.806 21.2801 175.322C20.9919 175.839 20.8479 176.385 20.8479 176.961C20.8479 177.533 20.9944 178.079 21.2875 178.601C21.5806 179.122 21.973 179.53 22.4648 179.823C22.9615 180.111 23.4931 180.255 24.0593 180.255C24.6306 180.255 25.1721 180.111 25.6837 179.823C26.1953 179.535 26.5878 179.145 26.861 178.653C27.1392 178.161 27.2783 177.607 27.2783 176.991C27.2783 176.052 26.9678 175.268 26.3469 174.637C25.7309 174.006 24.9709 173.69 24.0668 173.69ZM38.686 169.764V181H37.6577V179.607C37.2206 180.138 36.7288 180.538 36.1824 180.806C35.641 181.075 35.0473 181.209 34.4016 181.209C33.2541 181.209 32.273 180.794 31.4584 179.964C30.6487 179.13 30.2438 178.116 30.2438 176.924C30.2438 175.757 30.6536 174.758 31.4733 173.929C32.2929 173.099 33.2789 172.684 34.4314 172.684C35.097 172.684 35.6981 172.826 36.2346 173.109C36.776 173.392 37.2504 173.817 37.6577 174.383V169.764H38.686ZM34.5133 173.69C33.9321 173.69 33.3957 173.834 32.9039 174.123C32.4121 174.406 32.0197 174.806 31.7266 175.322C31.4385 175.839 31.2944 176.385 31.2944 176.961C31.2944 177.533 31.441 178.079 31.7341 178.601C32.0271 179.122 32.4196 179.53 32.9113 179.823C33.4081 180.111 33.9396 180.255 34.5059 180.255C35.0771 180.255 35.6186 180.111 36.1302 179.823C36.6419 179.535 37.0343 179.145 37.3075 178.653C37.5857 178.161 37.7248 177.607 37.7248 176.991C37.7248 176.052 37.4143 175.268 36.7934 174.637C36.1774 174.006 35.4174 173.69 34.5133 173.69ZM40.6606 172.893H41.7261V174.078C42.044 173.611 42.3793 173.263 42.732 173.035C43.0847 172.801 43.4523 172.684 43.8348 172.684C44.1229 172.684 44.4308 172.776 44.7587 172.96L44.2148 173.839C43.9962 173.745 43.8124 173.698 43.6634 173.698C43.3157 173.698 42.9804 173.842 42.6575 174.13C42.3346 174.413 42.0887 174.855 41.9198 175.456C41.7907 175.918 41.7261 176.852 41.7261 178.258V181H40.6606V172.893ZM52.4707 178.31L53.3499 178.772C53.0618 179.338 52.729 179.795 52.3514 180.143C51.9739 180.491 51.5492 180.757 51.0773 180.94C50.6054 181.119 50.0714 181.209 49.4753 181.209C48.154 181.209 47.1207 180.776 46.3756 179.912C45.6305 179.043 45.2579 178.062 45.2579 176.969C45.2579 175.941 45.5734 175.024 46.2042 174.219C47.004 173.196 48.0745 172.684 49.4157 172.684C50.7966 172.684 51.8994 173.209 52.724 174.257C53.3102 174.997 53.6082 175.921 53.6181 177.029H46.3309C46.3508 177.972 46.6513 178.747 47.2325 179.353C47.8137 179.954 48.5315 180.255 49.3859 180.255C49.7982 180.255 50.1981 180.183 50.5855 180.039C50.9779 179.895 51.3108 179.703 51.584 179.465C51.8572 179.227 52.1527 178.842 52.4707 178.31ZM52.4707 176.127C52.3316 175.571 52.1279 175.126 51.8597 174.793C51.5964 174.46 51.2462 174.192 50.8091 173.988C50.3719 173.785 49.9124 173.683 49.4306 173.683C48.6358 173.683 47.9528 173.939 47.3815 174.45C46.9642 174.823 46.6488 175.382 46.4352 176.127H52.4707ZM59.6461 173.78L58.9755 174.473C58.4192 173.931 57.8752 173.661 57.3437 173.661C57.0059 173.661 56.7154 173.772 56.4719 173.996C56.2335 174.219 56.1143 174.48 56.1143 174.778C56.1143 175.042 56.2136 175.292 56.4123 175.531C56.611 175.774 57.0283 176.06 57.6641 176.388C58.4391 176.79 58.9656 177.178 59.2438 177.55C59.517 177.928 59.6536 178.352 59.6536 178.824C59.6536 179.49 59.4201 180.054 58.9532 180.516C58.4862 180.978 57.9026 181.209 57.2022 181.209C56.7352 181.209 56.2881 181.107 55.8609 180.903C55.4387 180.699 55.0885 180.419 54.8103 180.061L55.466 179.316C55.9976 179.917 56.5614 180.218 57.1575 180.218C57.5747 180.218 57.9299 180.084 58.223 179.815C58.516 179.547 58.6626 179.232 58.6626 178.869C58.6626 178.571 58.5657 178.305 58.372 178.072C58.1783 177.843 57.7411 177.555 57.0606 177.207C56.3304 176.83 55.8336 176.457 55.5704 176.09C55.3071 175.722 55.1754 175.302 55.1754 174.83C55.1754 174.214 55.3841 173.703 55.8013 173.295C56.2236 172.888 56.7551 172.684 57.3959 172.684C58.141 172.684 58.8911 173.05 59.6461 173.78ZM65.5773 173.78L64.9067 174.473C64.3503 173.931 63.8064 173.661 63.2749 173.661C62.9371 173.661 62.6465 173.772 62.4031 173.996C62.1646 174.219 62.0454 174.48 62.0454 174.778C62.0454 175.042 62.1448 175.292 62.3435 175.531C62.5422 175.774 62.9594 176.06 63.5953 176.388C64.3702 176.79 64.8967 177.178 65.1749 177.55C65.4481 177.928 65.5847 178.352 65.5847 178.824C65.5847 179.49 65.3513 180.054 64.8843 180.516C64.4174 180.978 63.8337 181.209 63.1333 181.209C62.6664 181.209 62.2193 181.107 61.7921 180.903C61.3698 180.699 61.0196 180.419 60.7415 180.061L61.3972 179.316C61.9287 179.917 62.4925 180.218 63.0886 180.218C63.5059 180.218 63.861 180.084 64.1541 179.815C64.4472 179.547 64.5937 179.232 64.5937 178.869C64.5937 178.571 64.4969 178.305 64.3031 178.072C64.1094 177.843 63.6723 177.555 62.9917 177.207C62.2615 176.83 61.7648 176.457 61.5015 176.09C61.2382 175.722 61.1066 175.302 61.1066 174.83C61.1066 174.214 61.3152 173.703 61.7325 173.295C62.1547 172.888 62.6862 172.684 63.327 172.684C64.0721 172.684 64.8222 173.05 65.5773 173.78ZM74.2579 178.31L75.1371 178.772C74.849 179.338 74.5162 179.795 74.1387 180.143C73.7611 180.491 73.3364 180.757 72.8645 180.94C72.3926 181.119 71.8586 181.209 71.2625 181.209C69.9412 181.209 68.9079 180.776 68.1628 179.912C67.4177 179.043 67.0452 178.062 67.0452 176.969C67.0452 175.941 67.3606 175.024 67.9915 174.219C68.7912 173.196 69.8617 172.684 71.2029 172.684C72.5839 172.684 73.6866 173.209 74.5112 174.257C75.0974 174.997 75.3954 175.921 75.4054 177.029H68.1181C68.138 177.972 68.4385 178.747 69.0197 179.353C69.6009 179.954 70.3187 180.255 71.1731 180.255C71.5854 180.255 71.9853 180.183 72.3727 180.039C72.7652 179.895 73.098 179.703 73.3712 179.465C73.6444 179.227 73.94 178.842 74.2579 178.31ZM74.2579 176.127C74.1188 175.571 73.9151 175.126 73.6469 174.793C73.3836 174.46 73.0334 174.192 72.5963 173.988C72.1591 173.785 71.6997 173.683 71.2178 173.683C70.423 173.683 69.74 173.939 69.1687 174.45C68.7515 174.823 68.436 175.382 68.2224 176.127H74.2579ZM77.3501 172.893H78.3858V174.294C78.7485 173.777 79.121 173.4 79.5035 173.161C80.0301 172.843 80.5839 172.684 81.1651 172.684C81.5576 172.684 81.9301 172.761 82.2828 172.915C82.6355 173.069 82.9236 173.276 83.1471 173.534C83.3707 173.787 83.5644 174.152 83.7283 174.629C84.0761 173.993 84.5107 173.512 85.0323 173.184C85.5539 172.851 86.1152 172.684 86.7163 172.684C87.2776 172.684 87.7718 172.826 88.199 173.109C88.6312 173.392 88.9516 173.787 89.1602 174.294C89.3689 174.801 89.4732 175.561 89.4732 176.574V181H88.4077V176.574C88.4077 175.705 88.3456 175.109 88.2214 174.786C88.0972 174.458 87.8836 174.195 87.5806 173.996C87.2825 173.797 86.9249 173.698 86.5076 173.698C86.0009 173.698 85.5365 173.847 85.1143 174.145C84.697 174.443 84.3915 174.84 84.1978 175.337C84.004 175.834 83.9072 176.663 83.9072 177.826V181H82.8714V176.85C82.8714 175.871 82.8094 175.208 82.6852 174.86C82.566 174.508 82.3548 174.227 82.0518 174.018C81.7488 173.805 81.3887 173.698 80.9714 173.698C80.4896 173.698 80.0375 173.844 79.6153 174.137C79.198 174.426 78.8876 174.816 78.6839 175.307C78.4852 175.799 78.3858 176.552 78.3858 177.565V181H77.3501V172.893ZM99.7558 172.893V181H98.7275V179.607C98.2904 180.138 97.7986 180.538 97.2522 180.806C96.7108 181.075 96.1171 181.209 95.4714 181.209C94.3239 181.209 93.3428 180.794 92.5282 179.964C91.7185 179.13 91.3136 178.116 91.3136 176.924C91.3136 175.757 91.7234 174.758 92.5431 173.929C93.3627 173.099 94.3487 172.684 95.5012 172.684C96.1668 172.684 96.7679 172.826 97.3044 173.109C97.8458 173.392 98.3202 173.817 98.7275 174.383V172.893H99.7558ZM95.5831 173.69C95.002 173.69 94.4655 173.834 93.9737 174.123C93.4819 174.406 93.0895 174.806 92.7964 175.322C92.5083 175.839 92.3642 176.385 92.3642 176.961C92.3642 177.533 92.5108 178.079 92.8039 178.601C93.0969 179.122 93.4894 179.53 93.9811 179.823C94.4779 180.111 95.0094 180.255 95.5757 180.255C96.147 180.255 96.6884 180.111 97.2001 179.823C97.7117 179.535 98.1041 179.145 98.3773 178.653C98.6555 178.161 98.7946 177.607 98.7946 176.991C98.7946 176.052 98.4841 175.268 97.8632 174.637C97.2472 174.006 96.4872 173.69 95.5831 173.69ZM102.475 169.555C102.714 169.555 102.918 169.639 103.086 169.808C103.255 169.977 103.34 170.181 103.34 170.419C103.34 170.653 103.255 170.854 103.086 171.023C102.918 171.192 102.714 171.276 102.475 171.276C102.242 171.276 102.041 171.192 101.872 171.023C101.703 170.854 101.619 170.653 101.619 170.419C101.619 170.181 101.703 169.977 101.872 169.808C102.041 169.639 102.242 169.555 102.475 169.555ZM101.954 172.893H103.005V181H101.954V172.893ZM105.009 169.764H106.052V181H105.009V169.764ZM117.817 178.757H118.607C117.942 179.587 117.326 180.168 116.759 180.501C115.955 180.968 115.038 181.201 114.01 181.201C112.922 181.201 111.919 180.945 111 180.434C110.081 179.917 109.363 179.214 108.846 178.325C108.335 177.436 108.079 176.465 108.079 175.412C108.079 174.344 108.337 173.35 108.854 172.431C109.375 171.512 110.083 170.799 110.977 170.293C111.871 169.781 112.85 169.525 113.913 169.525C115.413 169.525 116.68 170.007 117.713 170.971C118.746 171.929 119.263 173.047 119.263 174.324C119.263 175.253 119.047 176.055 118.615 176.73C118.188 177.401 117.606 177.923 116.871 178.295C116.31 178.583 115.83 178.727 115.433 178.727C115.145 178.727 114.916 178.65 114.748 178.496C114.618 178.382 114.551 178.183 114.546 177.9C114.377 178.114 114.144 178.293 113.846 178.437C113.553 178.581 113.247 178.653 112.929 178.653C112.214 178.653 111.623 178.407 111.156 177.915C110.689 177.418 110.456 176.763 110.456 175.948C110.456 175.069 110.739 174.267 111.305 173.541C111.871 172.816 112.651 172.454 113.645 172.454C114.082 172.454 114.447 172.535 114.74 172.699C115.038 172.863 115.319 173.149 115.582 173.556L115.776 172.528H116.581L115.716 177.401C115.691 177.56 115.679 177.662 115.679 177.707C115.679 177.821 115.714 177.91 115.783 177.975C115.853 178.039 115.942 178.072 116.052 178.072C116.345 178.072 116.725 177.903 117.192 177.565C117.663 177.222 118.029 176.785 118.287 176.254C118.55 175.717 118.682 175.124 118.682 174.473C118.682 173.211 118.192 172.165 117.214 171.336C116.3 170.566 115.187 170.181 113.876 170.181C112.902 170.181 112.018 170.404 111.223 170.852C110.433 171.294 109.807 171.92 109.345 172.729C108.888 173.534 108.66 174.406 108.66 175.345C108.66 176.293 108.891 177.17 109.353 177.975C109.815 178.775 110.453 179.403 111.268 179.86C112.087 180.317 112.989 180.545 113.973 180.545C114.693 180.545 115.346 180.416 115.932 180.158C116.518 179.9 117.147 179.433 117.817 178.757ZM113.302 177.811C113.63 177.811 113.938 177.709 114.226 177.505C114.514 177.297 114.743 176.986 114.911 176.574C115.13 176.033 115.239 175.489 115.239 174.942C115.239 174.44 115.098 174.033 114.815 173.72C114.536 173.407 114.174 173.251 113.727 173.251C113.131 173.251 112.614 173.497 112.177 173.988C111.745 174.475 111.529 175.084 111.529 175.814C111.529 176.425 111.693 176.912 112.02 177.274C112.353 177.632 112.78 177.811 113.302 177.811ZM128.435 172.893H129.486V179.353C129.486 180.491 129.387 181.323 129.188 181.849C128.915 182.595 128.44 183.168 127.765 183.571C127.089 183.973 126.277 184.174 125.328 184.174C124.633 184.174 124.007 184.075 123.451 183.876C122.899 183.682 122.45 183.419 122.102 183.086C121.754 182.758 121.434 182.277 121.141 181.641H122.273C122.581 182.177 122.979 182.575 123.465 182.833C123.952 183.091 124.556 183.22 125.276 183.22C125.986 183.22 126.585 183.086 127.072 182.818C127.564 182.555 127.914 182.222 128.122 181.82C128.331 181.417 128.435 180.769 128.435 179.875V179.458C128.043 179.954 127.564 180.337 126.997 180.605C126.431 180.868 125.83 181 125.194 181C124.449 181 123.749 180.816 123.093 180.449C122.437 180.076 121.93 179.577 121.573 178.951C121.215 178.325 121.036 177.637 121.036 176.887C121.036 176.137 121.223 175.439 121.595 174.793C121.968 174.142 122.482 173.628 123.138 173.251C123.798 172.873 124.494 172.684 125.224 172.684C125.83 172.684 126.394 172.811 126.915 173.065C127.442 173.313 127.949 173.725 128.435 174.301V172.893ZM125.358 173.69C124.767 173.69 124.218 173.834 123.711 174.123C123.205 174.406 122.807 174.801 122.519 175.307C122.231 175.809 122.087 176.353 122.087 176.939C122.087 177.828 122.385 178.563 122.981 179.145C123.577 179.726 124.35 180.016 125.298 180.016C126.257 180.016 127.027 179.728 127.608 179.152C128.194 178.576 128.488 177.818 128.488 176.88C128.488 176.269 128.353 175.725 128.085 175.248C127.817 174.766 127.437 174.386 126.945 174.108C126.453 173.829 125.924 173.69 125.358 173.69ZM131.714 172.893H132.75V174.294C133.112 173.777 133.485 173.4 133.867 173.161C134.394 172.843 134.948 172.684 135.529 172.684C135.921 172.684 136.294 172.761 136.647 172.915C136.999 173.069 137.287 173.276 137.511 173.534C137.734 173.787 137.928 174.152 138.092 174.629C138.44 173.993 138.874 173.512 139.396 173.184C139.918 172.851 140.479 172.684 141.08 172.684C141.641 172.684 142.136 172.826 142.563 173.109C142.995 173.392 143.315 173.787 143.524 174.294C143.733 174.801 143.837 175.561 143.837 176.574V181H142.771V176.574C142.771 175.705 142.709 175.109 142.585 174.786C142.461 174.458 142.247 174.195 141.944 173.996C141.646 173.797 141.289 173.698 140.871 173.698C140.365 173.698 139.9 173.847 139.478 174.145C139.061 174.443 138.755 174.84 138.562 175.337C138.368 175.834 138.271 176.663 138.271 177.826V181H137.235V176.85C137.235 175.871 137.173 175.208 137.049 174.86C136.93 174.508 136.719 174.227 136.416 174.018C136.113 173.805 135.752 173.698 135.335 173.698C134.853 173.698 134.401 173.844 133.979 174.137C133.562 174.426 133.251 174.816 133.048 175.307C132.849 175.799 132.75 176.552 132.75 177.565V181H131.714V172.893ZM154.12 172.893V181H153.091V179.607C152.654 180.138 152.162 180.538 151.616 180.806C151.075 181.075 150.481 181.209 149.835 181.209C148.688 181.209 147.707 180.794 146.892 179.964C146.082 179.13 145.677 178.116 145.677 176.924C145.677 175.757 146.087 174.758 146.907 173.929C147.726 173.099 148.712 172.684 149.865 172.684C150.531 172.684 151.132 172.826 151.668 173.109C152.21 173.392 152.684 173.817 153.091 174.383V172.893H154.12ZM149.947 173.69C149.366 173.69 148.829 173.834 148.337 174.123C147.846 174.406 147.453 174.806 147.16 175.322C146.872 175.839 146.728 176.385 146.728 176.961C146.728 177.533 146.875 178.079 147.168 178.601C147.461 179.122 147.853 179.53 148.345 179.823C148.842 180.111 149.373 180.255 149.939 180.255C150.511 180.255 151.052 180.111 151.564 179.823C152.075 179.535 152.468 179.145 152.741 178.653C153.019 178.161 153.158 177.607 153.158 176.991C153.158 176.052 152.848 175.268 152.227 174.637C151.611 174.006 150.851 173.69 149.947 173.69ZM156.839 169.555C157.078 169.555 157.281 169.639 157.45 169.808C157.619 169.977 157.704 170.181 157.704 170.419C157.704 170.653 157.619 170.854 157.45 171.023C157.281 171.192 157.078 171.276 156.839 171.276C156.606 171.276 156.405 171.192 156.236 171.023C156.067 170.854 155.982 170.653 155.982 170.419C155.982 170.181 156.067 169.977 156.236 169.808C156.405 169.639 156.606 169.555 156.839 169.555ZM156.318 172.893H157.368V181H156.318V172.893ZM159.373 169.764H160.416V181H159.373V169.764ZM163.732 179.361C163.985 179.361 164.201 179.45 164.38 179.629C164.559 179.808 164.648 180.026 164.648 180.285C164.648 180.538 164.559 180.757 164.38 180.94C164.201 181.119 163.985 181.209 163.732 181.209C163.478 181.209 163.262 181.119 163.083 180.94C162.904 180.757 162.815 180.538 162.815 180.285C162.815 180.026 162.904 179.808 163.083 179.629C163.262 179.45 163.478 179.361 163.732 179.361ZM174.685 174.577L173.858 175.091C173.142 174.142 172.166 173.668 170.929 173.668C169.941 173.668 169.119 173.986 168.463 174.622C167.812 175.258 167.487 176.03 167.487 176.939C167.487 177.53 167.636 178.087 167.934 178.608C168.237 179.13 168.649 179.535 169.171 179.823C169.697 180.111 170.286 180.255 170.937 180.255C172.129 180.255 173.103 179.78 173.858 178.832L174.685 179.376C174.297 179.957 173.776 180.409 173.12 180.732C172.469 181.05 171.727 181.209 170.892 181.209C169.611 181.209 168.547 180.801 167.703 179.987C166.859 179.172 166.436 178.181 166.436 177.014C166.436 176.229 166.633 175.501 167.025 174.83C167.422 174.155 167.966 173.628 168.657 173.251C169.347 172.873 170.12 172.684 170.974 172.684C171.511 172.684 172.027 172.766 172.524 172.93C173.026 173.094 173.45 173.308 173.798 173.571C174.146 173.834 174.441 174.17 174.685 174.577ZM180.534 172.684C181.781 172.684 182.814 173.137 183.634 174.041C184.379 174.865 184.751 175.841 184.751 176.969C184.751 178.101 184.356 179.092 183.567 179.942C182.782 180.786 181.771 181.209 180.534 181.209C179.292 181.209 178.276 180.786 177.486 179.942C176.702 179.092 176.309 178.101 176.309 176.969C176.309 175.846 176.682 174.873 177.427 174.048C178.246 173.139 179.282 172.684 180.534 172.684ZM180.534 173.705C179.67 173.705 178.927 174.026 178.306 174.667C177.685 175.307 177.375 176.082 177.375 176.991C177.375 177.577 177.516 178.124 177.799 178.631C178.083 179.137 178.465 179.53 178.947 179.808C179.429 180.081 179.958 180.218 180.534 180.218C181.11 180.218 181.639 180.081 182.121 179.808C182.603 179.53 182.985 179.137 183.269 178.631C183.552 178.124 183.693 177.577 183.693 176.991C183.693 176.082 183.38 175.307 182.754 174.667C182.133 174.026 181.393 173.705 180.534 173.705ZM186.689 172.893H187.724V174.294C188.087 173.777 188.46 173.4 188.842 173.161C189.369 172.843 189.922 172.684 190.504 172.684C190.896 172.684 191.269 172.761 191.621 172.915C191.974 173.069 192.262 173.276 192.486 173.534C192.709 173.787 192.903 174.152 193.067 174.629C193.415 173.993 193.849 173.512 194.371 173.184C194.892 172.851 195.454 172.684 196.055 172.684C196.616 172.684 197.11 172.826 197.538 173.109C197.97 173.392 198.29 173.787 198.499 174.294C198.707 174.801 198.812 175.561 198.812 176.574V181H197.746V176.574C197.746 175.705 197.684 175.109 197.56 174.786C197.436 174.458 197.222 174.195 196.919 173.996C196.621 173.797 196.263 173.698 195.846 173.698C195.339 173.698 194.875 173.847 194.453 174.145C194.035 174.443 193.73 174.84 193.536 175.337C193.343 175.834 193.246 176.663 193.246 177.826V181H192.21V176.85C192.21 175.871 192.148 175.208 192.024 174.86C191.904 174.508 191.693 174.227 191.39 174.018C191.087 173.805 190.727 173.698 190.31 173.698C189.828 173.698 189.376 173.844 188.954 174.137C188.537 174.426 188.226 174.816 188.022 175.307C187.824 175.799 187.724 176.552 187.724 177.565V181H186.689V172.893Z" fill="black" fill-opacity="0.5"/>
<path d="M19.8345 260L21.3918 249.039H21.5707L26.0265 258.033L30.4375 249.039H30.6164L32.1886 260H31.1082L30.0352 252.161L26.1606 260H25.8849L21.9581 252.102L20.8926 260H19.8345ZM41.0108 257.31L41.89 257.772C41.6019 258.338 41.2691 258.795 40.8915 259.143C40.514 259.491 40.0893 259.757 39.6174 259.94C39.1455 260.119 38.6115 260.209 38.0154 260.209C36.694 260.209 35.6608 259.776 34.9157 258.912C34.1706 258.043 33.798 257.062 33.798 255.969C33.798 254.941 34.1135 254.024 34.7443 253.219C35.5441 252.196 36.6146 251.684 37.9558 251.684C39.3367 251.684 40.4395 252.209 41.2641 253.257C41.8503 253.997 42.1483 254.921 42.1582 256.029H34.871C34.8909 256.972 35.1914 257.747 35.7726 258.353C36.3538 258.954 37.0716 259.255 37.926 259.255C38.3383 259.255 38.7382 259.183 39.1256 259.039C39.518 258.895 39.8509 258.703 40.1241 258.465C40.3973 258.227 40.6928 257.842 41.0108 257.31ZM41.0108 255.127C40.8717 254.571 40.668 254.126 40.3998 253.793C40.1365 253.46 39.7863 253.192 39.3492 252.988C38.912 252.785 38.4525 252.683 37.9707 252.683C37.1759 252.683 36.4929 252.939 35.9216 253.45C35.5043 253.823 35.1889 254.382 34.9753 255.127H41.0108ZM48.1862 252.78L47.5156 253.473C46.9593 252.931 46.4153 252.661 45.8838 252.661C45.546 252.661 45.2554 252.772 45.012 252.996C44.7736 253.219 44.6544 253.48 44.6544 253.778C44.6544 254.042 44.7537 254.292 44.9524 254.531C45.1511 254.774 45.5684 255.06 46.2042 255.388C46.9792 255.79 47.5057 256.178 47.7839 256.55C48.0571 256.928 48.1937 257.352 48.1937 257.824C48.1937 258.49 47.9602 259.054 47.4933 259.516C47.0263 259.978 46.4427 260.209 45.7423 260.209C45.2753 260.209 44.8282 260.107 44.401 259.903C43.9788 259.699 43.6286 259.419 43.3504 259.061L44.0061 258.316C44.5377 258.917 45.1015 259.218 45.6975 259.218C46.1148 259.218 46.47 259.084 46.7631 258.815C47.0561 258.547 47.2027 258.232 47.2027 257.869C47.2027 257.571 47.1058 257.305 46.9121 257.072C46.7184 256.843 46.2812 256.555 45.6007 256.207C44.8705 255.83 44.3737 255.457 44.1104 255.09C43.8472 254.722 43.7155 254.302 43.7155 253.83C43.7155 253.214 43.9242 252.703 44.3414 252.295C44.7637 251.888 45.2952 251.684 45.936 251.684C46.6811 251.684 47.4312 252.05 48.1862 252.78ZM54.1174 252.78L53.4468 253.473C52.8904 252.931 52.3465 252.661 51.815 252.661C51.4772 252.661 51.1866 252.772 50.9432 252.996C50.7047 253.219 50.5855 253.48 50.5855 253.778C50.5855 254.042 50.6849 254.292 50.8836 254.531C51.0823 254.774 51.4995 255.06 52.1354 255.388C52.9103 255.79 53.4368 256.178 53.715 256.55C53.9882 256.928 54.1248 257.352 54.1248 257.824C54.1248 258.49 53.8914 259.054 53.4244 259.516C52.9575 259.978 52.3738 260.209 51.6734 260.209C51.2064 260.209 50.7594 260.107 50.3322 259.903C49.9099 259.699 49.5597 259.419 49.2816 259.061L49.9373 258.316C50.4688 258.917 51.0326 259.218 51.6287 259.218C52.0459 259.218 52.4011 259.084 52.6942 258.815C52.9873 258.547 53.1338 258.232 53.1338 257.869C53.1338 257.571 53.037 257.305 52.8432 257.072C52.6495 256.843 52.2124 256.555 51.5318 256.207C50.8016 255.83 50.3049 255.457 50.0416 255.09C49.7783 254.722 49.6467 254.302 49.6467 253.83C49.6467 253.214 49.8553 252.703 50.2726 252.295C50.6948 251.888 51.2263 251.684 51.8671 251.684C52.6122 251.684 53.3623 252.05 54.1174 252.78ZM64.0498 251.893V260H63.0215V258.607C62.5844 259.138 62.0926 259.538 61.5462 259.806C61.0047 260.075 60.4111 260.209 59.7654 260.209C58.6179 260.209 57.6368 259.794 56.8221 258.964C56.0125 258.13 55.6076 257.116 55.6076 255.924C55.6076 254.757 56.0174 253.758 56.8371 252.929C57.6567 252.099 58.6427 251.684 59.7952 251.684C60.4608 251.684 61.0619 251.826 61.5984 252.109C62.1398 252.392 62.6142 252.817 63.0215 253.383V251.893H64.0498ZM59.8771 252.69C59.2959 252.69 58.7595 252.834 58.2677 253.123C57.7759 253.406 57.3835 253.806 57.0904 254.322C56.8023 254.839 56.6582 255.385 56.6582 255.961C56.6582 256.533 56.8048 257.079 57.0978 257.601C57.3909 258.122 57.7834 258.53 58.2751 258.823C58.7719 259.111 59.3034 259.255 59.8697 259.255C60.4409 259.255 60.9824 259.111 61.494 258.823C62.0057 258.535 62.3981 258.145 62.6713 257.653C62.9495 257.161 63.0886 256.607 63.0886 255.991C63.0886 255.052 62.7781 254.268 62.1572 253.637C61.5412 253.006 60.7812 252.69 59.8771 252.69ZM73.3861 251.893H74.4367V258.353C74.4367 259.491 74.3374 260.323 74.1387 260.849C73.8655 261.595 73.3911 262.168 72.7155 262.571C72.0399 262.973 71.2277 263.174 70.279 263.174C69.5835 263.174 68.9576 263.075 68.4013 262.876C67.8499 262.682 67.4003 262.419 67.0526 262.086C66.7049 261.758 66.3845 261.277 66.0914 260.641H67.224C67.532 261.177 67.9294 261.575 68.4162 261.833C68.903 262.091 69.5065 262.22 70.2268 262.22C70.9372 262.22 71.5357 262.086 72.0225 261.818C72.5143 261.555 72.8645 261.222 73.0732 260.82C73.2818 260.417 73.3861 259.769 73.3861 258.875V258.458C72.9937 258.954 72.5143 259.337 71.948 259.605C71.3817 259.868 70.7807 260 70.1448 260C69.3997 260 68.6993 259.816 68.0436 259.449C67.3879 259.076 66.8812 258.577 66.5236 257.951C66.1659 257.325 65.9871 256.637 65.9871 255.887C65.9871 255.137 66.1734 254.439 66.5459 253.793C66.9185 253.142 67.4326 252.628 68.0883 252.251C68.749 251.873 69.4444 251.684 70.1746 251.684C70.7807 251.684 71.3445 251.811 71.8661 252.065C72.3926 252.313 72.8993 252.725 73.3861 253.301V251.893ZM70.3088 252.69C69.7176 252.69 69.1687 252.834 68.6621 253.123C68.1554 253.406 67.758 253.801 67.4699 254.307C67.1818 254.809 67.0377 255.353 67.0377 255.939C67.0377 256.828 67.3358 257.563 67.9318 258.145C68.5279 258.726 69.3004 259.016 70.2492 259.016C71.2079 259.016 71.9778 258.728 72.559 258.152C73.1452 257.576 73.4383 256.818 73.4383 255.88C73.4383 255.269 73.3041 254.725 73.0359 254.248C72.7677 253.766 72.3876 253.386 71.8959 253.108C71.4041 252.829 70.8751 252.69 70.3088 252.69ZM83.4973 257.31L84.3766 257.772C84.0885 258.338 83.7557 258.795 83.3781 259.143C83.0006 259.491 82.5759 259.757 82.104 259.94C81.6321 260.119 81.0981 260.209 80.502 260.209C79.1806 260.209 78.1474 259.776 77.4023 258.912C76.6572 258.043 76.2846 257.062 76.2846 255.969C76.2846 254.941 76.6 254.024 77.2309 253.219C78.0307 252.196 79.1012 251.684 80.4424 251.684C81.8233 251.684 82.9261 252.209 83.7507 253.257C84.3368 253.997 84.6349 254.921 84.6448 256.029H77.3576C77.3774 256.972 77.678 257.747 78.2592 258.353C78.8404 258.954 79.5582 259.255 80.4126 259.255C80.8249 259.255 81.2247 259.183 81.6122 259.039C82.0046 258.895 82.3374 258.703 82.6107 258.465C82.8839 258.227 83.1794 257.842 83.4973 257.31ZM83.4973 255.127C83.3583 254.571 83.1546 254.126 82.8863 253.793C82.6231 253.46 82.2729 253.192 81.8357 252.988C81.3986 252.785 80.9391 252.683 80.4573 252.683C79.6625 252.683 78.9795 252.939 78.4082 253.45C77.9909 253.823 77.6755 254.382 77.4619 255.127H83.4973ZM87.7445 258.361C87.9978 258.361 88.2139 258.45 88.3928 258.629C88.5716 258.808 88.661 259.026 88.661 259.285C88.661 259.538 88.5716 259.757 88.3928 259.94C88.2139 260.119 87.9978 260.209 87.7445 260.209C87.4912 260.209 87.2751 260.119 87.0963 259.94C86.9174 259.757 86.828 259.538 86.828 259.285C86.828 259.026 86.9174 258.808 87.0963 258.629C87.2751 258.45 87.4912 258.361 87.7445 258.361ZM91.9768 258.361C92.2301 258.361 92.4462 258.45 92.625 258.629C92.8039 258.808 92.8933 259.026 92.8933 259.285C92.8933 259.538 92.8039 259.757 92.625 259.94C92.4462 260.119 92.2301 260.209 91.9768 260.209C91.7234 260.209 91.5074 260.119 91.3285 259.94C91.1497 259.757 91.0603 259.538 91.0603 259.285C91.0603 259.026 91.1497 258.808 91.3285 258.629C91.5074 258.45 91.7234 258.361 91.9768 258.361ZM96.209 258.361C96.4624 258.361 96.6785 258.45 96.8573 258.629C97.0361 258.808 97.1255 259.026 97.1255 259.285C97.1255 259.538 97.0361 259.757 96.8573 259.94C96.6785 260.119 96.4624 260.209 96.209 260.209C95.9557 260.209 95.7396 260.119 95.5608 259.94C95.382 259.757 95.2925 259.538 95.2925 259.285C95.2925 259.026 95.382 258.808 95.5608 258.629C95.7396 258.45 95.9557 258.361 96.209 258.361Z" fill="black" fill-opacity="0.5"/>
</svg>
