<svg width="45" height="15" viewBox="0 0 45 15" fill="none" xmlns="http://www.w3.org/2000/svg">
<path d="M6.82723 4.08431C6.95264 3.32297 8.04733 3.32297 8.17274 4.08431L8.56064 6.43932L10.9157 6.82723C11.677 6.95264 11.677 8.04733 10.9157 8.17274L8.56064 8.56064L8.17274 10.9157C8.04733 11.677 6.95264 11.677 6.82723 10.9157L6.43932 8.56064L4.08431 8.17274C3.32297 8.04733 3.32297 6.95264 4.08431 6.82723L6.43932 6.43932L6.82723 4.08431Z" fill="#454444"/>
<path d="M21.8272 4.08431C21.9526 3.32297 23.0473 3.32297 23.1727 4.08431L23.5606 6.43932L25.9157 6.82723C26.677 6.95264 26.677 8.04733 25.9157 8.17274L23.5606 8.56064L23.1727 10.9157C23.0473 11.677 21.9526 11.677 21.8272 10.9157L21.4393 8.56064L19.0843 8.17274C18.323 8.04733 18.323 6.95264 19.0843 6.82723L21.4393 6.43932L21.8272 4.08431Z" fill="#454444"/>
<path d="M36.8272 4.08431C36.9526 3.32297 38.0473 3.32297 38.1727 4.08431L38.5606 6.43932L40.9157 6.82723C41.677 6.95264 41.677 8.04733 40.9157 8.17274L38.5606 8.56064L38.1727 10.9157C38.0473 11.677 36.9526 11.677 36.8272 10.9157L36.4393 8.56064L34.0843 8.17274C33.323 8.04733 33.323 6.95264 34.0843 6.82723L36.4393 6.43932L36.8272 4.08431Z" fill="#454444"/>
</svg>
