<svg width="34" height="147" viewBox="0 0 34 147" fill="none" xmlns="http://www.w3.org/2000/svg">
<path d="M20.9202 132.111L31.625 132.265L21.1219 130.178L30.9637 125.942L20.5251 128.33L27.8019 120.434L19.2317 126.886L22.6855 116.697L17.4665 126.096L16.4997 115.375L15.5335 126.096L10.3139 116.697L13.7683 126.886L5.19809 120.434L12.4749 128.33L2.03628 125.942L11.8775 130.178L1.375 132.265L12.0798 132.111L3.32898 138.313L13.0459 133.794L7.56079 143.038L14.6095 134.936L13.3379 145.625L16.4997 135.34L19.6621 145.625L18.3905 134.936L25.4392 143.038L19.9541 133.794L29.6703 138.313L20.9202 132.111Z" fill="black"/>
<path d="M21.9202 75.1112L32.625 75.2654L22.1219 73.1785L31.9637 68.9417L21.5251 71.3304L28.8019 63.4344L20.2317 69.8858L23.6855 59.6967L18.4665 69.096L17.4997 58.375L16.5335 69.096L11.3139 59.6967L14.7683 69.8858L6.19809 63.4344L13.4749 71.3304L3.03628 68.9417L12.8775 73.1785L2.375 75.2654L13.0798 75.1112L4.32898 81.3134L14.0459 76.794L8.56079 86.0383L15.6095 77.9361L14.3379 88.625L17.4997 78.3403L20.6621 88.625L19.3905 77.9361L26.4392 86.0383L20.9541 76.794L30.6703 81.3134L21.9202 75.1112Z" fill="black"/>
<path d="M20.9202 18.1112L31.625 18.2654L21.1219 16.1785L30.9637 11.9417L20.5251 14.3304L27.8019 6.43442L19.2317 12.8858L22.6855 2.69669L17.4665 12.096L16.4997 1.375L15.5335 12.096L10.3139 2.69669L13.7683 12.8858L5.19809 6.43442L12.4749 14.3304L2.03628 11.9417L11.8775 16.1785L1.375 18.2654L12.0798 18.1112L3.32898 24.3134L13.0459 19.794L7.56079 29.0383L14.6095 20.9361L13.3379 31.625L16.4997 21.3403L19.6621 31.625L18.3905 20.9361L25.4392 29.0383L19.9541 19.794L29.6703 24.3134L20.9202 18.1112Z" fill="black"/>
</svg>
