<svg width="20" height="20" viewBox="0 0 20 20" fill="none" xmlns="http://www.w3.org/2000/svg">
<path fill-rule="evenodd" clip-rule="evenodd" d="M9.99998 2.00682L9.65157 4.12208C9.18413 6.95991 6.95991 9.18413 4.12208 9.65157L2.00682 9.99998L4.12208 10.3484C6.95991 10.8158 9.18413 13.0401 9.65157 15.8779L9.99998 17.9931L10.3484 15.8779C10.8158 13.0401 13.0401 10.8158 15.8779 10.3484L17.9931 9.99998L15.8779 9.65157C13.0401 9.18413 10.8158 6.95991 10.3484 4.12208L9.99998 2.00682ZM9.32865 4.06889L9.83852 0.973389L10.1614 0.973389L10.6713 4.06889C11.116 6.76829 13.2317 8.88401 15.9311 9.32865L19.0266 9.83852V10.1614L15.9311 10.6713C13.2317 11.116 11.116 13.2317 10.6713 15.9311L10.1614 19.0266H9.83852L9.32865 15.9311C8.88401 13.2317 6.76829 11.116 4.06889 10.6713L0.973389 10.1614L0.973389 9.83852L4.06889 9.32865C6.76829 8.88401 8.88401 6.76829 9.32865 4.06889Z" fill="#202020"/>
</svg>
