<svg width="596" height="162" viewBox="0 0 596 162" fill="none" xmlns="http://www.w3.org/2000/svg">
<path d="M552.151 52.749C549.258 52.4703 546.969 50.1821 546.69 47.2915L546.219 42.4106L545.75 47.2915C545.472 50.1826 543.183 52.4707 540.29 52.749L535.413 53.2185L540.291 53.6879C543.184 53.9667 545.473 56.2548 545.752 59.1454L546.223 64.0263L546.692 59.1454C546.97 56.2543 549.259 53.9662 552.152 53.6879L557.029 53.2185L552.151 52.749Z" fill="#3A3A3A"/>
<path d="M586.523 20.0878C580.902 19.5462 576.454 15.1003 575.913 9.48378L575 0L574.087 9.48378C573.546 15.1013 569.098 19.5472 563.477 20.0878L554 21L563.477 21.9122C569.098 22.4538 573.546 26.8997 574.087 32.5162L575 42L575.913 32.5162C576.454 26.8987 580.902 22.4528 586.523 21.9122L596 21L586.523 20.0878Z" fill="#3E3E3E"/>
<path d="M28.6513 142.696C23.6992 142.219 19.7807 138.303 19.3041 133.355L18.5 125L17.6959 133.355C17.2193 138.303 13.3008 142.22 8.34871 142.696L0 143.5L8.34871 144.304C13.3008 144.781 17.2193 148.697 17.6959 153.645L18.5 162L19.3041 153.645C19.7807 148.697 23.6992 144.78 28.6513 144.304L37 143.5L28.6513 142.696Z" fill="#3E3E3E"/>
</svg>
