<svg width="63" height="39" viewBox="0 0 63 39" fill="none" xmlns="http://www.w3.org/2000/svg">
<path d="M57.1513 26.749C54.2582 26.4703 51.9686 24.1821 51.6896 21.2915L51.219 16.4106L50.7501 21.2915C50.4722 24.1826 48.1834 26.4707 45.2904 26.749L40.4131 27.2185L45.2906 27.6879C48.1837 27.9667 50.4733 30.2548 50.7523 33.1454L51.223 38.0263L51.6918 33.1454C51.9697 30.2543 54.2585 27.9662 57.1515 27.6879L62.0288 27.2185L57.1513 26.749Z" fill="#3A3A3A"/>
<path d="M26.7645 16.1109C22.2561 15.6765 18.6887 12.1108 18.2548 7.60621L17.5227 0L16.7906 7.60621C16.3567 12.1116 12.7893 15.6773 8.28088 16.1109L0.680176 16.8425L8.28088 17.5741C12.7893 18.0085 16.3567 21.5742 16.7906 26.0788L17.5227 33.685L18.2548 26.0788C18.6887 21.5734 22.2561 18.0077 26.7645 17.5741L34.3652 16.8425L26.7645 16.1109Z" fill="#3E3E3E"/>
</svg>
