<svg width="498" height="42" viewBox="0 0 498 42" fill="none" xmlns="http://www.w3.org/2000/svg">
<path d="M30.9685 20.0878C25.6159 19.5462 21.3805 15.1003 20.8653 9.48378L19.9962 0L19.127 9.48378C18.6119 15.1013 14.3765 19.5472 9.0239 20.0878L0 21L9.0239 21.9122C14.3765 22.4538 18.6119 26.8997 19.127 32.5162L19.9962 42L20.8653 32.5162C21.3805 26.8987 25.6159 22.4528 30.9685 21.9122L39.9924 21L30.9685 20.0878Z" fill="#3E3E3E"/>
<path d="M488.976 20.0878C483.624 19.5462 479.388 15.1003 478.873 9.48378L478.004 0L477.135 9.48378C476.62 15.1013 472.384 19.5472 467.032 20.0878L458.008 21L467.032 21.9122C472.384 22.4538 476.62 26.8997 477.135 32.5162L478.004 42L478.873 32.5162C479.388 26.8987 483.624 22.4528 488.976 21.9122L498 21L488.976 20.0878Z" fill="#3E3E3E"/>
</svg>
