<svg width="100" height="100" viewBox="0 0 100 100" fill="none" xmlns="http://www.w3.org/2000/svg">
<rect x="11.5" y="32.5" width="79" height="35" rx="4.5" fill="#23262C" stroke="#393939"/>
<path d="M19 46H37" stroke="#CBD1D8" stroke-linecap="round"/>
<path d="M22 51H35" stroke="#CBD1D8" stroke-linecap="round"/>
<path d="M25 56H32" stroke="#CBD1D8" stroke-linecap="round"/>
<path d="M53.709 46.6104H49.6074V50.2432H53.4014V51.3491H49.6074V56H48.377V45.4971H53.709V46.6104ZM56.1553 46.5957C55.9404 46.5957 55.7573 46.5225 55.606 46.376C55.4546 46.2295 55.3789 46.0439 55.3789 45.8193C55.3789 45.5947 55.4546 45.4092 55.606 45.2627C55.7573 45.1113 55.9404 45.0356 56.1553 45.0356C56.375 45.0356 56.5605 45.1113 56.7119 45.2627C56.8682 45.4092 56.9463 45.5947 56.9463 45.8193C56.9463 46.0342 56.8682 46.2173 56.7119 46.3687C56.5605 46.52 56.375 46.5957 56.1553 46.5957ZM56.7412 56H55.54V48.5H56.7412V56ZM60.374 56H59.1729V44.8965H60.374V56ZM66.2847 55.9268C66.0015 56.083 65.6279 56.1611 65.1641 56.1611C63.8506 56.1611 63.1938 55.4287 63.1938 53.9639V49.5254H61.9048V48.5H63.1938V46.6689L64.395 46.2808V48.5H66.2847V49.5254H64.395V53.7515C64.395 54.2544 64.4805 54.6133 64.6514 54.8281C64.8223 55.043 65.1055 55.1504 65.501 55.1504C65.8037 55.1504 66.0649 55.0674 66.2847 54.9014V55.9268ZM73.9165 52.5503H68.6211C68.6406 53.3853 68.8652 54.0298 69.2949 54.4839C69.7246 54.938 70.3154 55.165 71.0674 55.165C71.9121 55.165 72.6885 54.8867 73.3965 54.3301V55.458C72.7373 55.9365 71.8657 56.1758 70.7817 56.1758C69.7222 56.1758 68.8896 55.8364 68.2842 55.1577C67.6787 54.4741 67.376 53.5146 67.376 52.2793C67.376 51.1123 67.7056 50.1626 68.3647 49.4302C69.0288 48.6929 69.8516 48.3242 70.833 48.3242C71.8145 48.3242 72.5737 48.6416 73.1108 49.2764C73.6479 49.9111 73.9165 50.7925 73.9165 51.9204V52.5503ZM72.686 51.5322C72.6812 50.8389 72.5127 50.2993 72.1807 49.9136C71.8535 49.5278 71.397 49.335 70.811 49.335C70.2446 49.335 69.7637 49.5376 69.3682 49.9429C68.9727 50.3481 68.7285 50.8779 68.6357 51.5322H72.686ZM79.6514 49.7158C79.4414 49.5547 79.1387 49.4741 78.7432 49.4741C78.2305 49.4741 77.8008 49.7158 77.4541 50.1992C77.1123 50.6826 76.9414 51.3418 76.9414 52.1768V56H75.7402V48.5H76.9414V50.0454H76.9707C77.1416 49.5181 77.4028 49.1079 77.7544 48.8149C78.106 48.5171 78.499 48.3682 78.9336 48.3682C79.2461 48.3682 79.4854 48.4023 79.6514 48.4707V49.7158Z" fill="#CBD1D8"/>
</svg>
