<svg width="1007" height="140" viewBox="0 0 1007 140" fill="none" xmlns="http://www.w3.org/2000/svg">
<path d="M55.575 53V35.5H58.825V53H55.575ZM44.35 53V35.5H47.6V53H44.35ZM45.7 45.8V42.75H57.15V45.8H45.7ZM69.0145 53.25C67.6978 53.25 66.5228 52.9583 65.4895 52.375C64.4561 51.775 63.6395 50.9583 63.0395 49.925C62.4395 48.8917 62.1395 47.7167 62.1395 46.4C62.1395 45.0833 62.4395 43.9083 63.0395 42.875C63.6395 41.8417 64.4561 41.0333 65.4895 40.45C66.5228 39.85 67.6978 39.55 69.0145 39.55C70.3145 39.55 71.4811 39.85 72.5145 40.45C73.5478 41.0333 74.3561 41.8417 74.9395 42.875C75.5395 43.9083 75.8395 45.0833 75.8395 46.4C75.8395 47.7167 75.5395 48.8917 74.9395 49.925C74.3561 50.9583 73.5478 51.775 72.5145 52.375C71.4811 52.9583 70.3145 53.25 69.0145 53.25ZM69.0145 50.525C69.7311 50.525 70.3645 50.3417 70.9145 49.975C71.4811 49.6083 71.9228 49.1167 72.2395 48.5C72.5728 47.8833 72.7311 47.1833 72.7145 46.4C72.7311 45.6 72.5728 44.8917 72.2395 44.275C71.9228 43.6583 71.4811 43.175 70.9145 42.825C70.3645 42.4583 69.7311 42.275 69.0145 42.275C68.2978 42.275 67.6478 42.4583 67.0645 42.825C66.4978 43.175 66.0561 43.6667 65.7395 44.3C65.4228 44.9167 65.2645 45.6167 65.2645 46.4C65.2645 47.1833 65.4228 47.8833 65.7395 48.5C66.0561 49.1167 66.4978 49.6083 67.0645 49.975C67.6478 50.3417 68.2978 50.525 69.0145 50.525ZM78.54 53V39.825H81.565L81.615 42.475L81.115 42.675C81.265 42.2417 81.49 41.8417 81.79 41.475C82.09 41.0917 82.4484 40.7667 82.865 40.5C83.2817 40.2167 83.7234 40 84.19 39.85C84.6567 39.6833 85.1317 39.6 85.615 39.6C86.3317 39.6 86.965 39.7167 87.515 39.95C88.0817 40.1667 88.5484 40.5167 88.915 41C89.2984 41.4833 89.5817 42.1 89.765 42.85L89.29 42.75L89.49 42.35C89.6734 41.95 89.9317 41.5917 90.265 41.275C90.5984 40.9417 90.9734 40.65 91.39 40.4C91.8067 40.1333 92.24 39.9333 92.69 39.8C93.1567 39.6667 93.615 39.6 94.065 39.6C95.065 39.6 95.8984 39.8 96.565 40.2C97.2317 40.6 97.7317 41.2083 98.065 42.025C98.3984 42.8417 98.565 43.85 98.565 45.05V53H95.465V45.25C95.465 44.5833 95.3734 44.0333 95.19 43.6C95.0234 43.1667 94.7567 42.85 94.39 42.65C94.04 42.4333 93.5984 42.325 93.065 42.325C92.6484 42.325 92.2484 42.4 91.865 42.55C91.4984 42.6833 91.1817 42.8833 90.915 43.15C90.6484 43.4 90.44 43.6917 90.29 44.025C90.14 44.3583 90.065 44.725 90.065 45.125V53H86.965V45.225C86.965 44.5917 86.8734 44.0667 86.69 43.65C86.5067 43.2167 86.24 42.8917 85.89 42.675C85.54 42.4417 85.115 42.325 84.615 42.325C84.1984 42.325 83.8067 42.4 83.44 42.55C83.0734 42.6833 82.7567 42.875 82.49 43.125C82.2234 43.375 82.015 43.6667 81.865 44C81.715 44.3333 81.64 44.7 81.64 45.1V53H78.54ZM108.154 53.25C106.77 53.25 105.545 52.9583 104.479 52.375C103.429 51.7917 102.604 51 102.004 50C101.42 48.9833 101.129 47.825 101.129 46.525C101.129 45.4917 101.295 44.55 101.629 43.7C101.962 42.85 102.42 42.1167 103.004 41.5C103.604 40.8667 104.312 40.3833 105.129 40.05C105.962 39.7 106.87 39.525 107.854 39.525C108.72 39.525 109.529 39.6917 110.279 40.025C111.029 40.3583 111.679 40.8167 112.229 41.4C112.779 41.9667 113.195 42.65 113.479 43.45C113.779 44.2333 113.92 45.0917 113.904 46.025L113.879 47.1H103.204L102.629 45H111.304L110.904 45.425V44.875C110.854 44.3583 110.687 43.9083 110.404 43.525C110.12 43.125 109.754 42.8167 109.304 42.6C108.87 42.3667 108.387 42.25 107.854 42.25C107.037 42.25 106.345 42.4083 105.779 42.725C105.229 43.0417 104.812 43.5 104.529 44.1C104.245 44.6833 104.104 45.4167 104.104 46.3C104.104 47.15 104.279 47.8917 104.629 48.525C104.995 49.1583 105.504 49.65 106.154 50C106.82 50.3333 107.595 50.5 108.479 50.5C109.095 50.5 109.662 50.4 110.179 50.2C110.695 50 111.254 49.6417 111.854 49.125L113.379 51.25C112.929 51.6667 112.412 52.025 111.829 52.325C111.262 52.6083 110.662 52.8333 110.029 53C109.395 53.1667 108.77 53.25 108.154 53.25Z" fill="white"/>
<circle cx="51" cy="121" r="19" fill="#2E3138"/>
<path d="M48.45 128.05L39.175 122.75V120.575L48.45 115.275L49.8 117.6L41 122.5V120.825L49.8 125.725L48.45 128.05ZM53.8604 128.05L52.5104 125.725L61.3104 120.825V122.5L52.5104 117.6L53.8604 115.275L63.1354 120.575V122.75L53.8604 128.05Z" fill="#90969F"/>
<path d="M80.8862 125.575V124.125C81.0522 124.271 81.25 124.403 81.4795 124.521C81.7139 124.638 81.958 124.738 82.2119 124.821C82.4707 124.899 82.7295 124.96 82.9883 125.004C83.2471 125.048 83.4863 125.07 83.7061 125.07C84.4629 125.07 85.0269 124.931 85.3979 124.652C85.7739 124.369 85.9619 123.964 85.9619 123.437C85.9619 123.153 85.8984 122.907 85.7715 122.697C85.6494 122.487 85.4785 122.296 85.2588 122.125C85.0391 121.95 84.7778 121.784 84.4751 121.627C84.1772 121.466 83.855 121.298 83.5083 121.122C83.1421 120.937 82.8003 120.749 82.4829 120.558C82.1655 120.368 81.8896 120.158 81.6553 119.928C81.4209 119.699 81.2354 119.44 81.0986 119.152C80.9668 118.859 80.9009 118.517 80.9009 118.126C80.9009 117.648 81.0059 117.233 81.2158 116.881C81.4258 116.525 81.7017 116.232 82.0435 116.002C82.3853 115.773 82.7734 115.602 83.208 115.49C83.6475 115.377 84.0942 115.321 84.5483 115.321C85.5835 115.321 86.3379 115.446 86.8115 115.695V117.079C86.1914 116.649 85.3955 116.435 84.4238 116.435C84.1553 116.435 83.8867 116.464 83.6182 116.522C83.3496 116.576 83.1104 116.667 82.9004 116.793C82.6904 116.92 82.5195 117.084 82.3877 117.284C82.2559 117.484 82.1899 117.729 82.1899 118.017C82.1899 118.285 82.2388 118.517 82.3364 118.712C82.439 118.908 82.5879 119.086 82.7832 119.247C82.9785 119.408 83.2153 119.564 83.4937 119.716C83.7769 119.867 84.1016 120.033 84.4678 120.214C84.8438 120.399 85.2002 120.595 85.5371 120.8C85.874 121.005 86.1694 121.232 86.4233 121.481C86.6772 121.73 86.8774 122.006 87.0239 122.309C87.1753 122.611 87.251 122.958 87.251 123.349C87.251 123.866 87.1484 124.306 86.9434 124.667C86.7432 125.023 86.4697 125.314 86.123 125.539C85.7812 125.763 85.3857 125.924 84.9365 126.022C84.4873 126.125 84.0137 126.176 83.5156 126.176C83.3496 126.176 83.1445 126.161 82.9004 126.132C82.6562 126.107 82.4072 126.068 82.1533 126.015C81.8994 125.966 81.6577 125.905 81.4282 125.832C81.2036 125.753 81.0229 125.668 80.8862 125.575ZM92.6636 125.927C92.3804 126.083 92.0068 126.161 91.543 126.161C90.2295 126.161 89.5728 125.429 89.5728 123.964V119.525H88.2837V118.5H89.5728V116.669L90.7739 116.281V118.5H92.6636V119.525H90.7739V123.751C90.7739 124.254 90.8594 124.613 91.0303 124.828C91.2012 125.043 91.4844 125.15 91.8799 125.15C92.1826 125.15 92.4438 125.067 92.6636 124.901V125.927ZM99.6362 126H98.4351V124.828H98.4058C97.8833 125.727 97.1143 126.176 96.0986 126.176C95.3516 126.176 94.7656 125.978 94.3408 125.583C93.9209 125.187 93.7109 124.662 93.7109 124.008C93.7109 122.606 94.5361 121.791 96.1865 121.562L98.4351 121.247C98.4351 119.972 97.9199 119.335 96.8896 119.335C95.9863 119.335 95.1709 119.643 94.4434 120.258V119.027C95.1807 118.559 96.0303 118.324 96.9922 118.324C98.7549 118.324 99.6362 119.257 99.6362 121.122V126ZM98.4351 122.206L96.626 122.455C96.0693 122.533 95.6494 122.672 95.3662 122.873C95.083 123.068 94.9414 123.417 94.9414 123.92C94.9414 124.286 95.0708 124.586 95.3296 124.821C95.5933 125.05 95.9424 125.165 96.377 125.165C96.9727 125.165 97.4634 124.958 97.8491 124.542C98.2397 124.123 98.4351 123.593 98.4351 122.953V122.206ZM105.811 119.716C105.601 119.555 105.298 119.474 104.902 119.474C104.39 119.474 103.96 119.716 103.613 120.199C103.271 120.683 103.101 121.342 103.101 122.177V126H101.899V118.5H103.101V120.045H103.13C103.301 119.518 103.562 119.108 103.914 118.815C104.265 118.517 104.658 118.368 105.093 118.368C105.405 118.368 105.645 118.402 105.811 118.471V119.716ZM110.593 125.927C110.31 126.083 109.937 126.161 109.473 126.161C108.159 126.161 107.502 125.429 107.502 123.964V119.525H106.213V118.5H107.502V116.669L108.704 116.281V118.5H110.593V119.525H108.704V123.751C108.704 124.254 108.789 124.613 108.96 124.828C109.131 125.043 109.414 125.15 109.81 125.15C110.112 125.15 110.374 125.067 110.593 124.901V125.927ZM125.762 118.5L123.513 126H122.268L120.723 120.631C120.664 120.426 120.625 120.194 120.605 119.936H120.576C120.562 120.111 120.51 120.338 120.422 120.617L118.745 126H117.544L115.273 118.5H116.533L118.086 124.14C118.135 124.311 118.169 124.535 118.188 124.813H118.247C118.262 124.599 118.306 124.369 118.379 124.125L120.107 118.5H121.206L122.759 124.154C122.808 124.335 122.844 124.56 122.869 124.828H122.927C122.937 124.638 122.979 124.413 123.052 124.154L124.575 118.5H125.762ZM131.064 119.716C130.854 119.555 130.552 119.474 130.156 119.474C129.644 119.474 129.214 119.716 128.867 120.199C128.525 120.683 128.354 121.342 128.354 122.177V126H127.153V118.5H128.354V120.045H128.384C128.555 119.518 128.816 119.108 129.167 118.815C129.519 118.517 129.912 118.368 130.347 118.368C130.659 118.368 130.898 118.402 131.064 118.471V119.716ZM132.903 116.596C132.688 116.596 132.505 116.522 132.354 116.376C132.202 116.229 132.126 116.044 132.126 115.819C132.126 115.595 132.202 115.409 132.354 115.263C132.505 115.111 132.688 115.036 132.903 115.036C133.123 115.036 133.308 115.111 133.459 115.263C133.616 115.409 133.694 115.595 133.694 115.819C133.694 116.034 133.616 116.217 133.459 116.369C133.308 116.52 133.123 116.596 132.903 116.596ZM133.489 123.905C133.489 124.594 133.755 124.938 134.287 124.938C134.502 124.938 134.695 124.911 134.866 124.857V125.941C134.773 125.966 134.648 125.988 134.492 126.007C134.341 126.032 134.18 126.044 134.009 126.044C133.77 126.044 133.545 126.005 133.335 125.927C133.125 125.849 132.942 125.729 132.786 125.568C132.634 125.407 132.512 125.207 132.419 124.967C132.332 124.723 132.288 124.44 132.288 124.118V118.5H133.489V123.905ZM139.656 125.927C139.373 126.083 138.999 126.161 138.535 126.161C137.222 126.161 136.565 125.429 136.565 123.964V119.525H135.276V118.5H136.565V116.669L137.766 116.281V118.5H139.656V119.525H137.766V123.751C137.766 124.254 137.852 124.613 138.022 124.828C138.193 125.043 138.477 125.15 138.872 125.15C139.175 125.15 139.436 125.067 139.656 124.901V125.927ZM141.794 116.596C141.58 116.596 141.396 116.522 141.245 116.376C141.094 116.229 141.018 116.044 141.018 115.819C141.018 115.595 141.094 115.409 141.245 115.263C141.396 115.111 141.58 115.036 141.794 115.036C142.014 115.036 142.2 115.111 142.351 115.263C142.507 115.409 142.585 115.595 142.585 115.819C142.585 116.034 142.507 116.217 142.351 116.369C142.2 116.52 142.014 116.596 141.794 116.596ZM142.38 123.905C142.38 124.594 142.646 124.938 143.179 124.938C143.394 124.938 143.586 124.911 143.757 124.857V125.941C143.665 125.966 143.54 125.988 143.384 126.007C143.232 126.032 143.071 126.044 142.9 126.044C142.661 126.044 142.437 126.005 142.227 125.927C142.017 125.849 141.833 125.729 141.677 125.568C141.526 125.407 141.404 125.207 141.311 124.967C141.223 124.723 141.179 124.44 141.179 124.118V118.5H142.38V123.905ZM151.294 126H150.093V121.723C150.093 120.131 149.512 119.335 148.35 119.335C147.749 119.335 147.251 119.562 146.855 120.016C146.465 120.465 146.27 121.034 146.27 121.723V126H145.068V118.5H146.27V119.745H146.299C146.865 118.798 147.686 118.324 148.76 118.324C149.58 118.324 150.208 118.59 150.642 119.123C151.077 119.65 151.294 120.414 151.294 121.415V126ZM159.966 125.399C159.966 128.153 158.647 129.53 156.011 129.53C155.083 129.53 154.272 129.354 153.579 129.003V127.802C154.424 128.271 155.229 128.505 155.996 128.505C157.842 128.505 158.765 127.523 158.765 125.561V124.74H158.735C158.164 125.697 157.305 126.176 156.157 126.176C155.225 126.176 154.473 125.844 153.901 125.18C153.335 124.511 153.052 123.615 153.052 122.492C153.052 121.217 153.357 120.204 153.967 119.452C154.583 118.7 155.422 118.324 156.487 118.324C157.498 118.324 158.247 118.729 158.735 119.54H158.765V118.5H159.966V125.399ZM158.765 122.609V121.503C158.765 120.907 158.562 120.397 158.157 119.972C157.756 119.547 157.256 119.335 156.655 119.335C155.913 119.335 155.332 119.606 154.912 120.148C154.492 120.685 154.282 121.439 154.282 122.411C154.282 123.246 154.482 123.915 154.883 124.418C155.288 124.916 155.823 125.165 156.487 125.165C157.161 125.165 157.708 124.926 158.127 124.447C158.552 123.969 158.765 123.356 158.765 122.609ZM171.626 125.656C171.05 126.002 170.366 126.176 169.575 126.176C168.506 126.176 167.642 125.829 166.982 125.136C166.328 124.438 166.001 123.534 166.001 122.426C166.001 121.19 166.355 120.199 167.063 119.452C167.771 118.7 168.716 118.324 169.897 118.324C170.557 118.324 171.138 118.446 171.641 118.69V119.921C171.084 119.53 170.488 119.335 169.854 119.335C169.087 119.335 168.457 119.611 167.964 120.163C167.476 120.709 167.231 121.43 167.231 122.323C167.231 123.202 167.461 123.896 167.92 124.403C168.384 124.911 169.004 125.165 169.78 125.165C170.435 125.165 171.05 124.948 171.626 124.513V125.656ZM176.577 126.176C175.469 126.176 174.583 125.827 173.918 125.128C173.259 124.425 172.93 123.495 172.93 122.338C172.93 121.078 173.274 120.094 173.962 119.386C174.651 118.678 175.581 118.324 176.753 118.324C177.871 118.324 178.743 118.668 179.368 119.357C179.998 120.045 180.312 121 180.312 122.221C180.312 123.417 179.973 124.376 179.294 125.099C178.621 125.817 177.715 126.176 176.577 126.176ZM176.665 119.335C175.894 119.335 175.283 119.599 174.834 120.126C174.385 120.648 174.16 121.371 174.16 122.294C174.16 123.183 174.387 123.883 174.841 124.396C175.295 124.909 175.903 125.165 176.665 125.165C177.441 125.165 178.037 124.914 178.452 124.411C178.872 123.908 179.082 123.192 179.082 122.265C179.082 121.327 178.872 120.604 178.452 120.097C178.037 119.589 177.441 119.335 176.665 119.335ZM188.633 126H187.432V124.726H187.402C186.846 125.692 185.986 126.176 184.824 126.176C183.882 126.176 183.127 125.841 182.561 125.172C182 124.499 181.719 123.583 181.719 122.426C181.719 121.186 182.031 120.192 182.656 119.445C183.281 118.698 184.114 118.324 185.154 118.324C186.184 118.324 186.934 118.729 187.402 119.54H187.432V114.896H188.633V126ZM187.432 122.609V121.503C187.432 120.897 187.231 120.385 186.831 119.965C186.431 119.545 185.923 119.335 185.308 119.335C184.575 119.335 183.999 119.604 183.579 120.141C183.159 120.678 182.949 121.42 182.949 122.367C182.949 123.231 183.149 123.915 183.55 124.418C183.955 124.916 184.497 125.165 185.176 125.165C185.845 125.165 186.387 124.923 186.802 124.44C187.222 123.957 187.432 123.346 187.432 122.609ZM197.092 122.55H191.797C191.816 123.385 192.041 124.03 192.471 124.484C192.9 124.938 193.491 125.165 194.243 125.165C195.088 125.165 195.864 124.887 196.572 124.33V125.458C195.913 125.937 195.042 126.176 193.958 126.176C192.898 126.176 192.065 125.836 191.46 125.158C190.854 124.474 190.552 123.515 190.552 122.279C190.552 121.112 190.881 120.163 191.541 119.43C192.205 118.693 193.027 118.324 194.009 118.324C194.99 118.324 195.75 118.642 196.287 119.276C196.824 119.911 197.092 120.792 197.092 121.92V122.55ZM195.862 121.532C195.857 120.839 195.688 120.299 195.356 119.914C195.029 119.528 194.573 119.335 193.987 119.335C193.42 119.335 192.939 119.538 192.544 119.943C192.148 120.348 191.904 120.878 191.812 121.532H195.862Z" fill="white"/>
<path d="M774.886 54.5752V53.125C775.052 53.2715 775.25 53.4033 775.479 53.5205C775.714 53.6377 775.958 53.7378 776.212 53.8208C776.471 53.8989 776.729 53.96 776.988 54.0039C777.247 54.0479 777.486 54.0698 777.706 54.0698C778.463 54.0698 779.027 53.9307 779.398 53.6523C779.774 53.3691 779.962 52.9639 779.962 52.4365C779.962 52.1533 779.898 51.9067 779.771 51.6968C779.649 51.4868 779.479 51.2964 779.259 51.1255C779.039 50.9497 778.778 50.7837 778.475 50.6274C778.177 50.4663 777.855 50.2979 777.508 50.1221C777.142 49.9365 776.8 49.7485 776.483 49.5581C776.166 49.3677 775.89 49.1577 775.655 48.9282C775.421 48.6987 775.235 48.4399 775.099 48.1519C774.967 47.8589 774.901 47.5171 774.901 47.1265C774.901 46.6479 775.006 46.2329 775.216 45.8813C775.426 45.5249 775.702 45.2319 776.043 45.0024C776.385 44.7729 776.773 44.6021 777.208 44.4897C777.647 44.3774 778.094 44.3213 778.548 44.3213C779.583 44.3213 780.338 44.4458 780.812 44.6948V46.0791C780.191 45.6494 779.396 45.4346 778.424 45.4346C778.155 45.4346 777.887 45.4639 777.618 45.5225C777.35 45.5762 777.11 45.6665 776.9 45.7935C776.69 45.9204 776.52 46.084 776.388 46.2842C776.256 46.4844 776.19 46.7285 776.19 47.0166C776.19 47.2852 776.239 47.5171 776.336 47.7124C776.439 47.9077 776.588 48.0859 776.783 48.2471C776.979 48.4082 777.215 48.5645 777.494 48.7158C777.777 48.8672 778.102 49.0332 778.468 49.2139C778.844 49.3994 779.2 49.5947 779.537 49.7998C779.874 50.0049 780.169 50.2319 780.423 50.481C780.677 50.73 780.877 51.0059 781.024 51.3086C781.175 51.6113 781.251 51.958 781.251 52.3486C781.251 52.8662 781.148 53.3057 780.943 53.667C780.743 54.0234 780.47 54.314 780.123 54.5386C779.781 54.7632 779.386 54.9243 778.937 55.022C778.487 55.1245 778.014 55.1758 777.516 55.1758C777.35 55.1758 777.145 55.1611 776.9 55.1318C776.656 55.1074 776.407 55.0684 776.153 55.0146C775.899 54.9658 775.658 54.9048 775.428 54.8315C775.204 54.7534 775.023 54.668 774.886 54.5752ZM789.212 51.5503H783.917C783.937 52.3853 784.161 53.0298 784.591 53.4839C785.021 53.938 785.611 54.165 786.363 54.165C787.208 54.165 787.984 53.8867 788.692 53.3301V54.458C788.033 54.9365 787.162 55.1758 786.078 55.1758C785.018 55.1758 784.186 54.8364 783.58 54.1577C782.975 53.4741 782.672 52.5146 782.672 51.2793C782.672 50.1123 783.001 49.1626 783.661 48.4302C784.325 47.6929 785.147 47.3242 786.129 47.3242C787.11 47.3242 787.87 47.6416 788.407 48.2764C788.944 48.9111 789.212 49.7925 789.212 50.9204V51.5503ZM787.982 50.5322C787.977 49.8389 787.809 49.2993 787.477 48.9136C787.149 48.5278 786.693 48.335 786.107 48.335C785.541 48.335 785.06 48.5376 784.664 48.9429C784.269 49.3481 784.024 49.8779 783.932 50.5322H787.982ZM797.262 55H796.061V50.7227C796.061 49.1309 795.479 48.335 794.317 48.335C793.717 48.335 793.219 48.562 792.823 49.0161C792.433 49.4653 792.237 50.0342 792.237 50.7227V55H791.036V47.5H792.237V48.7451H792.267C792.833 47.7979 793.653 47.3242 794.728 47.3242C795.548 47.3242 796.175 47.5903 796.61 48.1226C797.044 48.6499 797.262 49.4141 797.262 50.415V55ZM805.934 55H804.732V53.7256H804.703C804.146 54.6924 803.287 55.1758 802.125 55.1758C801.183 55.1758 800.428 54.8413 799.862 54.1724C799.3 53.4985 799.02 52.583 799.02 51.4258C799.02 50.1855 799.332 49.1919 799.957 48.4448C800.582 47.6978 801.415 47.3242 802.455 47.3242C803.485 47.3242 804.234 47.7295 804.703 48.54H804.732V43.8965H805.934V55ZM804.732 51.6089V50.5029C804.732 49.8975 804.532 49.3848 804.132 48.9648C803.731 48.5449 803.224 48.335 802.608 48.335C801.876 48.335 801.3 48.6035 800.88 49.1406C800.46 49.6777 800.25 50.4199 800.25 51.3672C800.25 52.2314 800.45 52.915 800.851 53.418C801.256 53.916 801.798 54.165 802.477 54.165C803.146 54.165 803.688 53.9233 804.103 53.4399C804.522 52.9565 804.732 52.3462 804.732 51.6089ZM816.188 44.9512C815.953 44.8193 815.687 44.7534 815.389 44.7534C814.549 44.7534 814.129 45.2832 814.129 46.3428V47.5H815.887V48.5254H814.129V55H812.936V48.5254H811.654V47.5H812.936V46.2842C812.936 45.498 813.163 44.8779 813.617 44.4238C814.071 43.9648 814.637 43.7354 815.316 43.7354C815.682 43.7354 815.973 43.7793 816.188 43.8672V44.9512ZM823.211 51.5503H817.916C817.936 52.3853 818.16 53.0298 818.59 53.4839C819.02 53.938 819.61 54.165 820.362 54.165C821.207 54.165 821.983 53.8867 822.691 53.3301V54.458C822.032 54.9365 821.161 55.1758 820.077 55.1758C819.017 55.1758 818.185 54.8364 817.579 54.1577C816.974 53.4741 816.671 52.5146 816.671 51.2793C816.671 50.1123 817 49.1626 817.66 48.4302C818.324 47.6929 819.146 47.3242 820.128 47.3242C821.109 47.3242 821.869 47.6416 822.406 48.2764C822.943 48.9111 823.211 49.7925 823.211 50.9204V51.5503ZM821.981 50.5322C821.976 49.8389 821.808 49.2993 821.476 48.9136C821.148 48.5278 820.692 48.335 820.106 48.335C819.54 48.335 819.059 48.5376 818.663 48.9429C818.268 49.3481 818.023 49.8779 817.931 50.5322H821.981ZM831.063 51.5503H825.768C825.787 52.3853 826.012 53.0298 826.441 53.4839C826.871 53.938 827.462 54.165 828.214 54.165C829.059 54.165 829.835 53.8867 830.543 53.3301V54.458C829.884 54.9365 829.012 55.1758 827.928 55.1758C826.869 55.1758 826.036 54.8364 825.431 54.1577C824.825 53.4741 824.522 52.5146 824.522 51.2793C824.522 50.1123 824.852 49.1626 825.511 48.4302C826.175 47.6929 826.998 47.3242 827.979 47.3242C828.961 47.3242 829.72 47.6416 830.257 48.2764C830.794 48.9111 831.063 49.7925 831.063 50.9204V51.5503ZM829.833 50.5322C829.828 49.8389 829.659 49.2993 829.327 48.9136C829 48.5278 828.543 48.335 827.958 48.335C827.391 48.335 826.91 48.5376 826.515 48.9429C826.119 49.3481 825.875 49.8779 825.782 50.5322H829.833ZM839.288 55H838.087V53.7256H838.058C837.501 54.6924 836.642 55.1758 835.479 55.1758C834.537 55.1758 833.783 54.8413 833.216 54.1724C832.655 53.4985 832.374 52.583 832.374 51.4258C832.374 50.1855 832.687 49.1919 833.312 48.4448C833.937 47.6978 834.769 47.3242 835.809 47.3242C836.839 47.3242 837.589 47.7295 838.058 48.54H838.087V43.8965H839.288V55ZM838.087 51.6089V50.5029C838.087 49.8975 837.887 49.3848 837.486 48.9648C837.086 48.5449 836.578 48.335 835.963 48.335C835.23 48.335 834.654 48.6035 834.234 49.1406C833.814 49.6777 833.604 50.4199 833.604 51.3672C833.604 52.2314 833.805 52.915 834.205 53.418C834.61 53.916 835.152 54.165 835.831 54.165C836.5 54.165 837.042 53.9233 837.457 53.4399C837.877 52.9565 838.087 52.3462 838.087 51.6089ZM842.95 53.916H842.921V55H841.72V43.8965H842.921V48.8184H842.95C843.541 47.8223 844.405 47.3242 845.543 47.3242C846.505 47.3242 847.257 47.6611 847.799 48.335C848.346 49.0039 848.619 49.9023 848.619 51.0303C848.619 52.2852 848.314 53.291 847.704 54.0479C847.093 54.7998 846.258 55.1758 845.199 55.1758C844.208 55.1758 843.458 54.7559 842.95 53.916ZM842.921 50.8911V51.9385C842.921 52.5586 843.121 53.0859 843.521 53.5205C843.927 53.9502 844.439 54.165 845.06 54.165C845.787 54.165 846.356 53.8867 846.766 53.3301C847.181 52.7734 847.389 51.9995 847.389 51.0083C847.389 50.1733 847.196 49.519 846.81 49.0454C846.424 48.5718 845.902 48.335 845.243 48.335C844.544 48.335 843.983 48.5791 843.558 49.0674C843.133 49.5508 842.921 50.1587 842.921 50.8911ZM855.907 55H854.706V53.8281H854.676C854.154 54.7266 853.385 55.1758 852.369 55.1758C851.622 55.1758 851.036 54.978 850.611 54.5825C850.191 54.187 849.981 53.6621 849.981 53.0078C849.981 51.6064 850.807 50.791 852.457 50.5615L854.706 50.2466C854.706 48.9722 854.19 48.335 853.16 48.335C852.257 48.335 851.441 48.6426 850.714 49.2578V48.0273C851.451 47.5586 852.301 47.3242 853.263 47.3242C855.025 47.3242 855.907 48.2568 855.907 50.1221V55ZM854.706 51.2061L852.896 51.4551C852.34 51.5332 851.92 51.6724 851.637 51.8726C851.354 52.0679 851.212 52.417 851.212 52.9199C851.212 53.2861 851.341 53.5864 851.6 53.8208C851.864 54.0503 852.213 54.165 852.647 54.165C853.243 54.165 853.734 53.9575 854.12 53.5425C854.51 53.1226 854.706 52.5928 854.706 51.9531V51.2061ZM863.282 54.6558C862.706 55.0024 862.022 55.1758 861.231 55.1758C860.162 55.1758 859.298 54.8291 858.639 54.1357C857.984 53.4375 857.657 52.5342 857.657 51.4258C857.657 50.1904 858.011 49.1992 858.719 48.4521C859.427 47.7002 860.372 47.3242 861.554 47.3242C862.213 47.3242 862.794 47.4463 863.297 47.6904V48.9209C862.74 48.5303 862.145 48.335 861.51 48.335C860.743 48.335 860.113 48.6108 859.62 49.1626C859.132 49.7095 858.888 50.4297 858.888 51.3232C858.888 52.2021 859.117 52.8955 859.576 53.4033C860.04 53.9111 860.66 54.165 861.437 54.165C862.091 54.165 862.706 53.9478 863.282 53.5132V54.6558ZM871.324 55H869.64L866.329 51.3965H866.3V55H865.099V43.8965H866.3V50.9351H866.329L869.479 47.5H871.053L867.574 51.1182L871.324 55Z" fill="#3A86F0"/>
<rect x="918.5" y="32.5" width="79" height="35" rx="4.5" fill="#23262C" stroke="#393939"/>
<path d="M926 46H944" stroke="#CBD1D8" stroke-linecap="round"/>
<path d="M929 51H942" stroke="#CBD1D8" stroke-linecap="round"/>
<path d="M932 56H939" stroke="#CBD1D8" stroke-linecap="round"/>
<path d="M960.709 46.6104H956.607V50.2432H960.401V51.3491H956.607V56H955.377V45.4971H960.709V46.6104ZM963.155 46.5957C962.94 46.5957 962.757 46.5225 962.606 46.376C962.455 46.2295 962.379 46.0439 962.379 45.8193C962.379 45.5947 962.455 45.4092 962.606 45.2627C962.757 45.1113 962.94 45.0356 963.155 45.0356C963.375 45.0356 963.561 45.1113 963.712 45.2627C963.868 45.4092 963.946 45.5947 963.946 45.8193C963.946 46.0342 963.868 46.2173 963.712 46.3687C963.561 46.52 963.375 46.5957 963.155 46.5957ZM963.741 56H962.54V48.5H963.741V56ZM967.374 56H966.173V44.8965H967.374V56ZM973.285 55.9268C973.001 56.083 972.628 56.1611 972.164 56.1611C970.851 56.1611 970.194 55.4287 970.194 53.9639V49.5254H968.905V48.5H970.194V46.6689L971.395 46.2808V48.5H973.285V49.5254H971.395V53.7515C971.395 54.2544 971.48 54.6133 971.651 54.8281C971.822 55.043 972.105 55.1504 972.501 55.1504C972.804 55.1504 973.065 55.0674 973.285 54.9014V55.9268ZM980.917 52.5503H975.621C975.641 53.3853 975.865 54.0298 976.295 54.4839C976.725 54.938 977.315 55.165 978.067 55.165C978.912 55.165 979.688 54.8867 980.396 54.3301V55.458C979.737 55.9365 978.866 56.1758 977.782 56.1758C976.722 56.1758 975.89 55.8364 975.284 55.1577C974.679 54.4741 974.376 53.5146 974.376 52.2793C974.376 51.1123 974.706 50.1626 975.365 49.4302C976.029 48.6929 976.852 48.3242 977.833 48.3242C978.814 48.3242 979.574 48.6416 980.111 49.2764C980.648 49.9111 980.917 50.7925 980.917 51.9204V52.5503ZM979.686 51.5322C979.681 50.8389 979.513 50.2993 979.181 49.9136C978.854 49.5278 978.397 49.335 977.811 49.335C977.245 49.335 976.764 49.5376 976.368 49.9429C975.973 50.3481 975.729 50.8779 975.636 51.5322H979.686ZM986.651 49.7158C986.441 49.5547 986.139 49.4741 985.743 49.4741C985.23 49.4741 984.801 49.7158 984.454 50.1992C984.112 50.6826 983.941 51.3418 983.941 52.1768V56H982.74V48.5H983.941V50.0454H983.971C984.142 49.5181 984.403 49.1079 984.754 48.8149C985.106 48.5171 985.499 48.3682 985.934 48.3682C986.246 48.3682 986.485 48.4023 986.651 48.4707V49.7158Z" fill="#CBD1D8"/>
<circle cx="960.5" cy="123.5" r="2.5" fill="#F3F2F2"/>
<circle cx="969.5" cy="123.5" r="2.5" fill="#F3F2F2"/>
<circle cx="978.5" cy="123.5" r="2.5" fill="#F3F2F2"/>
<g clip-path="url(#clip0_217_36)">
<path fill-rule="evenodd" clip-rule="evenodd" d="M13.0108 31C5.81614 31 0 36.859 0 44.1074C0 49.9015 3.7266 54.806 8.89639 56.5419C9.54275 56.6724 9.77951 56.2598 9.77951 55.9128C9.77951 55.609 9.7582 54.5674 9.7582 53.4821C6.13892 54.2635 5.38524 51.9196 5.38524 51.9196C4.8036 50.4006 3.94179 50.0101 3.94179 50.0101C2.7572 49.2072 4.02808 49.2072 4.02808 49.2072C5.3421 49.294 6.0316 50.5526 6.0316 50.5526C7.19461 52.5489 9.0687 51.9849 9.82265 51.6376C9.93024 50.7912 10.2751 50.2053 10.6413 49.8799C7.75468 49.576 4.71758 48.4476 4.71758 43.4129C4.71758 41.9806 5.23424 40.8088 6.0529 39.8975C5.92374 39.572 5.47126 38.2263 6.18233 36.4252C6.18233 36.4252 7.2809 36.0779 9.75793 37.7706C10.8184 37.4837 11.9121 37.3378 13.0108 37.3365C14.1093 37.3365 15.2292 37.4886 16.2633 37.7706C18.7406 36.0779 19.8392 36.4252 19.8392 36.4252C20.5503 38.2263 20.0975 39.572 19.9683 39.8975C20.8086 40.8088 21.3039 41.9806 21.3039 43.4129C21.3039 48.4476 18.2668 49.5542 15.3586 49.8799C15.8327 50.2922 16.2417 51.0733 16.2417 52.3103C16.2417 54.068 16.2204 55.4787 16.2204 55.9126C16.2204 56.2598 16.4575 56.6724 17.1035 56.5421C22.2733 54.8057 25.9999 49.9015 25.9999 44.1074C26.0212 36.859 20.1838 31 13.0108 31Z" fill="white"/>
</g>
<defs>
<clipPath id="clip0_217_36">
<rect width="26" height="26" fill="white" transform="translate(0 31)"/>
</clipPath>
</defs>
</svg>
