<svg width="362" height="110" viewBox="0 0 362 110" fill="none" xmlns="http://www.w3.org/2000/svg">
<path d="M16.4212 27.3211H22.2725V28.4723H17.5803V32.1244H22.2725V33.2757H17.5803V39H16.4212V27.3211ZM24.5194 26.805C24.7735 26.805 24.9905 26.895 25.1704 27.0749C25.3504 27.2549 25.4404 27.4719 25.4404 27.726C25.4404 27.9747 25.3504 28.1891 25.1704 28.3691C24.9905 28.549 24.7735 28.639 24.5194 28.639C24.2706 28.639 24.0563 28.549 23.8763 28.3691C23.6963 28.1891 23.6064 27.9747 23.6064 27.726C23.6064 27.4719 23.6963 27.2549 23.8763 27.0749C24.0563 26.895 24.2706 26.805 24.5194 26.805ZM23.9636 30.3619H25.0831V39H23.9636V30.3619ZM34.8248 30.3619H35.9443V37.2454C35.9443 38.4575 35.8384 39.344 35.6267 39.9051C35.3356 40.699 34.8301 41.3104 34.1103 41.7391C33.3904 42.1678 32.525 42.3822 31.5141 42.3822C30.773 42.3822 30.1061 42.2763 29.5133 42.0646C28.9258 41.8582 28.4468 41.5777 28.0763 41.223C27.7058 40.8737 27.3644 40.3603 27.0521 39.6828H28.2589C28.5871 40.2544 29.0105 40.6779 29.5292 40.9531C30.0479 41.2283 30.691 41.366 31.4585 41.366C32.2154 41.366 32.8532 41.223 33.3719 40.9372C33.8959 40.6567 34.2691 40.3021 34.4914 39.8733C34.7137 39.4446 34.8248 38.7539 34.8248 37.8011V37.3565C34.4067 37.8858 33.8959 38.2934 33.2925 38.5792C32.6891 38.8597 32.0487 39 31.3712 39C30.5772 39 29.8309 38.8042 29.1322 38.4125C28.4336 38.0155 27.8937 37.4836 27.5126 36.8167C27.1315 36.1497 26.9409 35.4167 26.9409 34.6174C26.9409 33.8182 27.1394 33.0745 27.5364 32.3864C27.9334 31.6931 28.4812 31.1452 29.1799 30.743C29.8838 30.3407 30.6248 30.1396 31.4029 30.1396C32.0487 30.1396 32.6494 30.2745 33.2052 30.5445C33.7662 30.8091 34.3061 31.2484 34.8248 31.8624V30.3619ZM31.5458 31.2114C30.916 31.2114 30.3311 31.3649 29.7912 31.6719C29.2513 31.9736 28.8279 32.3944 28.5209 32.9343C28.2139 33.4688 28.0604 34.0484 28.0604 34.673C28.0604 35.6204 28.378 36.4038 29.0131 37.0231C29.6483 37.6424 30.4713 37.952 31.4823 37.952C32.5038 37.952 33.3243 37.645 33.9435 37.031C34.5681 36.417 34.8804 35.6099 34.8804 34.6095C34.8804 33.9584 34.7375 33.3789 34.4517 32.8707C34.1658 32.3573 33.7609 31.9524 33.2369 31.656C32.7129 31.3596 32.1492 31.2114 31.5458 31.2114ZM38.3182 30.3619H39.4218V31.8545C39.8081 31.304 40.2051 30.9018 40.6127 30.6477C41.1737 30.3089 41.7639 30.1396 42.3832 30.1396C42.8013 30.1396 43.1983 30.2216 43.5741 30.3857C43.9499 30.5498 44.2569 30.7694 44.4951 31.0447C44.7333 31.3146 44.9397 31.7036 45.1143 32.2118C45.4849 31.5343 45.948 31.0208 46.5038 30.6715C47.0595 30.3169 47.6576 30.1396 48.2981 30.1396C48.8962 30.1396 49.4228 30.2904 49.878 30.5921C50.3385 30.8938 50.6799 31.3146 50.9022 31.8545C51.1245 32.3944 51.2357 33.2042 51.2357 34.284V39H50.1003V34.284C50.1003 33.3577 50.0342 32.7225 49.9018 32.3785C49.7695 32.0292 49.5419 31.7486 49.219 31.5369C48.9015 31.3252 48.5204 31.2193 48.0758 31.2193C47.5359 31.2193 47.041 31.3781 46.5911 31.6957C46.1465 32.0133 45.821 32.4367 45.6145 32.966C45.4081 33.4953 45.3049 34.3792 45.3049 35.6178V39H44.2013V34.5777C44.2013 33.535 44.1351 32.8284 44.0028 32.4579C43.8758 32.0821 43.6508 31.783 43.328 31.5607C43.0051 31.3331 42.6214 31.2193 42.1767 31.2193C41.6633 31.2193 41.1817 31.3755 40.7318 31.6878C40.2872 31.9948 39.9563 32.4103 39.7393 32.9343C39.5276 33.4583 39.4218 34.2601 39.4218 35.3399V39H38.3182V30.3619ZM62.1921 30.3619V39H61.0965V37.5153C60.6307 38.0817 60.1067 38.5078 59.5245 38.7936C58.9475 39.0794 58.315 39.2223 57.6269 39.2223C56.4042 39.2223 55.3589 38.7803 54.4908 37.8964C53.6281 37.0072 53.1967 35.9274 53.1967 34.6571C53.1967 33.4133 53.6334 32.3494 54.5067 31.4655C55.3801 30.5815 56.4307 30.1396 57.6587 30.1396C58.3679 30.1396 59.0084 30.2904 59.58 30.5921C60.157 30.8938 60.6624 31.3464 61.0965 31.9498V30.3619H62.1921ZM57.746 31.2114C57.1267 31.2114 56.5551 31.3649 56.0311 31.6719C55.5071 31.9736 55.0889 32.3997 54.7767 32.9501C54.4697 33.5006 54.3162 34.0828 54.3162 34.6968C54.3162 35.3055 54.4723 35.8877 54.7846 36.4435C55.0969 36.9993 55.515 37.4333 56.039 37.7456C56.5683 38.0526 57.1347 38.2061 57.7381 38.2061C58.3468 38.2061 58.9237 38.0526 59.4689 37.7456C60.0141 37.4386 60.4322 37.0231 60.7233 36.4991C61.0197 35.9751 61.1679 35.3849 61.1679 34.7286C61.1679 33.7282 60.8371 32.8919 60.1755 32.2197C59.5192 31.5475 58.7093 31.2114 57.746 31.2114Z" fill="black"/>
<path d="M101.628 26.805C101.882 26.805 102.099 26.895 102.279 27.0749C102.459 27.2549 102.549 27.4719 102.549 27.726C102.549 27.9747 102.459 28.1891 102.279 28.3691C102.099 28.549 101.882 28.639 101.628 28.639C101.379 28.639 101.164 28.549 100.984 28.3691C100.805 28.1891 100.715 27.9747 100.715 27.726C100.715 27.4719 100.805 27.2549 100.984 27.0749C101.164 26.895 101.379 26.805 101.628 26.805ZM101.072 30.3619H102.191V39H101.072V30.3619ZM104.327 27.0273H105.439V39H104.327V27.0273ZM107.582 27.0273H108.694V39H107.582V27.0273ZM110.861 30.3619H111.981V34.3951C111.981 35.3796 112.034 36.0571 112.139 36.4276C112.298 36.9569 112.6 37.3751 113.045 37.6821C113.494 37.989 114.029 38.1425 114.648 38.1425C115.268 38.1425 115.792 37.9943 116.22 37.6979C116.654 37.3962 116.953 37.0019 117.117 36.515C117.229 36.1815 117.284 35.4749 117.284 34.3951V30.3619H118.42V34.6015C118.42 35.7925 118.279 36.6896 117.999 37.293C117.724 37.8964 117.305 38.3701 116.744 38.7142C116.189 39.0529 115.49 39.2223 114.648 39.2223C113.807 39.2223 113.103 39.0529 112.536 38.7142C111.975 38.3701 111.555 37.8938 111.274 37.2851C110.999 36.6711 110.861 35.7501 110.861 34.5221V30.3619ZM125.24 31.3067L124.525 32.045C123.932 31.4681 123.353 31.1796 122.786 31.1796C122.426 31.1796 122.117 31.2987 121.857 31.5369C121.603 31.7751 121.476 32.053 121.476 32.3706C121.476 32.6511 121.582 32.9184 121.794 33.1724C122.006 33.4318 122.45 33.7361 123.128 34.0855C123.953 34.5142 124.514 34.9271 124.811 35.324C125.102 35.7263 125.247 36.1788 125.247 36.6817C125.247 37.3909 124.999 37.9917 124.501 38.4839C124.004 38.9762 123.382 39.2223 122.635 39.2223C122.138 39.2223 121.661 39.1138 121.206 38.8968C120.756 38.6798 120.383 38.3807 120.087 37.9996L120.785 37.2057C121.352 37.8461 121.953 38.1664 122.588 38.1664C123.032 38.1664 123.411 38.0234 123.723 37.7376C124.035 37.4518 124.192 37.1157 124.192 36.7293C124.192 36.4117 124.088 36.1286 123.882 35.8798C123.675 35.6363 123.21 35.3293 122.485 34.9588C121.706 34.5566 121.177 34.1596 120.897 33.7679C120.616 33.3762 120.476 32.929 120.476 32.4261C120.476 31.7698 120.698 31.2246 121.143 30.7906C121.593 30.3566 122.159 30.1396 122.842 30.1396C123.636 30.1396 124.435 30.5286 125.24 31.3067ZM128.185 27.1543H129.305V30.3619H131.067V31.3146H129.305V39H128.185V31.3146H126.669V30.3619H128.185V27.1543ZM132.306 30.3619H133.441V31.6242C133.78 31.1267 134.137 30.7562 134.513 30.5127C134.889 30.264 135.28 30.1396 135.688 30.1396C135.995 30.1396 136.323 30.2375 136.672 30.4333L136.093 31.3702C135.86 31.2696 135.664 31.2193 135.505 31.2193C135.135 31.2193 134.777 31.3728 134.433 31.6798C134.089 31.9815 133.827 32.4526 133.647 33.093C133.51 33.5853 133.441 34.5804 133.441 36.0783V39H132.306V30.3619ZM146.223 30.3619V39H145.128V37.5153C144.662 38.0817 144.138 38.5078 143.556 38.7936C142.979 39.0794 142.346 39.2223 141.658 39.2223C140.436 39.2223 139.39 38.7803 138.522 37.8964C137.659 37.0072 137.228 35.9274 137.228 34.6571C137.228 33.4133 137.665 32.3494 138.538 31.4655C139.411 30.5815 140.462 30.1396 141.69 30.1396C142.399 30.1396 143.04 30.2904 143.611 30.5921C144.188 30.8938 144.694 31.3464 145.128 31.9498V30.3619H146.223ZM141.777 31.2114C141.158 31.2114 140.586 31.3649 140.062 31.6719C139.538 31.9736 139.12 32.3997 138.808 32.9501C138.501 33.5006 138.348 34.0828 138.348 34.6968C138.348 35.3055 138.504 35.8877 138.816 36.4435C139.128 36.9993 139.546 37.4333 140.07 37.7456C140.6 38.0526 141.166 38.2061 141.769 38.2061C142.378 38.2061 142.955 38.0526 143.5 37.7456C144.045 37.4386 144.464 37.0231 144.755 36.4991C145.051 35.9751 145.199 35.3849 145.199 34.7286C145.199 33.7282 144.868 32.8919 144.207 32.2197C143.551 31.5475 142.741 31.2114 141.777 31.2114ZM149.701 27.1543H150.82V30.3619H152.583V31.3146H150.82V39H149.701V31.3146H148.185V30.3619H149.701V27.1543ZM158.331 30.1396C159.66 30.1396 160.761 30.6212 161.634 31.5846C162.428 32.4632 162.825 33.5033 162.825 34.7048C162.825 35.9116 162.404 36.9675 161.563 37.8726C160.726 38.7724 159.649 39.2223 158.331 39.2223C157.008 39.2223 155.926 38.7724 155.084 37.8726C154.248 36.9675 153.829 35.9116 153.829 34.7048C153.829 33.5085 154.226 32.4711 155.02 31.5925C155.894 30.6239 156.997 30.1396 158.331 30.1396ZM158.331 31.2273C157.41 31.2273 156.619 31.5687 155.957 32.2515C155.296 32.9343 154.965 33.76 154.965 34.7286C154.965 35.3531 155.116 35.9354 155.417 36.4753C155.719 37.0151 156.127 37.4333 156.64 37.7297C157.153 38.0208 157.717 38.1664 158.331 38.1664C158.945 38.1664 159.509 38.0208 160.022 37.7297C160.536 37.4333 160.943 37.0151 161.245 36.4753C161.547 35.9354 161.697 35.3531 161.697 34.7286C161.697 33.76 161.364 32.9343 160.697 32.2515C160.036 31.5687 159.247 31.2273 158.331 31.2273ZM164.476 30.3619H165.612V31.6242C165.95 31.1267 166.308 30.7562 166.683 30.5127C167.059 30.264 167.451 30.1396 167.859 30.1396C168.165 30.1396 168.494 30.2375 168.843 30.4333L168.263 31.3702C168.031 31.2696 167.835 31.2193 167.676 31.2193C167.305 31.2193 166.948 31.3728 166.604 31.6798C166.26 31.9815 165.998 32.4526 165.818 33.093C165.68 33.5853 165.612 34.5804 165.612 36.0783V39H164.476V30.3619Z" fill="black"/>
<path d="M167.405 70.3211H168.58V75.2197H174.519V70.3211H175.694V82H174.519V76.363H168.58V82H167.405V70.3211ZM179.322 70.1543H180.442V73.3619H182.204V74.3146H180.442V82H179.322V74.3146H177.806V73.3619H179.322V70.1543ZM183.856 73.3619H184.959V74.8545C185.346 74.304 185.743 73.9018 186.15 73.6477C186.711 73.3089 187.302 73.1396 187.921 73.1396C188.339 73.1396 188.736 73.2216 189.112 73.3857C189.488 73.5498 189.795 73.7694 190.033 74.0447C190.271 74.3146 190.477 74.7036 190.652 75.2118C191.023 74.5343 191.486 74.0208 192.041 73.6715C192.597 73.3169 193.195 73.1396 193.836 73.1396C194.434 73.1396 194.96 73.2904 195.416 73.5921C195.876 73.8938 196.218 74.3146 196.44 74.8545C196.662 75.3944 196.773 76.2042 196.773 77.284V82H195.638V77.284C195.638 76.3577 195.572 75.7225 195.439 75.3785C195.307 75.0292 195.08 74.7486 194.757 74.5369C194.439 74.3252 194.058 74.2193 193.613 74.2193C193.074 74.2193 192.579 74.3781 192.129 74.6957C191.684 75.0133 191.359 75.4367 191.152 75.966C190.946 76.4953 190.843 77.3792 190.843 78.6178V82H189.739V77.5777C189.739 76.535 189.673 75.8284 189.54 75.4579C189.413 75.0821 189.188 74.783 188.866 74.5607C188.543 74.3331 188.159 74.2193 187.714 74.2193C187.201 74.2193 186.719 74.3755 186.269 74.6878C185.825 74.9948 185.494 75.4103 185.277 75.9343C185.065 76.4583 184.959 77.2601 184.959 78.3399V82H183.856V73.3619ZM198.957 70.0273H200.068V82H198.957V70.0273ZM212.287 70.0273L207.436 83.5879H206.221L211.064 70.0273H212.287ZM229.571 72.4885L228.65 73.1951C228.142 72.5335 227.531 72.0333 226.816 71.6946C226.107 71.3505 225.326 71.1785 224.474 71.1785C223.543 71.1785 222.68 71.4035 221.886 71.8534C221.092 72.298 220.475 72.8987 220.036 73.6556C219.602 74.4072 219.385 75.2541 219.385 76.1963C219.385 77.6201 219.872 78.8083 220.846 79.7611C221.825 80.7138 223.058 81.1902 224.546 81.1902C226.181 81.1902 227.549 80.5497 228.65 79.2688L229.571 79.9675C228.989 80.7085 228.261 81.2828 227.388 81.6904C226.52 82.0926 225.549 82.2938 224.474 82.2938C222.431 82.2938 220.819 81.6136 219.639 80.2533C218.649 79.1047 218.154 77.718 218.154 76.093C218.154 74.3834 218.752 72.9464 219.949 71.7819C221.15 70.6122 222.653 70.0273 224.458 70.0273C225.549 70.0273 226.533 70.2443 227.412 70.6783C228.29 71.1071 229.01 71.7105 229.571 72.4885ZM230.714 79.8246L231.707 79.2291C232.406 80.5153 233.213 81.1584 234.128 81.1584C234.52 81.1584 234.888 81.0684 235.232 80.8885C235.576 80.7032 235.838 80.4571 236.018 80.1501C236.198 79.8431 236.288 79.5176 236.288 79.1736C236.288 78.7819 236.156 78.3981 235.891 78.0223C235.526 77.5036 234.859 76.8791 233.89 76.1486C232.916 75.4129 232.31 74.881 232.072 74.5528C231.659 74.0023 231.453 73.4069 231.453 72.7664C231.453 72.2583 231.575 71.7952 231.818 71.377C232.062 70.9589 232.403 70.6307 232.842 70.3925C233.287 70.149 233.769 70.0273 234.287 70.0273C234.838 70.0273 235.351 70.1649 235.827 70.4402C236.309 70.7101 236.817 71.2103 237.352 71.9407L236.399 72.6632C235.96 72.081 235.584 71.6972 235.272 71.512C234.965 71.3267 234.629 71.2341 234.263 71.2341C233.792 71.2341 233.406 71.377 233.104 71.6628C232.808 71.9487 232.66 72.3006 232.66 72.7188C232.66 72.9728 232.713 73.219 232.818 73.4571C232.924 73.6953 233.117 73.9547 233.398 74.2352C233.552 74.3834 234.054 74.7725 234.907 75.4023C235.917 76.1486 236.611 76.8129 236.987 77.3951C237.362 77.9773 237.55 78.5622 237.55 79.1497C237.55 79.9966 237.227 80.7323 236.582 81.3569C235.941 81.9815 235.161 82.2938 234.24 82.2938C233.53 82.2938 232.887 82.1059 232.31 81.7301C231.733 81.349 231.201 80.7138 230.714 79.8246ZM238.813 79.8246L239.805 79.2291C240.504 80.5153 241.311 81.1584 242.227 81.1584C242.618 81.1584 242.986 81.0684 243.33 80.8885C243.674 80.7032 243.936 80.4571 244.116 80.1501C244.296 79.8431 244.386 79.5176 244.386 79.1736C244.386 78.7819 244.254 78.3981 243.989 78.0223C243.624 77.5036 242.957 76.8791 241.989 76.1486C241.015 75.4129 240.409 74.881 240.17 74.5528C239.758 74.0023 239.551 73.4069 239.551 72.7664C239.551 72.2583 239.673 71.7952 239.916 71.377C240.16 70.9589 240.501 70.6307 240.94 70.3925C241.385 70.149 241.867 70.0273 242.385 70.0273C242.936 70.0273 243.449 70.1649 243.926 70.4402C244.407 70.7101 244.916 71.2103 245.45 71.9407L244.497 72.6632C244.058 72.081 243.682 71.6972 243.37 71.512C243.063 71.3267 242.727 71.2341 242.362 71.2341C241.891 71.2341 241.504 71.377 241.202 71.6628C240.906 71.9487 240.758 72.3006 240.758 72.7188C240.758 72.9728 240.811 73.219 240.917 73.4571C241.023 73.6953 241.216 73.9547 241.496 74.2352C241.65 74.3834 242.153 74.7725 243.005 75.4023C244.016 76.1486 244.709 76.8129 245.085 77.3951C245.461 77.9773 245.649 78.5622 245.649 79.1497C245.649 79.9966 245.326 80.7323 244.68 81.3569C244.04 81.9815 243.259 82.2938 242.338 82.2938C241.629 82.2938 240.985 82.1059 240.409 81.7301C239.832 81.349 239.3 80.7138 238.813 79.8246Z" fill="black"/>
<path d="M277.24 70.3211H278.415V78.2049C278.415 79.417 278.32 80.2613 278.129 80.7376C277.944 81.2087 277.632 81.5871 277.192 81.873C276.753 82.1535 276.221 82.2938 275.597 82.2938C275.125 82.2938 274.66 82.2011 274.199 82.0159C273.744 81.8359 273.239 81.5157 272.683 81.0552L273.302 80.1263C273.911 80.555 274.416 80.8567 274.819 81.0314C275.083 81.1478 275.343 81.2061 275.597 81.2061C275.93 81.2061 276.232 81.1055 276.502 80.9044C276.777 80.7032 276.967 80.4359 277.073 80.1025C277.184 79.769 277.24 79.1233 277.24 78.1652V70.3211ZM289.689 73.3619V82H288.593V80.5153C288.128 81.0817 287.604 81.5078 287.021 81.7936C286.445 82.0794 285.812 82.2223 285.124 82.2223C283.901 82.2223 282.856 81.7803 281.988 80.8964C281.125 80.0072 280.694 78.9274 280.694 77.6571C280.694 76.4133 281.13 75.3494 282.004 74.4655C282.877 73.5815 283.928 73.1396 285.156 73.1396C285.865 73.1396 286.505 73.2904 287.077 73.5921C287.654 73.8938 288.159 74.3464 288.593 74.9498V73.3619H289.689ZM285.243 74.2114C284.624 74.2114 284.052 74.3649 283.528 74.6719C283.004 74.9736 282.586 75.3997 282.274 75.9501C281.967 76.5006 281.813 77.0828 281.813 77.6968C281.813 78.3055 281.969 78.8877 282.282 79.4435C282.594 79.9993 283.012 80.4333 283.536 80.7456C284.065 81.0526 284.632 81.2061 285.235 81.2061C285.844 81.2061 286.421 81.0526 286.966 80.7456C287.511 80.4386 287.929 80.0231 288.22 79.4991C288.517 78.9751 288.665 78.3849 288.665 77.7286C288.665 76.7282 288.334 75.8919 287.672 75.2197C287.016 74.5475 286.206 74.2114 285.243 74.2114ZM291.38 73.3619H292.563L295.453 79.6499L298.319 73.3619H299.51L295.556 82H295.358L291.38 73.3619ZM309.824 73.3619V82H308.728V80.5153C308.262 81.0817 307.738 81.5078 307.156 81.7936C306.579 82.0794 305.946 82.2223 305.258 82.2223C304.036 82.2223 302.99 81.7803 302.122 80.8964C301.26 80.0072 300.828 78.9274 300.828 77.6571C300.828 76.4133 301.265 75.3494 302.138 74.4655C303.012 73.5815 304.062 73.1396 305.29 73.1396C305.999 73.1396 306.64 73.2904 307.211 73.5921C307.788 73.8938 308.294 74.3464 308.728 74.9498V73.3619H309.824ZM305.377 74.2114C304.758 74.2114 304.187 74.3649 303.663 74.6719C303.139 74.9736 302.72 75.3997 302.408 75.9501C302.101 76.5006 301.948 77.0828 301.948 77.6968C301.948 78.3055 302.104 78.8877 302.416 79.4435C302.728 79.9993 303.146 80.4333 303.67 80.7456C304.2 81.0526 304.766 81.2061 305.37 81.2061C305.978 81.2061 306.555 81.0526 307.1 80.7456C307.645 80.4386 308.064 80.0231 308.355 79.4991C308.651 78.9751 308.799 78.3849 308.799 77.7286C308.799 76.7282 308.469 75.8919 307.807 75.2197C307.151 74.5475 306.341 74.2114 305.377 74.2114ZM311.308 79.8246L312.301 79.2291C312.999 80.5153 313.807 81.1584 314.722 81.1584C315.114 81.1584 315.482 81.0684 315.826 80.8885C316.17 80.7032 316.432 80.4571 316.612 80.1501C316.792 79.8431 316.882 79.5176 316.882 79.1736C316.882 78.7819 316.749 78.3981 316.485 78.0223C316.12 77.5036 315.453 76.8791 314.484 76.1486C313.51 75.4129 312.904 74.881 312.666 74.5528C312.253 74.0023 312.047 73.4069 312.047 72.7664C312.047 72.2583 312.168 71.7952 312.412 71.377C312.655 70.9589 312.997 70.6307 313.436 70.3925C313.881 70.149 314.362 70.0273 314.881 70.0273C315.431 70.0273 315.945 70.1649 316.421 70.4402C316.903 70.7101 317.411 71.2103 317.946 71.9407L316.993 72.6632C316.554 72.081 316.178 71.6972 315.865 71.512C315.558 71.3267 315.222 71.2341 314.857 71.2341C314.386 71.2341 314 71.377 313.698 71.6628C313.402 71.9487 313.253 72.3006 313.253 72.7188C313.253 72.9728 313.306 73.219 313.412 73.4571C313.518 73.6953 313.711 73.9547 313.992 74.2352C314.145 74.3834 314.648 74.7725 315.5 75.4023C316.511 76.1486 317.205 76.8129 317.58 77.3951C317.956 77.9773 318.144 78.5622 318.144 79.1497C318.144 79.9966 317.821 80.7323 317.175 81.3569C316.535 81.9815 315.754 82.2938 314.833 82.2938C314.124 82.2938 313.481 82.1059 312.904 81.7301C312.327 81.349 311.795 80.7138 311.308 79.8246ZM328.815 75.1562L327.933 75.704C327.171 74.6931 326.131 74.1876 324.813 74.1876C323.76 74.1876 322.884 74.5263 322.185 75.2038C321.492 75.8813 321.145 76.7044 321.145 77.673C321.145 78.3029 321.304 78.8957 321.622 79.4514C321.944 80.0072 322.384 80.4386 322.94 80.7456C323.501 81.0526 324.128 81.2061 324.821 81.2061C326.091 81.2061 327.129 80.7006 327.933 79.6896L328.815 80.2692C328.402 80.8885 327.846 81.3701 327.147 81.7142C326.454 82.0529 325.663 82.2223 324.774 82.2223C323.408 82.2223 322.275 81.7883 321.375 80.9202C320.476 80.0522 320.026 78.9962 320.026 77.7524C320.026 76.9161 320.235 76.1407 320.653 75.4261C321.076 74.7063 321.656 74.1452 322.392 73.743C323.127 73.3407 323.95 73.1396 324.861 73.1396C325.433 73.1396 325.983 73.2269 326.512 73.4016C327.047 73.5762 327.499 73.8038 327.87 74.0844C328.24 74.3649 328.555 74.7222 328.815 75.1562ZM330.538 73.3619H331.673V74.6242C332.012 74.1267 332.369 73.7562 332.745 73.5127C333.121 73.264 333.512 73.1396 333.92 73.1396C334.227 73.1396 334.555 73.2375 334.904 73.4333L334.325 74.3702C334.092 74.2696 333.896 74.2193 333.737 74.2193C333.367 74.2193 333.009 74.3728 332.665 74.6798C332.321 74.9815 332.059 75.4526 331.879 76.093C331.742 76.5853 331.673 77.5804 331.673 79.0783V82H330.538V73.3619ZM336.238 69.805C336.492 69.805 336.709 69.895 336.889 70.0749C337.069 70.2549 337.159 70.4719 337.159 70.726C337.159 70.9747 337.069 71.1891 336.889 71.3691C336.709 71.549 336.492 71.639 336.238 71.639C335.989 71.639 335.775 71.549 335.595 71.3691C335.415 71.1891 335.325 70.9747 335.325 70.726C335.325 70.4719 335.415 70.2549 335.595 70.0749C335.775 69.895 335.989 69.805 336.238 69.805ZM335.682 73.3619H336.802V82H335.682V73.3619ZM339.12 73.3619H340.224V74.9498C340.663 74.3464 341.169 73.8938 341.74 73.5921C342.312 73.2904 342.95 73.1396 343.654 73.1396C344.882 73.1396 345.932 73.5815 346.806 74.4655C347.679 75.3494 348.116 76.4133 348.116 77.6571C348.116 78.9274 347.682 80.0072 346.813 80.8964C345.951 81.7803 344.908 82.2223 343.685 82.2223C342.997 82.2223 342.365 82.0794 341.788 81.7936C341.211 81.5078 340.689 81.0817 340.224 80.5153V85.1599H339.12V73.3619ZM343.566 74.2114C342.603 74.2114 341.79 74.5475 341.129 75.2197C340.472 75.8919 340.144 76.7282 340.144 77.7286C340.144 78.3849 340.29 78.9751 340.581 79.4991C340.877 80.0231 341.298 80.4386 341.843 80.7456C342.394 81.0526 342.973 81.2061 343.582 81.2061C344.18 81.2061 344.741 81.0526 345.265 80.7456C345.795 80.4333 346.215 79.9993 346.528 79.4435C346.84 78.8877 346.996 78.3055 346.996 77.6968C346.996 77.0828 346.84 76.5006 346.528 75.9501C346.221 75.3997 345.805 74.9736 345.281 74.6719C344.757 74.3649 344.186 74.2114 343.566 74.2114ZM351.172 70.1543H352.292V73.3619H354.054V74.3146H352.292V82H351.172V74.3146H349.656V73.3619H351.172V70.1543Z" fill="black"/>
<path d="M304.485 27.3211H306.811C308.108 27.3211 308.986 27.374 309.447 27.4799C310.14 27.6386 310.704 27.98 311.138 28.504C311.572 29.0228 311.789 29.6632 311.789 30.4254C311.789 31.0605 311.638 31.619 311.336 32.1006C311.04 32.5823 310.614 32.9475 310.058 33.1963C309.502 33.4397 308.735 33.5641 307.756 33.5694L311.956 39H310.511L306.319 33.5694H305.652V39H304.485V27.3211ZM305.652 28.4643V32.4341L307.66 32.45C308.439 32.45 309.013 32.3758 309.383 32.2276C309.759 32.0794 310.05 31.8439 310.257 31.521C310.468 31.1929 310.574 30.8277 310.574 30.4254C310.574 30.0337 310.468 29.6791 310.257 29.3615C310.045 29.0386 309.767 28.8084 309.423 28.6708C309.079 28.5332 308.507 28.4643 307.708 28.4643H305.652ZM321.388 36.1339L322.325 36.6261C322.018 37.2295 321.663 37.7165 321.261 38.087C320.858 38.4575 320.406 38.7406 319.903 38.9365C319.4 39.127 318.831 39.2223 318.196 39.2223C316.788 39.2223 315.687 38.7618 314.893 37.8408C314.099 36.9146 313.702 35.8692 313.702 34.7048C313.702 33.6091 314.038 32.6326 314.711 31.7751C315.563 30.6847 316.703 30.1396 318.133 30.1396C319.604 30.1396 320.779 30.698 321.658 31.8148C322.282 32.6034 322.6 33.5879 322.61 34.7683H314.846C314.867 35.7739 315.187 36.5996 315.806 37.2454C316.426 37.8858 317.19 38.2061 318.101 38.2061C318.54 38.2061 318.966 38.1293 319.379 37.9758C319.797 37.8223 320.152 37.6185 320.443 37.3645C320.734 37.1104 321.049 36.7002 321.388 36.1339ZM321.388 33.8076C321.24 33.2148 321.023 32.7411 320.737 32.3864C320.456 32.0318 320.083 31.746 319.617 31.529C319.151 31.312 318.662 31.2035 318.148 31.2035C317.302 31.2035 316.574 31.476 315.965 32.0212C315.521 32.4182 315.184 33.0137 314.957 33.8076H321.388ZM333.297 30.3619V39H332.201V37.5153C331.736 38.0817 331.212 38.5078 330.629 38.7936C330.052 39.0794 329.42 39.2223 328.732 39.2223C327.509 39.2223 326.464 38.7803 325.596 37.8964C324.733 37.0072 324.302 35.9274 324.302 34.6571C324.302 33.4133 324.738 32.3494 325.612 31.4655C326.485 30.5815 327.536 30.1396 328.764 30.1396C329.473 30.1396 330.113 30.2904 330.685 30.5921C331.262 30.8938 331.767 31.3464 332.201 31.9498V30.3619H333.297ZM328.851 31.2114C328.232 31.2114 327.66 31.3649 327.136 31.6719C326.612 31.9736 326.194 32.3997 325.882 32.9501C325.575 33.5006 325.421 34.0828 325.421 34.6968C325.421 35.3055 325.577 35.8877 325.889 36.4435C326.202 36.9993 326.62 37.4333 327.144 37.7456C327.673 38.0526 328.24 38.2061 328.843 38.2061C329.452 38.2061 330.029 38.0526 330.574 37.7456C331.119 37.4386 331.537 37.0231 331.828 36.4991C332.125 35.9751 332.273 35.3849 332.273 34.7286C332.273 33.7282 331.942 32.8919 331.28 32.2197C330.624 31.5475 329.814 31.2114 328.851 31.2114ZM344.19 32.1562L343.309 32.704C342.546 31.6931 341.506 31.1876 340.188 31.1876C339.135 31.1876 338.259 31.5263 337.56 32.2038C336.867 32.8813 336.52 33.7044 336.52 34.673C336.52 35.3029 336.679 35.8957 336.997 36.4514C337.32 37.0072 337.759 37.4386 338.315 37.7456C338.876 38.0526 339.503 38.2061 340.196 38.2061C341.467 38.2061 342.504 37.7006 343.309 36.6896L344.19 37.2692C343.777 37.8885 343.221 38.3701 342.523 38.7142C341.829 39.0529 341.038 39.2223 340.149 39.2223C338.783 39.2223 337.65 38.7883 336.751 37.9202C335.851 37.0522 335.401 35.9962 335.401 34.7524C335.401 33.9161 335.61 33.1407 336.028 32.4261C336.452 31.7063 337.031 31.1452 337.767 30.743C338.503 30.3407 339.326 30.1396 340.236 30.1396C340.808 30.1396 341.358 30.2269 341.887 30.4016C342.422 30.5762 342.875 30.8038 343.245 31.0844C343.616 31.3649 343.931 31.7222 344.19 32.1562ZM347.302 27.1543H348.422V30.3619H350.184V31.3146H348.422V39H347.302V31.3146H345.786V30.3619H347.302V27.1543Z" fill="black"/>
<path d="M89.6872 72.2821L88.7821 73.1396C88.1311 72.4991 87.4166 72.0148 86.6385 71.6867C85.8657 71.3532 85.1115 71.1865 84.3758 71.1865C83.4601 71.1865 82.5867 71.4114 81.7557 71.8613C80.93 72.3112 80.2896 72.9226 79.8344 73.6953C79.3792 74.4628 79.1516 75.2753 79.1516 76.1327C79.1516 77.0114 79.3871 77.8477 79.8582 78.6416C80.3293 79.4303 80.9803 80.0522 81.8113 80.5074C82.6423 80.9573 83.5527 81.1822 84.5425 81.1822C85.744 81.1822 86.7602 80.8435 87.5912 80.166C88.4222 79.4885 88.9145 78.6099 89.068 77.5301H85.3444V76.4027H90.378C90.3674 78.2076 89.8302 79.642 88.7663 80.7059C87.7077 81.7645 86.2892 82.2938 84.5107 82.2938C82.3512 82.2938 80.6416 81.558 79.3818 80.0866C78.4132 78.9539 77.9289 77.6439 77.9289 76.1566C77.9289 75.0503 78.2068 74.0208 78.7626 73.0681C79.3183 72.1154 80.0805 71.3717 81.0491 70.8371C82.0177 70.2972 83.1134 70.0273 84.3361 70.0273C85.3258 70.0273 86.2574 70.2073 87.1307 70.5672C88.0041 70.9218 88.8563 71.4935 89.6872 72.2821ZM92.8075 69.805C93.0615 69.805 93.2785 69.895 93.4585 70.0749C93.6384 70.2549 93.7284 70.4719 93.7284 70.726C93.7284 70.9747 93.6384 71.1891 93.4585 71.3691C93.2785 71.549 93.0615 71.639 92.8075 71.639C92.5587 71.639 92.3443 71.549 92.1644 71.3691C91.9844 71.1891 91.8944 70.9747 91.8944 70.726C91.8944 70.4719 91.9844 70.2549 92.1644 70.0749C92.3443 69.895 92.5587 69.805 92.8075 69.805ZM92.2517 73.3619H93.3712V82H92.2517V73.3619ZM96.6422 70.1543H97.7617V73.3619H99.5242V74.3146H97.7617V82H96.6422V74.3146H95.1258V73.3619H96.6422V70.1543ZM101.184 70.0273H102.295V74.9101C102.745 74.3173 103.24 73.8753 103.78 73.5842C104.32 73.2878 104.905 73.1396 105.534 73.1396C106.18 73.1396 106.752 73.3037 107.249 73.6318C107.752 73.96 108.123 74.4019 108.361 74.9577C108.599 75.5082 108.718 76.3736 108.718 77.5539V82H107.607V77.8794C107.607 76.8843 107.567 76.2201 107.488 75.8866C107.35 75.315 107.098 74.8862 106.733 74.6004C106.373 74.3093 105.9 74.1638 105.312 74.1638C104.64 74.1638 104.036 74.3861 103.502 74.8307C102.973 75.2753 102.623 75.8258 102.454 76.4821C102.348 76.9055 102.295 77.6889 102.295 78.8322V82H101.184V70.0273ZM110.965 73.3619H112.084V77.3951C112.084 78.3796 112.137 79.0571 112.243 79.4276C112.402 79.9569 112.704 80.3751 113.148 80.6821C113.598 80.989 114.133 81.1425 114.752 81.1425C115.371 81.1425 115.895 80.9943 116.324 80.6979C116.758 80.3962 117.057 80.0019 117.221 79.515C117.332 79.1815 117.388 78.4749 117.388 77.3951V73.3619H118.523V77.6015C118.523 78.7925 118.383 79.6896 118.103 80.293C117.827 80.8964 117.409 81.3701 116.848 81.7142C116.292 82.0529 115.594 82.2223 114.752 82.2223C113.911 82.2223 113.207 82.0529 112.64 81.7142C112.079 81.3701 111.658 80.8938 111.378 80.2851C111.103 79.6711 110.965 78.7501 110.965 77.5221V73.3619ZM121.072 82V70.0273H122.175V74.8466C122.641 74.2749 123.163 73.8488 123.74 73.5683C124.316 73.2825 124.949 73.1396 125.637 73.1396C126.86 73.1396 127.902 73.5842 128.765 74.4734C129.633 75.3573 130.067 76.4318 130.067 77.6968C130.067 78.946 129.631 80.0125 128.757 80.8964C127.884 81.7803 126.833 82.2223 125.605 82.2223C124.901 82.2223 124.264 82.0715 123.692 81.7698C123.12 81.4681 122.615 81.0155 122.175 80.4121V82H121.072ZM125.518 81.1505C126.137 81.1505 126.709 80.9996 127.233 80.6979C127.757 80.3909 128.172 79.9622 128.479 79.4117C128.792 78.8613 128.948 78.279 128.948 77.6651C128.948 77.0511 128.792 76.4662 128.479 75.9104C128.167 75.3547 127.746 74.9233 127.217 74.6163C126.693 74.304 126.132 74.1479 125.534 74.1479C124.925 74.1479 124.346 74.304 123.795 74.6163C123.25 74.9233 122.829 75.3388 122.533 75.8628C122.242 76.3868 122.096 76.977 122.096 77.6333C122.096 78.6337 122.424 79.47 123.081 80.1422C123.742 80.8144 124.555 81.1505 125.518 81.1505Z" fill="black"/>
<path d="M11.8892 82L13.5486 70.3211H13.7391L18.4869 79.904L23.1871 70.3211H23.3776L25.0528 82H23.9016L22.7583 73.6477L18.6298 82H18.3361L14.152 73.5842L13.0166 82H11.8892ZM27.5696 69.805C27.8237 69.805 28.0407 69.895 28.2207 70.0749C28.4006 70.2549 28.4906 70.4719 28.4906 70.726C28.4906 70.9747 28.4006 71.1891 28.2207 71.3691C28.0407 71.549 27.8237 71.639 27.5696 71.639C27.3209 71.639 27.1065 71.549 26.9265 71.3691C26.7466 71.1891 26.6566 70.9747 26.6566 70.726C26.6566 70.4719 26.7466 70.2549 26.9265 70.0749C27.1065 69.895 27.3209 69.805 27.5696 69.805ZM27.0139 73.3619H28.1333V82H27.0139V73.3619ZM30.015 73.3619H31.1503V74.6242C31.4891 74.1267 31.8464 73.7562 32.2222 73.5127C32.598 73.264 32.9896 73.1396 33.3972 73.1396C33.7042 73.1396 34.0324 73.2375 34.3817 73.4333L33.8021 74.3702C33.5692 74.2696 33.3734 74.2193 33.2146 74.2193C32.8441 74.2193 32.4868 74.3728 32.1428 74.6798C31.7987 74.9815 31.5367 75.4526 31.3568 76.093C31.2191 76.5853 31.1503 77.5804 31.1503 79.0783V82H30.015V73.3619ZM39.4153 73.1396C40.7438 73.1396 41.8448 73.6212 42.7181 74.5846C43.5121 75.4632 43.909 76.5033 43.909 77.7048C43.909 78.9116 43.4882 79.9675 42.6467 80.8726C41.8104 81.7724 40.7333 82.2223 39.4153 82.2223C38.0921 82.2223 37.0096 81.7724 36.1681 80.8726C35.3318 79.9675 34.9136 78.9116 34.9136 77.7048C34.9136 76.5085 35.3106 75.4711 36.1046 74.5925C36.9779 73.6239 38.0815 73.1396 39.4153 73.1396ZM39.4153 74.2273C38.4943 74.2273 37.703 74.5687 37.0414 75.2515C36.3798 75.9343 36.049 76.76 36.049 77.7286C36.049 78.3531 36.1998 78.9354 36.5015 79.4753C36.8032 80.0151 37.2108 80.4333 37.7242 80.7297C38.2376 81.0208 38.8013 81.1664 39.4153 81.1664C40.0293 81.1664 40.593 81.0208 41.1064 80.7297C41.6198 80.4333 42.0274 80.0151 42.3291 79.4753C42.6308 78.9354 42.7816 78.3531 42.7816 77.7286C42.7816 76.76 42.4482 75.9343 41.7813 75.2515C41.1196 74.5687 40.331 74.2273 39.4153 74.2273Z" fill="black"/>
<path d="M209.298 29.4885L208.377 30.1951C207.869 29.5335 207.258 29.0333 206.543 28.6946C205.834 28.3505 205.053 28.1785 204.201 28.1785C203.27 28.1785 202.407 28.4035 201.613 28.8534C200.819 29.298 200.202 29.8987 199.763 30.6556C199.329 31.4072 199.112 32.2541 199.112 33.1963C199.112 34.6201 199.599 35.8083 200.573 36.7611C201.552 37.7138 202.785 38.1902 204.273 38.1902C205.908 38.1902 207.276 37.5497 208.377 36.2688L209.298 36.9675C208.716 37.7085 207.988 38.2828 207.115 38.6904C206.247 39.0926 205.276 39.2938 204.201 39.2938C202.158 39.2938 200.546 38.6136 199.366 37.2533C198.376 36.1047 197.881 34.718 197.881 33.093C197.881 31.3834 198.479 29.9464 199.676 28.7819C200.877 27.6122 202.38 27.0273 204.185 27.0273C205.276 27.0273 206.26 27.2443 207.139 27.6783C208.017 28.1071 208.737 28.7105 209.298 29.4885ZM211.466 27.0273H212.577V31.9101C213.027 31.3173 213.522 30.8753 214.062 30.5842C214.602 30.2878 215.187 30.1396 215.817 30.1396C216.462 30.1396 217.034 30.3037 217.531 30.6318C218.034 30.96 218.405 31.4019 218.643 31.9577C218.881 32.5082 219 33.3736 219 34.5539V39H217.889V34.8794C217.889 33.8843 217.849 33.2201 217.77 32.8866C217.632 32.315 217.381 31.8862 217.015 31.6004C216.655 31.3093 216.182 31.1638 215.594 31.1638C214.922 31.1638 214.319 31.3861 213.784 31.8307C213.255 32.2753 212.905 32.8258 212.736 33.4821C212.63 33.9055 212.577 34.6889 212.577 35.8322V39H211.466V27.0273ZM229.996 30.3619V39H228.901V37.5153C228.435 38.0817 227.911 38.5078 227.329 38.7936C226.752 39.0794 226.119 39.2223 225.431 39.2223C224.209 39.2223 223.163 38.7803 222.295 37.8964C221.432 37.0072 221.001 35.9274 221.001 34.6571C221.001 33.4133 221.438 32.3494 222.311 31.4655C223.184 30.5815 224.235 30.1396 225.463 30.1396C226.172 30.1396 226.813 30.2904 227.384 30.5921C227.961 30.8938 228.467 31.3464 228.901 31.9498V30.3619H229.996ZM225.55 31.2114C224.931 31.2114 224.359 31.3649 223.835 31.6719C223.311 31.9736 222.893 32.3997 222.581 32.9501C222.274 33.5006 222.12 34.0828 222.12 34.6968C222.12 35.3055 222.277 35.8877 222.589 36.4435C222.901 36.9993 223.319 37.4333 223.843 37.7456C224.373 38.0526 224.939 38.2061 225.542 38.2061C226.151 38.2061 226.728 38.0526 227.273 37.7456C227.818 37.4386 228.236 37.0231 228.528 36.4991C228.824 35.9751 228.972 35.3849 228.972 34.7286C228.972 33.7282 228.641 32.8919 227.98 32.2197C227.323 31.5475 226.514 31.2114 225.55 31.2114ZM233.474 27.1543H234.593V30.3619H236.356V31.3146H234.593V39H233.474V31.3146H231.957V30.3619H233.474V27.1543ZM249.464 29.2821L248.559 30.1396C247.908 29.4991 247.193 29.0148 246.415 28.6867C245.642 28.3532 244.888 28.1865 244.152 28.1865C243.237 28.1865 242.363 28.4114 241.532 28.8613C240.707 29.3112 240.066 29.9226 239.611 30.6953C239.156 31.4628 238.928 32.2753 238.928 33.1327C238.928 34.0114 239.164 34.8477 239.635 35.6416C240.106 36.4303 240.757 37.0522 241.588 37.5074C242.419 37.9573 243.329 38.1822 244.319 38.1822C245.521 38.1822 246.537 37.8435 247.368 37.166C248.199 36.4885 248.691 35.6099 248.845 34.5301H245.121V33.4027H250.155C250.144 35.2076 249.607 36.642 248.543 37.7059C247.484 38.7645 246.066 39.2938 244.287 39.2938C242.128 39.2938 240.418 38.558 239.158 37.0866C238.19 35.9539 237.706 34.6439 237.706 33.1566C237.706 32.0503 237.983 31.0208 238.539 30.0681C239.095 29.1154 239.857 28.3717 240.826 27.8371C241.794 27.2972 242.89 27.0273 244.113 27.0273C245.103 27.0273 246.034 27.2073 246.907 27.5672C247.781 27.9218 248.633 28.4935 249.464 29.2821ZM252.37 27.3211H254.696C256.03 27.3211 256.93 27.3793 257.395 27.4957C258.062 27.6598 258.608 27.9986 259.031 28.512C259.454 29.0201 259.666 29.6606 259.666 30.4333C259.666 31.2114 259.46 31.8545 259.047 32.3626C258.634 32.8654 258.065 33.2042 257.34 33.3789C256.811 33.5059 255.821 33.5694 254.37 33.5694H253.537V39H252.37V27.3211ZM253.537 28.4564V32.4261L255.514 32.45C256.313 32.45 256.898 32.3785 257.268 32.2356C257.639 32.0874 257.93 31.8518 258.142 31.529C258.353 31.2008 258.459 30.8356 258.459 30.4333C258.459 30.0417 258.353 29.6844 258.142 29.3615C257.93 29.0333 257.649 28.8004 257.3 28.6628C256.956 28.5252 256.39 28.4564 255.601 28.4564H253.537ZM260.841 28.4564V27.3211H267.248V28.4564H264.644V39H263.453V28.4564H260.841Z" fill="black"/>
<rect x="0.5" y="16.5" width="78" height="33" rx="16.5" stroke="black"/>
<rect x="65.5" y="59.5" width="78" height="33" rx="16.5" stroke="black"/>
<rect x="187.5" y="15.5" width="91" height="33" rx="16.5" stroke="black"/>
<rect x="290.5" y="15.5" width="71" height="33" rx="16.5" stroke="black"/>
<rect x="155.5" y="59.5" width="97" height="33" rx="16.5" stroke="black"/>
<rect x="264.5" y="59.5" width="97" height="33" rx="16.5" stroke="black"/>
<rect x="0.5" y="59.5" width="54" height="33" rx="16.5" stroke="black"/>
<rect x="90.5" y="16.5" width="86" height="33" rx="16.5" stroke="black"/>
</svg>
