<svg width="59" height="57" viewBox="0 0 59 57" fill="none" xmlns="http://www.w3.org/2000/svg">
<g clip-path="url(#clip0_384_196)">
<path d="M43.8784 10.4647L42.9817 9.92098L43.8748 10.4726L43.8784 10.4647Z" fill="#3B3A3A"/>
<path d="M44.5292 20.156C43.8911 18.5145 43.0517 16.9764 42.0343 15.5842L43.929 10.5044L43.8748 10.4726L42.9889 9.92098L42.0958 9.38125L41.7342 9.92098L39.6406 13.0244C39.2248 12.6673 38.7981 12.3339 38.3534 12.0204C36.0392 10.3694 32.2969 9.80192 29.4982 11.7426C26.7176 9.80192 22.9571 10.3655 20.643 12.0204C20.2091 12.3498 19.7716 12.6673 19.3594 13.0244L17.2694 9.92098L16.9078 9.37331L16.0147 9.92098L15.1216 10.4647L15.0674 10.4964L16.9548 15.5842C15.9387 16.9766 15.1005 18.5147 14.4635 20.156C13.0461 23.692 12.7026 28.252 13.5487 32.7524C14.742 39.1021 14.9698 42.1222 14.1164 47.6227C17.0416 44.4478 18.5205 40.7015 18.1155 36.3757C17.7106 32.0499 17.8841 29.3433 19.0448 26.2399C19.2798 25.6089 19.5257 25.0255 19.768 24.4778C19.7427 24.5651 19.7137 24.6485 19.692 24.7397C19.276 26.4095 19.4801 28.1922 20.2595 29.6971C21.0389 31.2021 22.3302 32.3064 23.8503 32.7682L23.9551 32.796C23.6237 33.0641 23.3568 33.417 23.1777 33.8239C23.0133 34.2292 22.9262 34.6672 22.9219 35.1108C22.9175 35.5544 22.996 35.9944 23.1524 36.4035C23.2961 36.7982 23.4963 37.1653 23.7454 37.4909C22.3091 37.0017 20.961 36.243 19.7607 35.2486L22.3352 45.3725C22.3352 45.3725 24.9784 43.7017 29.4946 43.7017C34.0108 43.7017 36.6756 45.3884 36.6756 45.3884L39.2356 35.2486C38.0373 36.2408 36.6917 36.9981 35.2582 37.4869C35.5049 37.1616 35.7037 36.7961 35.8476 36.4035C36.0043 35.9943 36.0826 35.5542 36.0776 35.1104C36.0726 34.6666 35.9845 34.2287 35.8187 33.8239C35.6394 33.4147 35.3697 33.0613 35.034 32.796L35.1425 32.7682C36.6626 32.3064 37.9538 31.2021 38.7333 29.6971C39.5127 28.1922 39.7168 26.4095 39.3007 24.7397C39.279 24.6524 39.2501 24.5691 39.2248 24.4818C39.4815 25.0295 39.7274 25.6089 39.948 26.2399C41.105 29.3433 41.2677 32.0975 40.87 36.3757C40.4723 40.6538 41.9548 44.4399 44.8474 47.6227C44.0194 42.1143 44.2508 39.0863 45.4404 32.7524C46.2901 28.252 45.943 23.692 44.5292 20.156ZM21.189 25.1842C21.2556 24.9122 21.3427 24.6467 21.4493 24.3905C21.8273 25.3864 22.3012 26.335 22.8631 27.2201C23.5656 28.3231 24.428 29.2924 25.4159 30.0894C25.8629 30.4464 26.3343 30.7648 26.8261 31.0419C25.9995 31.3496 25.1079 31.3786 24.2661 31.1252C23.1426 30.7812 22.1886 29.9636 21.6121 28.8507C21.0357 27.7377 20.8836 26.4198 21.189 25.1842ZM24.7144 42.4754L23.749 42.1143L24.4722 38.2608C24.8206 38.5407 25.2011 38.7688 25.6039 38.9394C25.8173 39.0347 26.027 39.114 26.2331 39.1934L24.7144 42.4754ZM29.4946 38.0465C28.3556 38.0786 27.2236 37.8417 26.1752 37.352C25.8277 37.2194 25.5086 37.0101 25.2375 36.7371C24.9663 36.4641 24.749 36.1331 24.5987 35.7645C24.5216 35.567 24.4819 35.3544 24.4819 35.1395C24.4819 34.9246 24.5216 34.7119 24.5987 34.5144C24.6868 34.348 24.8045 34.2028 24.945 34.0875C25.0854 33.9723 25.2456 33.8893 25.4159 33.8437C25.8185 33.7279 26.2384 33.7033 26.65 33.7716C27.0616 33.8398 27.4561 33.9994 27.8096 34.2406C28.0684 34.4231 28.297 34.6526 28.4858 34.9192V29.9466C26.8646 29.069 25.5132 27.6893 24.5987 25.978C23.6571 24.1179 23.0599 22.0719 22.8414 19.9576L22.9571 19.8346C24.6277 18.1836 27.4878 17.751 29.5199 19.4139C31.552 17.751 34.4157 18.1836 36.0826 19.8346L36.202 19.9615C35.9791 22.0844 35.3744 24.1375 34.423 26.0018C33.5085 27.7131 32.1571 29.0928 30.5359 29.9704V34.9351C30.7236 34.6663 30.9524 34.4353 31.2121 34.2525C31.5656 34.0113 31.9601 33.8517 32.3717 33.7835C32.7833 33.7152 33.2032 33.7398 33.6058 33.8556C33.7766 33.9013 33.9372 33.9847 34.0776 34.1006C34.2181 34.2166 34.3356 34.3628 34.423 34.5303C34.4996 34.7273 34.539 34.9392 34.539 35.1534C34.539 35.3675 34.4996 35.5795 34.423 35.7764C34.2727 36.1451 34.0554 36.476 33.7842 36.749C33.5131 37.022 33.194 37.2313 32.8465 37.3639C31.797 37.8482 30.6651 38.0796 29.5271 38.0425M35.251 42.1143L34.2856 42.4873L32.7669 39.2013C32.973 39.122 33.1791 39.0426 33.3961 38.9473C33.7938 38.7721 34.1694 38.5414 34.5134 38.2608L35.251 42.1143ZM34.7303 31.1371C33.8897 31.3904 32.9993 31.3614 32.1739 31.0538C32.6657 30.7768 33.1371 30.4583 33.5841 30.1013C34.572 29.3043 35.4344 28.335 36.1369 27.232C36.7038 26.3476 37.1826 25.399 37.5651 24.4024C37.6718 24.6586 37.7588 24.9241 37.8255 25.1961C38.1312 26.4344 37.9771 27.7552 37.3968 28.8689C36.8166 29.9826 35.8577 30.7983 34.7303 31.1371Z" fill="#3B3A3A"/>
</g>
<rect x="0.5" y="0.5" width="58" height="56" rx="28" stroke="black"/>
<defs>
<clipPath id="clip0_384_196">
<rect width="41" height="45" fill="white" transform="translate(9 6)"/>
</clipPath>
</defs>
</svg>
