<svg width="258" height="153" viewBox="0 0 258 153" fill="none" xmlns="http://www.w3.org/2000/svg">
<path d="M27.0754 82H4.91953C3.8582 82 3 82.8379 3 83.8738V106.121C3 107.157 3.8582 108 4.91953 108H27.0754C28.1367 108 29 107.157 29 106.126V83.8738C29 82.8379 28.1367 82 27.0754 82ZM10.7137 104.156H6.8543V91.7449H10.7137V104.156ZM8.78398 90.0539C7.54492 90.0539 6.54453 89.0535 6.54453 87.8195C6.54453 86.5855 7.54492 85.5852 8.78398 85.5852C10.018 85.5852 11.0184 86.5855 11.0184 87.8195C11.0184 89.0484 10.018 90.0539 8.78398 90.0539ZM25.1559 104.156H21.3016V98.123C21.3016 96.6859 21.2762 94.8324 19.2957 94.8324C17.2898 94.8324 16.9852 96.4016 16.9852 98.0215V104.156H13.1359V91.7449H16.8328V93.441H16.8836C17.3965 92.466 18.6559 91.4352 20.5297 91.4352C24.4348 91.4352 25.1559 94.0047 25.1559 97.3461V104.156V104.156Z" fill="#1A1A1A" fill-opacity="0.8"/>
<path d="M38.311 90.2261H39.395V99.96H43.5332V101H38.311V90.2261ZM45.0859 90.2261H46.1626V101H45.0859V90.2261ZM48.6455 101V90.2261H48.8799L56.043 98.4731V90.2261H57.105V101H56.8633L49.7588 92.8555V101H48.6455ZM59.7417 90.2261H60.8403V94.269L65.1396 90.2261H66.5972L61.4189 95.0601L67 101H65.5718L60.8403 95.9756V101H59.7417V90.2261ZM68.6113 90.2261H74.7856V91.2881H69.688V94.6572H74.7417V95.7119H69.688V99.938H74.7417V101H68.6113V90.2261ZM76.646 101V90.2261H78.8799C80.4912 90.2261 81.6606 90.3555 82.3882 90.6143C83.4331 90.9805 84.2485 91.6152 84.8345 92.5186C85.4253 93.4219 85.7207 94.4985 85.7207 95.7485C85.7207 96.8276 85.4863 97.7773 85.0176 98.5977C84.5537 99.418 83.9482 100.023 83.2012 100.414C82.459 100.805 81.4165 101 80.0737 101H76.646ZM77.6787 99.9819H78.9238C80.4131 99.9819 81.4458 99.8892 82.022 99.7036C82.8325 99.4399 83.4697 98.9663 83.9336 98.2827C84.3975 97.5942 84.6294 96.7544 84.6294 95.7632C84.6294 94.7231 84.3779 93.8345 83.875 93.0972C83.3721 92.3599 82.6714 91.8545 81.7729 91.5811C81.0991 91.376 79.9883 91.2734 78.4404 91.2734H77.6787V99.9819ZM87.6543 90.2261H88.731V101H87.6543V90.2261ZM91.2139 101V90.2261H91.4482L98.6113 98.4731V90.2261H99.6733V101H99.4316L92.3271 92.8555V101H91.2139ZM103.27 99.3887C103.519 99.3887 103.731 99.4766 103.907 99.6523C104.083 99.8281 104.17 100.043 104.17 100.297C104.17 100.546 104.083 100.761 103.907 100.941C103.731 101.117 103.519 101.205 103.27 101.205C103.021 101.205 102.808 101.117 102.632 100.941C102.457 100.761 102.369 100.546 102.369 100.297C102.369 100.043 102.457 99.8281 102.632 99.6523C102.808 99.4766 103.021 99.3887 103.27 99.3887ZM116.504 92.2256L115.655 92.8774C115.186 92.2671 114.622 91.8057 113.963 91.4932C113.309 91.1758 112.588 91.0171 111.802 91.0171C110.943 91.0171 110.147 91.2246 109.415 91.6396C108.682 92.0498 108.113 92.604 107.708 93.3022C107.308 93.9956 107.107 94.7769 107.107 95.646C107.107 96.9595 107.557 98.0557 108.455 98.9346C109.358 99.8135 110.496 100.253 111.868 100.253C113.377 100.253 114.639 99.6621 115.655 98.4805L116.504 99.125C115.967 99.8086 115.296 100.338 114.49 100.714C113.689 101.085 112.793 101.271 111.802 101.271C109.917 101.271 108.431 100.644 107.342 99.3887C106.429 98.3291 105.972 97.0498 105.972 95.5508C105.972 93.9736 106.524 92.6479 107.627 91.5737C108.736 90.4946 110.123 89.9551 111.788 89.9551C112.793 89.9551 113.702 90.1553 114.512 90.5557C115.323 90.9512 115.987 91.5078 116.504 92.2256ZM123.807 89.9551C125.438 89.9551 126.802 90.4995 127.901 91.5884C129 92.6772 129.549 94.0176 129.549 95.6094C129.549 97.1865 129 98.5244 127.901 99.623C126.807 100.722 125.472 101.271 123.895 101.271C122.298 101.271 120.95 100.724 119.852 99.6304C118.753 98.5366 118.204 97.2134 118.204 95.6606C118.204 94.6255 118.453 93.666 118.951 92.7822C119.454 91.8984 120.137 91.2075 121.001 90.7095C121.866 90.2065 122.801 89.9551 123.807 89.9551ZM123.858 91.0098C123.062 91.0098 122.308 91.2173 121.595 91.6323C120.882 92.0474 120.325 92.6064 119.925 93.3096C119.524 94.0127 119.324 94.7964 119.324 95.6606C119.324 96.9399 119.766 98.0215 120.65 98.9053C121.539 99.7842 122.608 100.224 123.858 100.224C124.693 100.224 125.464 100.021 126.172 99.6157C126.885 99.2104 127.439 98.6562 127.835 97.9531C128.235 97.25 128.436 96.4688 128.436 95.6094C128.436 94.7549 128.235 93.9834 127.835 93.2949C127.439 92.6016 126.88 92.0474 126.158 91.6323C125.435 91.2173 124.668 91.0098 123.858 91.0098ZM131.219 101L132.75 90.2261H132.925L137.305 99.0664L141.641 90.2261H141.817L143.362 101H142.3L141.246 93.2949L137.437 101H137.166L133.306 93.2363L132.259 101H131.219ZM150.306 89.9551L145.831 102.465H144.71L149.178 89.9551H150.306ZM151.902 90.2261H152.979V101H151.902V90.2261ZM155.462 101V90.2261H155.696L162.859 98.4731V90.2261H163.921V101H163.68L156.575 92.8555V101H155.462ZM171.37 89.9551L166.895 102.465H165.774L170.242 89.9551H171.37ZM172.63 101L174.161 90.2261H174.336L178.716 99.0664L183.052 90.2261H183.228L184.773 101H183.711L182.657 93.2949L178.848 101H178.577L174.717 93.2363L173.67 101H172.63ZM191.307 90.2261L196.331 101H195.174L193.482 97.4551H188.838L187.154 101H185.953L191.043 90.2261H191.307ZM191.175 92.5112L189.322 96.415H193.006L191.175 92.5112ZM198.016 101V90.2261H198.25L205.413 98.4731V90.2261H206.475V101H206.233L199.129 92.8555V101H198.016ZM214.246 89.9551C215.877 89.9551 217.242 90.4995 218.34 91.5884C219.439 92.6772 219.988 94.0176 219.988 95.6094C219.988 97.1865 219.439 98.5244 218.34 99.623C217.247 100.722 215.911 101.271 214.334 101.271C212.737 101.271 211.39 100.724 210.291 99.6304C209.192 98.5366 208.643 97.2134 208.643 95.6606C208.643 94.6255 208.892 93.666 209.39 92.7822C209.893 91.8984 210.577 91.2075 211.441 90.7095C212.305 90.2065 213.24 89.9551 214.246 89.9551ZM214.297 91.0098C213.501 91.0098 212.747 91.2173 212.034 91.6323C211.321 92.0474 210.765 92.6064 210.364 93.3096C209.964 94.0127 209.764 94.7964 209.764 95.6606C209.764 96.9399 210.206 98.0215 211.089 98.9053C211.978 99.7842 213.047 100.224 214.297 100.224C215.132 100.224 215.904 100.021 216.612 99.6157C217.325 99.2104 217.879 98.6562 218.274 97.9531C218.675 97.25 218.875 96.4688 218.875 95.6094C218.875 94.7549 218.675 93.9834 218.274 93.2949C217.879 92.6016 217.32 92.0474 216.597 91.6323C215.875 91.2173 215.108 91.0098 214.297 91.0098ZM222.156 101V90.2261H222.391L229.554 98.4731V90.2261H230.616V101H230.374L223.27 92.8555V101H222.156Z" fill="black" fill-opacity="0.8"/>
<path d="M38.8203 145L40.3511 134.226H40.5269L44.9067 143.066L49.2427 134.226H49.4185L50.9639 145H49.9019L48.8472 137.295L45.0386 145H44.7676L40.9077 137.236L39.8604 145H38.8203ZM53.1245 134.226H55.2485C56.103 134.226 56.7598 134.329 57.2188 134.534C57.6777 134.734 58.0391 135.044 58.3027 135.464C58.5713 135.884 58.7056 136.35 58.7056 136.863C58.7056 137.341 58.5884 137.778 58.354 138.174C58.1196 138.564 57.7754 138.882 57.3213 139.126C57.8828 139.316 58.3149 139.541 58.6177 139.8C58.9204 140.054 59.1548 140.364 59.3208 140.73C59.4917 141.091 59.5771 141.484 59.5771 141.909C59.5771 142.773 59.2598 143.506 58.625 144.106C57.9951 144.702 57.1479 145 56.0835 145H53.1245V134.226ZM54.1792 135.281V138.73H54.7944C55.5415 138.73 56.0908 138.662 56.4424 138.525C56.7939 138.384 57.0723 138.164 57.2773 137.866C57.4824 137.563 57.585 137.229 57.585 136.863C57.585 136.37 57.4116 135.984 57.0649 135.706C56.7231 135.422 56.1763 135.281 55.4243 135.281H54.1792ZM54.1792 139.814V143.945H55.5122C56.2983 143.945 56.8745 143.87 57.2407 143.718C57.6069 143.562 57.8999 143.32 58.1196 142.993C58.3442 142.666 58.4565 142.312 58.4565 141.931C58.4565 141.453 58.3003 141.035 57.9878 140.679C57.6753 140.322 57.2456 140.078 56.6987 139.946C56.3325 139.858 55.6953 139.814 54.7871 139.814H54.1792ZM66.8428 133.955C68.4736 133.955 69.8384 134.5 70.937 135.588C72.0356 136.677 72.585 138.018 72.585 139.609C72.585 141.187 72.0356 142.524 70.937 143.623C69.8433 144.722 68.5078 145.271 66.9307 145.271C65.334 145.271 63.9863 144.724 62.8877 143.63C61.7891 142.537 61.2397 141.213 61.2397 139.661C61.2397 138.625 61.4888 137.666 61.9868 136.782C62.4897 135.898 63.1733 135.208 64.0376 134.709C64.9019 134.207 65.8369 133.955 66.8428 133.955ZM66.894 135.01C66.0981 135.01 65.3438 135.217 64.6309 135.632C63.918 136.047 63.3613 136.606 62.9609 137.31C62.5605 138.013 62.3604 138.796 62.3604 139.661C62.3604 140.94 62.8022 142.021 63.686 142.905C64.5747 143.784 65.644 144.224 66.894 144.224C67.729 144.224 68.5005 144.021 69.2085 143.616C69.9214 143.21 70.4756 142.656 70.8711 141.953C71.2715 141.25 71.4717 140.469 71.4717 139.609C71.4717 138.755 71.2715 137.983 70.8711 137.295C70.4756 136.602 69.9165 136.047 69.1938 135.632C68.4712 135.217 67.7046 135.01 66.894 135.01ZM74.7822 134.226H75.8589V140.73C75.8589 141.501 75.8735 141.982 75.9028 142.173C75.9565 142.598 76.0811 142.954 76.2764 143.242C76.4717 143.525 76.772 143.765 77.1772 143.96C77.5825 144.15 77.9902 144.246 78.4004 144.246C78.7568 144.246 79.0986 144.17 79.4258 144.019C79.7529 143.867 80.0264 143.657 80.2461 143.389C80.4658 143.12 80.627 142.795 80.7295 142.415C80.8027 142.141 80.8394 141.58 80.8394 140.73V134.226H81.916V140.73C81.916 141.692 81.8208 142.471 81.6304 143.066C81.4448 143.657 81.0688 144.172 80.5024 144.612C79.9409 145.051 79.2598 145.271 78.459 145.271C77.5898 145.271 76.8452 145.063 76.2251 144.648C75.605 144.233 75.1899 143.684 74.98 143C74.8481 142.581 74.7822 141.824 74.7822 140.73V134.226ZM83.4614 142.993L84.377 142.444C85.0215 143.63 85.7661 144.224 86.6108 144.224C86.9722 144.224 87.3115 144.141 87.6289 143.975C87.9463 143.804 88.188 143.577 88.354 143.293C88.52 143.01 88.603 142.71 88.603 142.393C88.603 142.031 88.481 141.677 88.2368 141.331C87.8999 140.852 87.2847 140.276 86.3911 139.602C85.4927 138.923 84.9336 138.433 84.7139 138.13C84.333 137.622 84.1426 137.073 84.1426 136.482C84.1426 136.013 84.2549 135.586 84.4795 135.2C84.7041 134.814 85.019 134.512 85.4243 134.292C85.8345 134.067 86.2788 133.955 86.7573 133.955C87.2651 133.955 87.7388 134.082 88.1782 134.336C88.6226 134.585 89.0913 135.046 89.5845 135.72L88.7056 136.387C88.3003 135.85 87.9536 135.496 87.6655 135.325C87.3823 135.154 87.0723 135.068 86.7354 135.068C86.3008 135.068 85.9443 135.2 85.666 135.464C85.3926 135.728 85.2559 136.052 85.2559 136.438C85.2559 136.672 85.3047 136.899 85.4023 137.119C85.5 137.339 85.6782 137.578 85.937 137.837C86.0786 137.974 86.5425 138.333 87.3286 138.914C88.2612 139.602 88.9009 140.215 89.2476 140.752C89.5942 141.289 89.7676 141.829 89.7676 142.371C89.7676 143.152 89.4697 143.831 88.874 144.407C88.2832 144.983 87.563 145.271 86.7134 145.271C86.0591 145.271 85.4658 145.098 84.9336 144.751C84.4014 144.399 83.9106 143.813 83.4614 142.993ZM101.083 143.828L102.68 145.85H101.354L100.256 144.458C99.377 145 98.3857 145.271 97.2822 145.271C95.6855 145.271 94.3379 144.724 93.2393 143.63C92.1406 142.537 91.5913 141.213 91.5913 139.661C91.5913 138.625 91.8428 137.666 92.3457 136.782C92.8486 135.894 93.5322 135.2 94.3965 134.702C95.2656 134.204 96.2178 133.955 97.2529 133.955C98.8496 133.955 100.195 134.502 101.289 135.596C102.387 136.685 102.937 138.025 102.937 139.617C102.937 140.447 102.785 141.206 102.482 141.895C102.185 142.583 101.718 143.228 101.083 143.828ZM100.417 142.986C101.354 142.073 101.823 140.947 101.823 139.609C101.823 138.755 101.623 137.983 101.223 137.295C100.827 136.602 100.268 136.047 99.5454 135.632C98.8228 135.217 98.061 135.01 97.2603 135.01C96.4546 135.01 95.6953 135.217 94.9824 135.632C94.2695 136.042 93.7129 136.602 93.3125 137.31C92.9121 138.013 92.7119 138.796 92.7119 139.661C92.7119 140.94 93.1538 142.021 94.0376 142.905C94.9214 143.784 95.9883 144.224 97.2383 144.224C98.0928 144.224 98.874 144.016 99.582 143.601L97.1797 140.554H98.4907L100.417 142.986ZM105.148 134.226H106.225V140.73C106.225 141.501 106.24 141.982 106.269 142.173C106.323 142.598 106.447 142.954 106.643 143.242C106.838 143.525 107.138 143.765 107.543 143.96C107.949 144.15 108.356 144.246 108.767 144.246C109.123 144.246 109.465 144.17 109.792 144.019C110.119 143.867 110.393 143.657 110.612 143.389C110.832 143.12 110.993 142.795 111.096 142.415C111.169 142.141 111.206 141.58 111.206 140.73V134.226H112.282V140.73C112.282 141.692 112.187 142.471 111.997 143.066C111.811 143.657 111.435 144.172 110.869 144.612C110.307 145.051 109.626 145.271 108.825 145.271C107.956 145.271 107.211 145.063 106.591 144.648C105.971 144.233 105.556 143.684 105.346 143C105.214 142.581 105.148 141.824 105.148 140.73V134.226ZM114.948 134.226H121.123V135.288H116.025V138.657H121.079V139.712H116.025V143.938H121.079V145H114.948V134.226ZM121.914 135.273V134.226H127.824V135.273H125.422V145H124.323V135.273H121.914ZM129.794 137.603H128.762C128.791 136.538 129.145 135.664 129.824 134.98C130.507 134.297 131.35 133.955 132.351 133.955C133.342 133.955 134.143 134.275 134.753 134.915C135.368 135.554 135.676 136.309 135.676 137.178C135.676 137.788 135.529 138.362 135.236 138.899C134.943 139.431 134.375 140.154 133.53 141.067L130.849 143.96H135.822V145H128.505L132.622 140.554C133.457 139.661 133.999 138.999 134.248 138.569C134.501 138.135 134.628 137.678 134.628 137.2C134.628 136.594 134.401 136.074 133.947 135.64C133.498 135.2 132.946 134.98 132.292 134.98C131.604 134.98 131.03 135.21 130.571 135.669C130.117 136.128 129.858 136.772 129.794 137.603ZM139.155 134.226H141.271V145H140.202V135.281H138.51L139.155 134.226ZM146.435 137.603H145.402C145.432 136.538 145.786 135.664 146.464 134.98C147.148 134.297 147.99 133.955 148.991 133.955C149.982 133.955 150.783 134.275 151.394 134.915C152.009 135.554 152.316 136.309 152.316 137.178C152.316 137.788 152.17 138.362 151.877 138.899C151.584 139.431 151.015 140.154 150.17 141.067L147.49 143.96H152.463V145H145.146L149.262 140.554C150.097 139.661 150.639 138.999 150.888 138.569C151.142 138.135 151.269 137.678 151.269 137.2C151.269 136.594 151.042 136.074 150.588 135.64C150.139 135.2 149.587 134.98 148.933 134.98C148.244 134.98 147.67 135.21 147.211 135.669C146.757 136.128 146.499 136.772 146.435 137.603ZM163.596 142.795H164.372C163.718 143.611 163.112 144.182 162.556 144.509C161.765 144.968 160.864 145.198 159.853 145.198C158.784 145.198 157.797 144.946 156.894 144.443C155.991 143.936 155.285 143.245 154.777 142.371C154.274 141.497 154.023 140.542 154.023 139.507C154.023 138.457 154.277 137.48 154.785 136.577C155.297 135.674 155.993 134.973 156.872 134.475C157.751 133.972 158.713 133.721 159.758 133.721C161.232 133.721 162.478 134.194 163.493 135.142C164.509 136.084 165.017 137.183 165.017 138.438C165.017 139.351 164.804 140.139 164.379 140.803C163.959 141.462 163.388 141.975 162.666 142.341C162.114 142.625 161.643 142.766 161.252 142.766C160.969 142.766 160.744 142.69 160.578 142.539C160.451 142.427 160.385 142.231 160.38 141.953C160.214 142.163 159.985 142.339 159.692 142.48C159.404 142.622 159.104 142.693 158.791 142.693C158.088 142.693 157.507 142.451 157.048 141.968C156.589 141.479 156.359 140.835 156.359 140.034C156.359 139.17 156.638 138.381 157.194 137.668C157.751 136.956 158.518 136.599 159.494 136.599C159.924 136.599 160.283 136.68 160.571 136.841C160.864 137.002 161.14 137.283 161.398 137.683L161.589 136.672H162.38L161.53 141.462C161.506 141.619 161.494 141.719 161.494 141.763C161.494 141.875 161.528 141.963 161.596 142.026C161.665 142.09 161.752 142.122 161.86 142.122C162.148 142.122 162.521 141.956 162.98 141.624C163.444 141.287 163.803 140.857 164.057 140.334C164.316 139.807 164.445 139.224 164.445 138.584C164.445 137.344 163.964 136.316 163.002 135.5C162.104 134.744 161.01 134.365 159.721 134.365C158.764 134.365 157.895 134.585 157.114 135.024C156.337 135.459 155.722 136.074 155.268 136.87C154.819 137.661 154.594 138.518 154.594 139.441C154.594 140.374 154.821 141.235 155.275 142.026C155.729 142.812 156.357 143.43 157.158 143.879C157.963 144.329 158.85 144.553 159.816 144.553C160.524 144.553 161.167 144.426 161.743 144.172C162.319 143.918 162.937 143.459 163.596 142.795ZM159.157 141.865C159.479 141.865 159.782 141.765 160.065 141.565C160.349 141.36 160.573 141.055 160.739 140.649C160.954 140.117 161.062 139.583 161.062 139.045C161.062 138.552 160.922 138.152 160.644 137.844C160.371 137.537 160.014 137.383 159.575 137.383C158.989 137.383 158.481 137.625 158.051 138.108C157.626 138.586 157.414 139.185 157.414 139.902C157.414 140.503 157.575 140.981 157.897 141.338C158.225 141.689 158.645 141.865 159.157 141.865ZM177.731 136.035L176.896 136.826C176.296 136.235 175.637 135.789 174.919 135.486C174.206 135.178 173.51 135.024 172.832 135.024C171.987 135.024 171.181 135.232 170.415 135.647C169.653 136.062 169.062 136.626 168.642 137.339C168.222 138.047 168.012 138.796 168.012 139.587C168.012 140.398 168.229 141.169 168.664 141.902C169.099 142.629 169.699 143.203 170.466 143.623C171.232 144.038 172.072 144.246 172.985 144.246C174.094 144.246 175.031 143.933 175.798 143.308C176.564 142.683 177.019 141.873 177.16 140.876H173.725V139.836H178.369C178.359 141.501 177.863 142.825 176.882 143.806C175.905 144.783 174.597 145.271 172.956 145.271C170.964 145.271 169.387 144.592 168.225 143.235C167.331 142.19 166.884 140.981 166.884 139.609C166.884 138.589 167.141 137.639 167.653 136.76C168.166 135.881 168.869 135.195 169.763 134.702C170.656 134.204 171.667 133.955 172.795 133.955C173.708 133.955 174.567 134.121 175.373 134.453C176.179 134.78 176.965 135.308 177.731 136.035ZM179.929 145L181.459 134.226H181.635L186.015 143.066L190.351 134.226H190.527L192.072 145H191.01L189.956 137.295L186.147 145H185.876L182.016 137.236L180.969 145H179.929ZM198.605 134.226L203.63 145H202.473L200.781 141.455H196.137L194.453 145H193.251L198.342 134.226H198.605ZM198.474 136.511L196.621 140.415H200.305L198.474 136.511ZM205.153 134.226H206.23V145H205.153V134.226ZM208.706 134.226H209.79V143.96H213.928V145H208.706V134.226ZM216.594 143.389C216.843 143.389 217.055 143.477 217.231 143.652C217.407 143.828 217.495 144.043 217.495 144.297C217.495 144.546 217.407 144.761 217.231 144.941C217.055 145.117 216.843 145.205 216.594 145.205C216.345 145.205 216.132 145.117 215.957 144.941C215.781 144.761 215.693 144.546 215.693 144.297C215.693 144.043 215.781 143.828 215.957 143.652C216.132 143.477 216.345 143.389 216.594 143.389ZM229.829 136.226L228.979 136.877C228.51 136.267 227.946 135.806 227.287 135.493C226.633 135.176 225.913 135.017 225.126 135.017C224.267 135.017 223.471 135.225 222.739 135.64C222.006 136.05 221.438 136.604 221.032 137.302C220.632 137.996 220.432 138.777 220.432 139.646C220.432 140.959 220.881 142.056 221.779 142.935C222.683 143.813 223.82 144.253 225.192 144.253C226.701 144.253 227.963 143.662 228.979 142.48L229.829 143.125C229.292 143.809 228.62 144.338 227.814 144.714C227.014 145.085 226.118 145.271 225.126 145.271C223.242 145.271 221.755 144.644 220.666 143.389C219.753 142.329 219.296 141.05 219.296 139.551C219.296 137.974 219.848 136.648 220.952 135.574C222.06 134.495 223.447 133.955 225.112 133.955C226.118 133.955 227.026 134.155 227.836 134.556C228.647 134.951 229.311 135.508 229.829 136.226ZM237.131 133.955C238.762 133.955 240.126 134.5 241.225 135.588C242.324 136.677 242.873 138.018 242.873 139.609C242.873 141.187 242.324 142.524 241.225 143.623C240.131 144.722 238.796 145.271 237.219 145.271C235.622 145.271 234.274 144.724 233.176 143.63C232.077 142.537 231.528 141.213 231.528 139.661C231.528 138.625 231.777 137.666 232.275 136.782C232.778 135.898 233.461 135.208 234.326 134.709C235.19 134.207 236.125 133.955 237.131 133.955ZM237.182 135.01C236.386 135.01 235.632 135.217 234.919 135.632C234.206 136.047 233.649 136.606 233.249 137.31C232.849 138.013 232.648 138.796 232.648 139.661C232.648 140.94 233.09 142.021 233.974 142.905C234.863 143.784 235.932 144.224 237.182 144.224C238.017 144.224 238.789 144.021 239.497 143.616C240.209 143.21 240.764 142.656 241.159 141.953C241.56 141.25 241.76 140.469 241.76 139.609C241.76 138.755 241.56 137.983 241.159 137.295C240.764 136.602 240.205 136.047 239.482 135.632C238.759 135.217 237.993 135.01 237.182 135.01ZM244.543 145L246.074 134.226H246.25L250.629 143.066L254.965 134.226H255.141L256.687 145H255.625L254.57 137.295L250.761 145H250.49L246.63 137.236L245.583 145H244.543Z" fill="black" fill-opacity="0.8"/>
<g clip-path="url(#clip0_397_208)">
<path fill-rule="evenodd" clip-rule="evenodd" d="M15.0108 0C7.81614 0 2 5.85902 2 13.1074C2 18.9015 5.7266 23.806 10.8964 25.5419C11.5427 25.6724 11.7795 25.2598 11.7795 24.9128C11.7795 24.609 11.7582 23.5674 11.7582 22.4821C8.13892 23.2635 7.38524 20.9196 7.38524 20.9196C6.8036 19.4006 5.94179 19.0101 5.94179 19.0101C4.7572 18.2072 6.02808 18.2072 6.02808 18.2072C7.3421 18.294 8.0316 19.5526 8.0316 19.5526C9.19461 21.5489 11.0687 20.9849 11.8226 20.6376C11.9302 19.7912 12.2751 19.2053 12.6413 18.8799C9.75468 18.576 6.71758 17.4476 6.71758 12.4129C6.71758 10.9806 7.23424 9.8088 8.0529 8.89746C7.92374 8.57201 7.47126 7.2263 8.18233 5.42519C8.18233 5.42519 9.2809 5.07791 11.7579 6.77063C12.8184 6.48372 13.9121 6.33776 15.0108 6.33653C16.1093 6.33653 17.2292 6.4886 18.2633 6.77063C20.7406 5.07791 21.8392 5.42519 21.8392 5.42519C22.5503 7.2263 22.0975 8.57201 21.9683 8.89746C22.8086 9.8088 23.3039 10.9806 23.3039 12.4129C23.3039 17.4476 20.2668 18.5542 17.3586 18.8799C17.8327 19.2922 18.2417 20.0733 18.2417 21.3103C18.2417 23.068 18.2204 24.4787 18.2204 24.9126C18.2204 25.2598 18.4575 25.6724 19.1035 25.5421C24.2733 23.8057 27.9999 18.9015 27.9999 13.1074C28.0212 5.85902 22.1838 0 15.0108 0Z" fill="#2D2D2D"/>
</g>
<path d="M35.8203 19L37.3511 8.22607H37.5269L41.9067 17.0664L46.2427 8.22607H46.4185L47.9639 19H46.9019L45.8472 11.2949L42.0386 19H41.7676L37.9077 11.2363L36.8604 19H35.8203ZM54.4971 8.22607L59.5215 19H58.3643L56.6724 15.4551H52.0288L50.3442 19H49.1431L54.2334 8.22607H54.4971ZM54.3652 10.5112L52.5122 14.415H56.1963L54.3652 10.5112ZM61.2061 19V8.22607H61.4404L68.6035 16.4731V8.22607H69.6655V19H69.4238L62.3193 10.8555V19H61.2061ZM77.4365 7.95508C79.0674 7.95508 80.4321 8.49951 81.5308 9.58838C82.6294 10.6772 83.1787 12.0176 83.1787 13.6094C83.1787 15.1865 82.6294 16.5244 81.5308 17.623C80.437 18.7217 79.1016 19.271 77.5244 19.271C75.9277 19.271 74.5801 18.7241 73.4814 17.6304C72.3828 16.5366 71.8335 15.2134 71.8335 13.6606C71.8335 12.6255 72.0825 11.666 72.5806 10.7822C73.0835 9.89844 73.7671 9.20752 74.6313 8.70947C75.4956 8.20654 76.4307 7.95508 77.4365 7.95508ZM77.4878 9.00977C76.6919 9.00977 75.9375 9.21729 75.2246 9.63232C74.5117 10.0474 73.9551 10.6064 73.5547 11.3096C73.1543 12.0127 72.9541 12.7964 72.9541 13.6606C72.9541 14.9399 73.396 16.0215 74.2798 16.9053C75.1685 17.7842 76.2378 18.2236 77.4878 18.2236C78.3228 18.2236 79.0942 18.021 79.8022 17.6157C80.5151 17.2104 81.0693 16.6562 81.4648 15.9531C81.8652 15.25 82.0654 14.4688 82.0654 13.6094C82.0654 12.7549 81.8652 11.9834 81.4648 11.2949C81.0693 10.6016 80.5103 10.0474 79.7876 9.63232C79.0649 9.21729 78.2983 9.00977 77.4878 9.00977ZM85.3467 19V8.22607H85.5811L92.7441 16.4731V8.22607H93.8062V19H93.5645L86.46 10.8555V19H85.3467ZM97.4023 17.3887C97.6514 17.3887 97.8638 17.4766 98.0396 17.6523C98.2153 17.8281 98.3032 18.043 98.3032 18.2969C98.3032 18.5459 98.2153 18.7607 98.0396 18.9414C97.8638 19.1172 97.6514 19.2051 97.4023 19.2051C97.1533 19.2051 96.9409 19.1172 96.7651 18.9414C96.5894 18.7607 96.5015 18.5459 96.5015 18.2969C96.5015 18.043 96.5894 17.8281 96.7651 17.6523C96.9409 17.4766 97.1533 17.3887 97.4023 17.3887ZM110.996 10.0352L110.161 10.8262C109.561 10.2354 108.901 9.78857 108.184 9.48584C107.471 9.17822 106.775 9.02441 106.096 9.02441C105.251 9.02441 104.446 9.23193 103.679 9.64697C102.917 10.062 102.327 10.626 101.907 11.3389C101.487 12.0469 101.277 12.7964 101.277 13.5874C101.277 14.3979 101.494 15.1694 101.929 15.9019C102.363 16.6294 102.964 17.2031 103.73 17.623C104.497 18.0381 105.337 18.2456 106.25 18.2456C107.358 18.2456 108.296 17.9331 109.062 17.3081C109.829 16.6831 110.283 15.8726 110.425 14.8765H106.99V13.8364H111.633C111.624 15.5015 111.128 16.8247 110.146 17.8062C109.17 18.7827 107.861 19.271 106.221 19.271C104.229 19.271 102.651 18.5923 101.489 17.2349C100.596 16.1899 100.149 14.9814 100.149 13.6094C100.149 12.5889 100.405 11.6392 100.918 10.7603C101.431 9.88135 102.134 9.19531 103.027 8.70215C103.921 8.2041 104.932 7.95508 106.06 7.95508C106.973 7.95508 107.832 8.12109 108.638 8.45312C109.443 8.78027 110.229 9.30762 110.996 10.0352ZM113.53 8.22607H114.607V19H113.53V8.22607ZM116.013 9.27344V8.22607H121.924V9.27344H119.521V19H118.423V9.27344H116.013ZM124.429 17.3887C124.678 17.3887 124.89 17.4766 125.066 17.6523C125.242 17.8281 125.33 18.043 125.33 18.2969C125.33 18.5459 125.242 18.7607 125.066 18.9414C124.89 19.1172 124.678 19.2051 124.429 19.2051C124.18 19.2051 123.967 19.1172 123.792 18.9414C123.616 18.7607 123.528 18.5459 123.528 18.2969C123.528 18.043 123.616 17.8281 123.792 17.6523C123.967 17.4766 124.18 17.3887 124.429 17.3887ZM127.476 8.22607H128.552V19H127.476V8.22607ZM136.162 7.95508C137.793 7.95508 139.158 8.49951 140.256 9.58838C141.355 10.6772 141.904 12.0176 141.904 13.6094C141.904 15.1865 141.355 16.5244 140.256 17.623C139.163 18.7217 137.827 19.271 136.25 19.271C134.653 19.271 133.306 18.7241 132.207 17.6304C131.108 16.5366 130.559 15.2134 130.559 13.6606C130.559 12.6255 130.808 11.666 131.306 10.7822C131.809 9.89844 132.493 9.20752 133.357 8.70947C134.221 8.20654 135.156 7.95508 136.162 7.95508ZM136.213 9.00977C135.417 9.00977 134.663 9.21729 133.95 9.63232C133.237 10.0474 132.681 10.6064 132.28 11.3096C131.88 12.0127 131.68 12.7964 131.68 13.6606C131.68 14.9399 132.122 16.0215 133.005 16.9053C133.894 17.7842 134.963 18.2236 136.213 18.2236C137.048 18.2236 137.82 18.021 138.528 17.6157C139.241 17.2104 139.795 16.6562 140.19 15.9531C140.591 15.25 140.791 14.4688 140.791 13.6094C140.791 12.7549 140.591 11.9834 140.19 11.2949C139.795 10.6016 139.236 10.0474 138.513 9.63232C137.791 9.21729 137.024 9.00977 136.213 9.00977Z" fill="black" fill-opacity="0.8"/>
<path opacity="0.6" fill-rule="evenodd" clip-rule="evenodd" d="M15 42C8.92733 42 4 46.9273 4 53C4 59.0727 8.92733 64 15 64C21.0607 64 26 59.0727 26 53C26 46.9273 21.0607 42 15 42ZM22.2657 47.0705C23.5781 48.6692 24.3655 50.7093 24.3894 52.9165C24.0792 52.8569 20.9772 52.2245 17.8514 52.6182C17.7798 52.4631 17.7202 52.2961 17.6486 52.1291C17.4577 51.6757 17.243 51.2104 17.0282 50.769C20.488 49.3612 22.0629 47.333 22.2657 47.0705ZM15 43.6226C17.3861 43.6226 19.5694 44.5174 21.2278 45.9848C21.0607 46.2234 19.641 48.1204 16.3004 49.3731C14.7614 46.5456 13.0553 44.231 12.7929 43.8731C13.4967 43.7061 14.2365 43.6226 15 43.6226ZM11.0033 44.5054C11.2538 44.8395 12.9241 47.1659 14.487 49.9338C10.0965 51.1031 6.21909 51.0792 5.80152 51.0792C6.40998 48.1681 8.37852 45.7462 11.0033 44.5054ZM5.5987 53.012C5.5987 52.9165 5.5987 52.821 5.5987 52.7256C6.00434 52.7375 10.5618 52.7972 15.2505 51.3894C15.525 51.9143 15.7755 52.4512 16.0141 52.988C15.8948 53.0239 15.7635 53.0597 15.6443 53.0954C10.8004 54.6583 8.22343 58.9295 8.00868 59.2874C6.51735 57.6291 5.5987 55.4219 5.5987 53.012ZM15 62.4013C12.8286 62.4013 10.8243 61.6616 9.23753 60.4208C9.40455 60.0749 11.3134 56.4002 16.6106 54.551C16.6345 54.539 16.6464 54.539 16.6703 54.5271C17.9945 57.9512 18.5315 60.8264 18.6746 61.6496C17.5412 62.1388 16.3004 62.4013 15 62.4013ZM20.2375 60.7907C20.1421 60.218 19.641 57.474 18.4121 54.0976C21.359 53.6323 23.936 54.3959 24.2582 54.5033C23.8525 57.1161 22.3492 59.3709 20.2375 60.7907Z" fill="black"/>
<path d="M34.3403 48.2261H36.4644C37.3188 48.2261 37.9756 48.3286 38.4346 48.5337C38.8936 48.7339 39.2549 49.0439 39.5186 49.4639C39.7871 49.8838 39.9214 50.3501 39.9214 50.8628C39.9214 51.3413 39.8042 51.7783 39.5698 52.1738C39.3354 52.5645 38.9912 52.8818 38.5371 53.126C39.0986 53.3164 39.5308 53.541 39.8335 53.7998C40.1362 54.0537 40.3706 54.3638 40.5366 54.73C40.7075 55.0913 40.793 55.4844 40.793 55.9092C40.793 56.7734 40.4756 57.5059 39.8408 58.1064C39.2109 58.7021 38.3638 59 37.2993 59H34.3403V48.2261ZM35.395 49.2808V52.7305H36.0103C36.7573 52.7305 37.3066 52.6621 37.6582 52.5254C38.0098 52.3838 38.2881 52.1641 38.4932 51.8662C38.6982 51.5635 38.8008 51.229 38.8008 50.8628C38.8008 50.3696 38.6274 49.9839 38.2808 49.7056C37.939 49.4224 37.3921 49.2808 36.6401 49.2808H35.395ZM35.395 53.8145V57.9453H36.728C37.5142 57.9453 38.0903 57.8696 38.4565 57.7183C38.8228 57.562 39.1157 57.3203 39.3354 56.9932C39.5601 56.666 39.6724 56.312 39.6724 55.9312C39.6724 55.4526 39.5161 55.0352 39.2036 54.6787C38.8911 54.3223 38.4614 54.0781 37.9146 53.9463C37.5483 53.8584 36.9111 53.8145 36.0029 53.8145H35.395ZM42.9316 48.2261H49.106V49.2881H44.0083V52.6572H49.062V53.7119H44.0083V57.938H49.062V59H42.9316V48.2261ZM50.9517 48.2261H52.0356V52.7451H57.5142V48.2261H58.5981V59H57.5142V53.7998H52.0356V59H50.9517V48.2261ZM65.6221 48.2261L70.6465 59H69.4893L67.7974 55.4551H63.1538L61.4692 59H60.2681L65.3584 48.2261H65.6221ZM65.4902 50.5112L63.6372 54.415H67.3213L65.4902 50.5112ZM72.3311 59V48.2261H72.5654L79.7285 56.4731V48.2261H80.7905V59H80.5488L73.4443 50.8555V59H72.3311ZM93.4614 50.2256L92.6118 50.8774C92.1431 50.2671 91.5791 49.8057 90.9199 49.4932C90.2656 49.1758 89.5454 49.0171 88.7593 49.0171C87.8999 49.0171 87.104 49.2246 86.3716 49.6396C85.6392 50.0498 85.0703 50.604 84.665 51.3022C84.2646 51.9956 84.0645 52.7769 84.0645 53.646C84.0645 54.9595 84.5137 56.0557 85.4121 56.9346C86.3154 57.8135 87.4531 58.2529 88.8252 58.2529C90.334 58.2529 91.5962 57.6621 92.6118 56.4805L93.4614 57.125C92.9243 57.8086 92.2529 58.3384 91.4473 58.7144C90.6465 59.0854 89.7505 59.271 88.7593 59.271C86.8745 59.271 85.3877 58.6436 84.2988 57.3887C83.3857 56.3291 82.9292 55.0498 82.9292 53.5508C82.9292 51.9736 83.481 50.6479 84.5845 49.5737C85.6929 48.4946 87.0796 47.9551 88.7446 47.9551C89.7505 47.9551 90.6587 48.1553 91.4692 48.5557C92.2798 48.9512 92.9438 49.5078 93.4614 50.2256ZM95.6367 48.2261H101.811V49.2881H96.7134V52.6572H101.767V53.7119H96.7134V57.938H101.767V59H95.6367V48.2261ZM104.631 57.3887C104.88 57.3887 105.092 57.4766 105.268 57.6523C105.444 57.8281 105.532 58.043 105.532 58.2969C105.532 58.5459 105.444 58.7607 105.268 58.9414C105.092 59.1172 104.88 59.2051 104.631 59.2051C104.382 59.2051 104.169 59.1172 103.994 58.9414C103.818 58.7607 103.73 58.5459 103.73 58.2969C103.73 58.043 103.818 57.8281 103.994 57.6523C104.169 57.4766 104.382 57.3887 104.631 57.3887ZM107.839 59V48.2261H108.073L115.236 56.4731V48.2261H116.298V59H116.057L108.952 50.8555V59H107.839ZM118.942 48.2261H125.117V49.2881H120.019V52.6572H125.073V53.7119H120.019V57.938H125.073V59H118.942V48.2261ZM125.908 49.2734V48.2261H131.818V49.2734H129.416V59H128.317V49.2734H125.908ZM138.176 47.9551L133.701 60.4648H132.58L137.048 47.9551H138.176ZM139.436 59L140.966 48.2261H141.142L145.522 57.0664L149.858 48.2261H150.034L151.579 59H150.517L149.462 51.2949L145.654 59H145.383L141.523 51.2363L140.476 59H139.436ZM158.112 48.2261L163.137 59H161.979L160.288 55.4551H155.644L153.959 59H152.758L157.849 48.2261H158.112ZM157.98 50.5112L156.127 54.415H159.812L157.98 50.5112ZM164.821 59V48.2261H165.056L172.219 56.4731V48.2261H173.281V59H173.039L165.935 50.8555V59H164.821ZM181.052 47.9551C182.683 47.9551 184.047 48.4995 185.146 49.5884C186.245 50.6772 186.794 52.0176 186.794 53.6094C186.794 55.1865 186.245 56.5244 185.146 57.623C184.052 58.7217 182.717 59.271 181.14 59.271C179.543 59.271 178.195 58.7241 177.097 57.6304C175.998 56.5366 175.449 55.2134 175.449 53.6606C175.449 52.6255 175.698 51.666 176.196 50.7822C176.699 49.8984 177.382 49.2075 178.247 48.7095C179.111 48.2065 180.046 47.9551 181.052 47.9551ZM181.103 49.0098C180.307 49.0098 179.553 49.2173 178.84 49.6323C178.127 50.0474 177.57 50.6064 177.17 51.3096C176.77 52.0127 176.569 52.7964 176.569 53.6606C176.569 54.9399 177.011 56.0215 177.895 56.9053C178.784 57.7842 179.853 58.2236 181.103 58.2236C181.938 58.2236 182.709 58.021 183.417 57.6157C184.13 57.2104 184.685 56.6562 185.08 55.9531C185.48 55.25 185.681 54.4688 185.681 53.6094C185.681 52.7549 185.48 51.9834 185.08 51.2949C184.685 50.6016 184.125 50.0474 183.403 49.6323C182.68 49.2173 181.914 49.0098 181.103 49.0098ZM188.962 59V48.2261H189.196L196.359 56.4731V48.2261H197.421V59H197.18L190.075 50.8555V59H188.962Z" fill="black" fill-opacity="0.8"/>
<path d="M29 130V144C29 145.105 28.1046 146 27 146H5C3.89543 146 3 145.105 3 144V130M29 130C29 128.895 28.1046 128 27 128H5C3.89543 128 3 128.895 3 130M29 130L17.1384 138.212C16.4535 138.686 15.5465 138.686 14.8616 138.212L3 130" stroke="#2E4454" stroke-width="2" stroke-linecap="round" stroke-linejoin="round"/>
<defs>
<clipPath id="clip0_397_208">
<rect width="26" height="26" fill="white" transform="translate(2)"/>
</clipPath>
</defs>
</svg>
