<svg width="33" height="33" viewBox="0 0 33 33" fill="none" xmlns="http://www.w3.org/2000/svg">
<path d="M20.9202 18.1112L31.625 18.2654L21.1219 16.1785L30.9637 11.9417L20.5251 14.3304L27.8019 6.43442L19.2317 12.8858L22.6855 2.69669L17.4665 12.096L16.4997 1.375L15.5335 12.096L10.3139 2.69669L13.7683 12.8858L5.19809 6.43442L12.4749 14.3304L2.03628 11.9417L11.8775 16.1785L1.375 18.2654L12.0798 18.1112L3.32898 24.3134L13.0459 19.794L7.56079 29.0383L14.6095 20.9361L13.3379 31.625L16.4997 21.3403L19.6621 31.625L18.3905 20.9361L25.4392 29.0383L19.9541 19.794L29.6703 24.3134L20.9202 18.1112Z" fill="black"/>
</svg>
