<svg width="65" height="36" viewBox="0 0 65 36" fill="none" xmlns="http://www.w3.org/2000/svg">
<path fill-rule="evenodd" clip-rule="evenodd" d="M46.9444 36L45.1871 25.3638C40.783 28.9935 33.2164 31.3884 24.6212 31.3884C11.0233 31.3884 9.27185e-07 25.3942 1.57361e-06 18C2.22003e-06 10.6058 11.0233 4.61158 24.6212 4.61158C33.2164 4.61158 40.783 7.00655 45.1871 10.6362L46.9444 -1.57847e-06L49.4979 15.4544L65 18L49.4979 20.5456L46.9444 36ZM44.9486 12.0797L44.9178 12.2658C42.1943 10.764 38.4088 9.83305 34.2235 9.83305C25.9288 9.83305 19.2045 13.4895 19.2045 18C19.2045 22.5105 25.9288 26.1669 34.2235 26.1669C38.4088 26.1669 42.1943 25.236 44.9178 23.7342L44.9486 23.9203C44.3874 24.3321 43.7658 24.7245 43.0868 25.0937C39.5916 26.9943 34.7182 28.1901 29.2992 28.1901C23.8803 28.1901 19.0069 26.9943 15.5117 25.0937C11.9917 23.1796 10.0126 20.6428 10.0126 18C10.0126 15.3571 11.9917 12.8204 15.5117 10.9063C19.0069 9.0057 23.8803 7.80991 29.2992 7.80991C34.7182 7.80991 39.5916 9.0057 43.0868 10.9063C43.7658 11.2755 44.3874 11.6679 44.9486 12.0797ZM44.5291 12.7997C44.6223 12.8504 44.714 12.9017 44.8042 12.9534L44.7301 13.4019C43.1109 12.8109 41.1623 12.4661 39.0657 12.4661C33.4452 12.4661 28.8889 14.9437 28.8889 18C28.8889 21.0563 33.4452 23.5339 39.0657 23.5339C41.1623 23.5339 43.1109 23.1891 44.7301 22.5981L44.8042 23.0466C44.714 23.0983 44.6223 23.1496 44.5291 23.2003C41.925 24.6163 38.2826 25.5124 34.2235 25.5124C30.1643 25.5124 26.522 24.6163 23.9179 23.2003C21.289 21.7707 19.8611 19.9034 19.8611 18C19.8611 16.0966 21.289 14.2293 23.9179 12.7997C26.522 11.3837 30.1643 10.4876 34.2235 10.4876C38.2826 10.4876 41.925 11.3837 44.5291 12.7997ZM29.5479 18.1082C29.6006 19.2502 30.4851 20.4146 32.184 21.3384C33.9118 22.278 36.3436 22.8793 39.0657 22.8793C41.1496 22.8793 43.0634 22.5269 44.6214 21.94L44.391 20.5456L29.5479 18.1082ZM29.5479 17.8918C29.6006 16.7498 30.485 15.5854 32.184 14.6616C33.9118 13.722 36.3436 13.1206 39.0657 13.1206C41.1496 13.1206 43.0634 13.4731 44.6214 14.0599L44.391 15.4544L29.5479 17.8918ZM44.867 24.7788C43.9649 25.5345 42.9104 26.2433 41.7166 26.8924C37.3749 29.2534 31.332 30.7339 24.6212 30.7339C17.9105 30.7339 11.8675 29.2534 7.52578 26.8924C3.1592 24.518 0.656564 21.3453 0.656564 18C0.656565 14.6547 3.1592 11.482 7.52579 9.10758C11.8675 6.74664 17.9105 5.26612 24.6212 5.26612C31.332 5.26612 37.3749 6.74664 41.7166 9.10758C42.9103 9.75669 43.9648 10.4654 44.8668 11.2211C41.2119 8.74242 35.5964 7.15537 29.2992 7.15537C18.2849 7.15536 9.35606 12.0107 9.35606 18C9.35606 23.9893 18.2849 28.8446 29.2992 28.8446C35.5965 28.8446 41.212 27.2575 44.867 24.7788Z" fill="#3B3A3A"/>
</svg>
