<svg width="358" height="202" viewBox="0 0 358 202" fill="none" xmlns="http://www.w3.org/2000/svg">
<path d="M358 106.825C358 159.386 305.473 202 240.686 202L125.709 202C60.9218 202 8.39514 159.386 8.39514 106.825C8.39514 54.2637 60.9218 11.6496 125.709 11.6496L240.686 11.6496C305.473 11.6496 358 54.2637 358 106.825Z" fill="#96AC8B"/>
<path d="M351.605 97.1752C351.605 149.736 299.078 192.35 234.291 192.35L119.314 192.35C54.5267 192.35 2 149.736 2 97.1753C1.99999 44.6142 54.5267 2.00005 119.314 2.00005L234.291 2.00004C299.078 2.00004 351.605 44.6141 351.605 97.1752Z" stroke="white" stroke-width="2.36" stroke-miterlimit="10" stroke-linecap="round"/>
<path d="M121.489 91.34C120.831 91.3699 120.536 90.8108 120.605 89.6627L121.113 85.2156C121.189 84.7611 121.276 84.2019 121.374 83.5382C121.505 82.8383 121.629 82.0346 121.747 81.1271C121.767 80.3281 121.826 79.3019 121.922 78.0484C122.017 76.7602 122.13 75.211 122.261 73.4008L122.79 68.4323C122.927 67.8362 123.087 67.0655 123.272 66.1203C123.455 65.1404 123.663 64.0033 123.896 62.7089C124.04 61.6614 124.399 61.2808 124.972 61.567L124.591 59.6065C124.38 58.9916 124.206 58.4269 124.07 57.9126C123.932 57.3637 123.815 56.866 123.718 56.4193C123.677 56.3171 123.648 56.1275 123.631 55.8507C123.58 55.0203 123.831 54.5925 124.385 54.5673C124.662 54.5547 124.884 54.7702 125.05 55.2137C125.216 55.6572 125.387 56.17 125.562 56.7519C125.734 57.2992 125.911 57.9157 126.092 58.6015C126.359 59.5609 126.586 60.7129 126.773 62.0577C126.891 62.8503 126.984 63.5054 127.05 64.0229C127.152 64.5387 127.228 64.9343 127.28 65.2095C127.527 66.4127 127.746 67.4264 127.935 68.2505C128.123 69.04 128.3 69.6566 128.466 70.1001C129.018 71.7405 129.904 73.1575 131.123 74.3513L131.963 75.302C133.511 73.358 134.668 71.8481 135.435 70.7723C135.789 70.3051 136.204 69.7137 136.681 68.9981C137.19 68.2463 137.795 67.3514 138.495 66.3133C138.87 65.637 139.618 63.9549 140.737 61.2669L140.786 61.2127C140.855 61.2095 140.992 60.891 141.196 60.2572C141.424 59.4488 141.668 58.8999 141.928 58.6105L141.769 58.5656C142.133 58.2715 142.436 58.119 142.679 58.1079C143.094 58.0891 143.601 58.7079 144.199 59.9646C144.474 60.4726 144.633 61.0899 144.678 61.8165C144.693 62.0587 144.676 62.3544 144.628 62.7036C144.615 63.0512 144.586 63.4341 144.543 63.8525C144.499 64.2709 144.451 64.62 144.399 64.9C144.381 65.1784 144.377 65.3868 144.385 65.5252L144.388 65.5771C144.418 66.0615 144.432 66.8589 144.431 67.9693C144.43 69.0797 144.413 70.5031 144.381 72.2394C144.331 72.554 144.291 73.3191 144.262 74.5349C144.232 75.7507 144.231 77.4163 144.256 79.5317C144.262 80.1907 144.265 80.7978 144.264 81.353C144.296 81.872 144.326 82.3564 144.354 82.8062C144.381 83.256 144.405 83.6366 144.424 83.9481C144.477 84.2579 144.528 84.5158 144.575 84.7219L145.073 86.8852C145.114 86.9875 145.14 87.1251 145.151 87.2981C145.193 87.9901 144.833 88.3534 144.072 88.3881C143.795 88.4006 143.615 88.3047 143.533 88.1002C143.447 87.8266 143.356 87.4837 143.261 87.0717C143.167 86.6596 143.066 86.161 142.961 85.5759C142.725 83.4354 142.572 81.7942 142.502 80.6523C142.468 80.0987 142.459 79.1102 142.476 77.6868C142.493 76.2635 142.569 74.4036 142.706 72.1073C142.702 71.4829 142.686 70.6509 142.657 69.6113C142.66 68.5355 142.668 67.2514 142.68 65.7588L142.831 61.432C142.792 61.3644 142.754 61.3141 142.718 61.281C142.681 61.248 142.644 61.215 142.607 61.182C142.538 61.1851 142.412 61.6766 142.229 62.6565L142.177 62.6588C141.78 63.5443 141.366 64.4306 140.934 65.3177C140.535 66.1685 140.119 67.0202 139.685 67.8727C138.971 69.2583 137.906 70.8508 136.488 72.6501L134.281 75.7171C133.253 77.0824 132.532 77.7744 132.116 77.7933C131.701 77.8122 131.309 77.6565 130.942 77.3262L130.225 76.6822L130.001 76.4321C128.847 75.166 127.908 73.734 127.185 72.1361C127.02 71.7272 126.854 71.2837 126.686 70.8055C126.55 70.2912 126.431 69.7588 126.327 69.2084C126.125 68.1766 125.923 67.1449 125.72 66.1131C125.516 65.0468 125.408 64.4271 125.398 64.2541C125.287 64.7102 125.168 65.3228 125.042 66.0919C124.95 66.8594 124.815 67.7677 124.636 68.8168C124.571 69.4443 124.464 70.2473 124.316 71.2255C124.239 71.6801 124.179 72.1165 124.136 72.5349C124.09 72.9186 124.041 73.2505 123.988 73.5305L123.885 73.5352C123.864 74.3342 123.808 75.395 123.716 76.7177C123.658 78.0389 123.564 79.6219 123.435 81.4668C123.358 81.9213 123.255 82.4985 123.124 83.1984C123.028 83.8968 122.924 84.7343 122.81 85.711C122.725 86.5823 122.554 88.0474 122.299 90.1062L122.247 90.1085C122.192 90.9091 121.939 91.3196 121.489 91.34ZM162.763 88.4234C162.59 88.4313 162.43 88.3692 162.283 88.2371C161.288 87.3107 160.716 85.9141 160.566 84.0472C160.558 83.9088 160.566 83.7523 160.59 83.5777C160.611 83.3686 160.615 83.1429 160.6 82.9007L160.585 81.8084L160.575 81.6526C160.537 81.0298 160.298 80.8151 159.859 81.0086C159.196 81.5245 158.304 82.2763 157.184 83.2641C156.097 84.2156 154.78 85.3858 153.233 86.7746C152.581 87.4635 151.718 87.8324 150.644 87.8812C150.021 87.9095 149.464 87.6052 148.973 86.9682C148.515 86.2951 148.319 85.6447 148.384 85.0172C148.433 84.1128 148.737 83.1275 149.297 82.0611C149.854 80.9601 150.551 79.8702 151.388 78.7912C152.257 77.6761 153.186 76.697 154.176 75.8539C155.199 74.9747 156.184 74.3401 157.133 73.95C157.505 73.7943 157.862 73.674 158.204 73.589C158.546 73.5041 158.891 73.4537 159.237 73.438C160.726 73.3703 161.503 73.8555 161.566 74.8935C161.588 75.2396 161.46 75.4189 161.183 75.4315C161.079 75.4362 160.975 75.4409 160.871 75.4456C160.765 75.4157 160.658 75.3686 160.55 75.3041C159.895 74.8134 159.307 74.5798 158.788 74.6034C158.268 74.6271 157.525 74.9731 156.559 75.6416C155.793 76.1622 155.051 76.8031 154.334 77.5644C153.616 78.3256 152.939 79.1718 152.302 80.1029C151.697 80.9978 151.225 81.8 150.887 82.5093C150.546 83.184 150.358 83.7825 150.32 84.3047C150.294 84.4446 150.287 84.6184 150.3 84.826C150.334 85.3797 150.576 85.6462 151.026 85.6258C151.581 85.6006 152.589 85.0517 154.051 83.979C157.538 81.3916 159.934 79.1315 161.239 77.1985C161.558 76.7329 161.832 76.1132 162.063 75.3394C162.206 74.8471 162.555 74.5884 163.109 74.5632C163.732 74.5349 164.065 74.8667 164.108 75.5588C164.142 76.1124 163.925 76.8162 163.456 77.6703C162.78 80.2339 162.472 82.0002 162.532 82.969C162.692 84.4537 163.129 85.6309 163.843 86.5007C163.953 86.5998 164.013 86.7358 164.024 86.9088C164.043 87.2202 163.907 87.5387 163.614 87.8643C163.324 88.2245 163.04 88.4109 162.763 88.4234ZM169.048 87.1489C168.529 87.1725 168.31 86.7141 168.391 85.7735C168.42 84.5578 168.502 83.062 168.636 81.2864C168.802 79.4745 169.003 77.3835 169.24 75.0133C169.381 74.4864 169.642 74.2143 170.023 74.197C170.508 74.1749 170.764 74.3888 170.792 74.8386C170.794 74.8732 170.798 74.9424 170.805 75.0462C170.809 75.1155 170.797 75.2027 170.769 75.3081C170.718 75.6227 170.67 75.9718 170.625 76.3556C170.611 76.7032 170.617 77.0846 170.643 77.4998C170.673 77.9842 170.722 78.5025 170.79 79.0545C170.894 79.605 171.034 80.1885 171.211 80.805C171.418 80.7956 172.221 80.0131 173.619 78.4576C175.021 76.9712 176.181 76.0684 177.099 75.7491L177.096 75.6972C177.197 75.6579 177.3 75.6359 177.404 75.6311C177.508 75.6264 177.594 75.6225 177.664 75.6193C178.322 75.5894 178.774 75.8812 179.02 76.4946L180.044 81.2884C180.485 83.3849 181.122 84.4143 181.953 84.3765C182.299 84.3608 182.638 84.2239 182.969 83.966C183.433 83.5979 183.878 83.2134 184.305 82.8123C184.73 82.3766 185.101 81.926 185.42 81.4605C185.623 81.3818 185.76 81.3409 185.829 81.3378C186.071 81.3268 186.202 81.477 186.221 81.7884C186.234 81.996 186.113 82.2791 185.857 82.6377C185.441 83.2118 185.008 83.8039 184.56 84.4142C184.109 84.9898 183.651 85.4444 183.185 85.7778C182.55 86.1884 182.008 86.4038 181.558 86.4243C180.623 86.4668 179.866 85.7378 179.287 84.2374L178.146 80.0735C177.747 78.669 177.309 78.0469 176.833 78.2074C176.798 78.209 176.747 78.2113 176.677 78.2145C176.64 78.1814 176.587 78.1665 176.518 78.1696C176.38 78.1759 176.209 78.2184 176.005 78.2971C175.836 78.3741 175.671 78.5031 175.508 78.684L174.341 80.0382C173.336 81.1942 172.501 82.3078 171.838 83.3789C171.174 84.45 170.645 85.4455 170.25 86.3656C170.003 86.8626 169.602 87.1237 169.048 87.1489ZM189.781 87.3518C188.673 87.4021 187.711 87.0121 186.896 86.1817C186.155 85.4173 185.753 84.5334 185.692 83.53C185.577 81.6615 186.303 79.6334 187.87 77.4456C188.507 76.5145 189.203 75.6848 189.957 74.9566C190.711 74.2284 191.504 73.5678 192.335 72.9748C192.502 72.8631 192.741 72.8002 193.053 72.7861C194.057 72.7404 194.574 72.9598 194.604 73.4442C194.613 73.5826 194.518 73.7431 194.321 73.9255L194.324 73.9774C194.889 74.6804 195.455 75.4181 196.023 76.1903C196.592 76.9625 196.909 77.8849 196.975 78.9576C197.03 79.8572 196.844 80.7852 196.417 81.7414C196.024 82.6961 195.455 83.6068 194.709 84.4734C193.996 85.3039 193.205 85.9818 192.334 86.5071C191.463 87.0324 190.612 87.314 189.781 87.3518ZM189.734 85.7404C190.598 85.6665 191.494 85.2788 192.424 84.5773C193.351 83.8412 194.131 82.973 194.764 81.9727C195.432 80.9708 195.756 80.0365 195.738 79.1699C195.724 77.8173 194.938 76.3264 193.379 74.697C191.956 75.8373 190.717 77.1601 189.664 78.6652C188.422 80.4913 187.844 82.1136 187.932 83.5323C188.025 85.0548 188.626 85.7908 189.734 85.7404ZM200.348 85.7265C199.828 85.7501 199.609 85.2917 199.69 84.3512C199.72 83.1354 199.801 81.6397 199.935 79.864C200.102 78.0521 200.303 75.9611 200.539 73.5909C200.681 73.064 200.942 72.7919 201.323 72.7746C201.808 72.7525 202.064 72.9664 202.091 73.4163C202.094 73.4509 202.098 73.5201 202.104 73.6239C202.108 73.6931 202.096 73.7804 202.068 73.8857C202.018 74.2003 201.97 74.5495 201.924 74.9332C201.911 75.2808 201.917 75.6622 201.943 76.0774C201.972 76.5618 202.022 77.0801 202.09 77.6321C202.193 78.1826 202.334 78.7661 202.51 79.3826C202.718 79.3732 203.521 78.5907 204.919 77.0352C206.32 75.5488 207.48 74.646 208.398 74.3267L208.395 74.2748C208.497 74.2355 208.6 74.2135 208.704 74.2088C208.808 74.204 208.894 74.2001 208.963 74.1969C209.621 74.167 210.073 74.4588 210.32 75.0722L211.344 79.866C211.785 81.9625 212.421 82.9919 213.252 82.9541C213.599 82.9384 213.938 82.8015 214.269 82.5436C214.733 82.1756 215.178 81.791 215.605 81.3899C216.029 80.9542 216.401 80.5036 216.72 80.0381C216.923 79.9594 217.059 79.9185 217.129 79.9154C217.371 79.9044 217.502 80.0546 217.521 80.366C217.534 80.5736 217.412 80.8567 217.157 81.2153C216.74 81.7894 216.308 82.3815 215.859 82.9918C215.409 83.5675 214.95 84.022 214.485 84.3555C213.85 84.766 213.308 84.9815 212.857 85.0019C211.922 85.0444 211.166 84.3154 210.587 82.815L209.446 78.6511C209.047 77.2466 208.609 76.6246 208.133 76.785C208.098 76.7866 208.046 76.7889 207.977 76.7921C207.94 76.7591 207.887 76.7441 207.818 76.7473C207.679 76.7536 207.508 76.796 207.305 76.8747C207.136 76.9517 206.97 77.0807 206.808 77.2616L205.641 78.6158C204.635 79.7718 203.801 80.8854 203.137 81.9565C202.474 83.0276 201.945 84.0232 201.55 84.9433C201.303 85.4403 200.902 85.7014 200.348 85.7265ZM219.354 63.3674C219.042 63.3816 218.876 63.2157 218.854 62.8696C218.837 62.5928 218.938 62.2586 219.157 61.867C219.411 61.4738 219.628 61.0475 219.808 60.5883C219.988 60.129 220.139 59.7578 220.26 59.4747C220.402 58.9478 220.45 58.3211 220.405 57.5945C220.057 57.5756 219.739 57.486 219.451 57.3255C219.198 57.1636 219.058 56.8576 219.03 56.4078L219.024 56.304C219.009 56.0618 219.064 55.8338 219.19 55.6199C219.348 55.3698 219.493 55.1897 219.626 55.0796C219.898 54.9978 220.087 54.9545 220.191 54.9498C220.675 54.9278 221.065 55.0489 221.359 55.3131C221.688 55.5757 221.869 55.9839 221.903 56.5375C221.943 57.1949 221.939 57.6809 221.888 57.9955C221.873 58.3085 221.824 58.6403 221.741 58.9911C221.639 59.5856 221.452 60.2186 221.181 60.8902C220.944 61.5602 220.668 62.1453 220.351 62.6455C220.067 63.1095 219.735 63.3501 219.354 63.3674ZM226.374 86.0532C225.508 86.0925 224.754 85.9707 224.111 85.6876C223.504 85.4029 223.183 84.9838 223.149 84.4301C223.125 84.0495 223.287 83.8514 223.633 83.8356C223.598 83.8372 223.883 83.9457 224.486 84.1612C225.088 84.342 225.718 84.4175 226.376 84.3876C228.384 84.2963 229.591 83.3046 229.995 81.4126C230.154 80.6073 229.346 79.3255 227.571 77.5671C226.315 76.3404 225.637 74.9139 225.537 73.2876C225.503 72.734 225.706 72.0829 226.146 71.3342C226.584 70.551 227.132 69.8668 227.791 69.2817C228.448 68.662 229.087 68.338 229.711 68.3096C230.819 68.2593 231.459 68.5078 231.632 69.0551C231.673 69.1573 231.697 69.2603 231.703 69.3641C231.744 69.4664 231.768 69.5694 231.774 69.6732C231.808 70.2268 231.617 70.5131 231.202 70.532C230.959 70.543 230.764 70.4651 230.614 70.2984C230.431 70.1333 230.183 70.0578 229.871 70.0719C229.802 70.0751 229.715 70.079 229.611 70.0838C229.508 70.0885 229.423 70.127 229.358 70.1994C228.15 70.8788 227.493 71.7761 227.388 72.8912C227.309 73.8664 228.136 75.182 229.87 76.8381C231.421 78.3291 232.237 79.7493 232.32 81.0987C232.412 82.5866 231.723 83.8149 230.255 84.7838C229.122 85.564 227.828 85.9871 226.374 86.0532ZM51.405 155.511C50.8956 155.534 50.6307 155.381 50.6105 155.052C50.6013 154.902 50.5715 154.663 50.5213 154.335C50.4711 154.007 50.4013 153.605 50.3119 153.129C50.2562 152.711 50.2023 152.323 50.1502 151.965C50.1 151.637 50.0834 151.367 50.1005 151.156C50.0952 149.115 50.2748 146.659 50.6394 143.79C51.0058 140.951 51.5871 137.697 52.3833 134.027C52.1717 134.007 52.0585 133.877 52.0438 133.637C51.8847 133.494 51.796 133.273 51.7776 132.974C51.7518 132.555 51.8478 132.16 52.0654 131.79C52.3112 131.388 52.5579 131.002 52.8056 130.63L53.2476 129.754L53.6427 128.115C53.8156 127.506 53.9314 126.946 53.9901 126.432C54.0468 125.889 54.0773 125.408 54.0815 124.987C54.0875 124.596 54.2854 124.392 54.675 124.374C55.1245 124.354 55.3603 124.523 55.3824 124.883C55.41 125.332 55.3927 125.783 55.3304 126.236C55.2681 126.69 55.1767 127.159 55.0563 127.645C56.9349 125.938 58.8482 125.041 60.7962 124.952C61.6952 124.911 62.4075 125.254 62.9331 125.981C63.3894 126.561 63.6397 127.21 63.6839 127.929C63.8072 129.935 62.9674 132.405 61.1643 135.34C59.2542 138.489 57.3252 140.108 55.3772 140.197C54.5081 140.236 54.0423 139.747 53.9797 138.729C53.9447 138.16 54.122 137.867 54.5116 137.849C54.6914 137.841 54.9535 137.949 55.2979 138.174C55.4496 138.197 55.6004 138.205 55.7502 138.198C55.9019 138.221 56.0545 138.259 56.208 138.312C57.6465 138.247 59.0836 136.936 60.5191 134.378C61.8703 131.915 62.4907 129.784 62.3803 127.988C62.3545 127.569 62.1498 127.173 61.7663 126.8C61.4108 126.395 61.0383 126.202 60.6487 126.22C58.0695 126.307 56.052 127.465 54.5962 129.693L54.125 131.561C52.6254 137.965 52.056 144.101 52.4168 149.97L52.5209 152.398L52.6168 154.69C52.6481 155.199 52.2442 155.473 51.405 155.511ZM66.8978 136.881C66.5981 136.894 66.3821 136.559 66.2499 135.874C66.1158 135.16 66.0258 134.428 65.9797 133.68C65.9503 133.2 65.9236 132.766 65.8997 132.377C65.9039 131.956 65.8995 131.641 65.8866 131.432C65.8682 131.132 65.8602 130.757 65.8626 130.307C65.8631 129.826 65.8749 129.285 65.898 128.684C65.9124 127.452 65.9003 126.522 65.8617 125.893C65.8433 125.593 65.8108 125.31 65.7642 125.042C65.7159 124.743 65.6843 124.475 65.6696 124.235L65.6585 124.055C65.6365 123.696 65.8202 123.508 66.2098 123.49C66.5095 123.476 66.6854 123.648 66.7374 124.006C66.8176 124.333 66.904 125.005 66.9966 126.021C67.0891 127.038 67.2019 128.384 67.335 130.06C67.3626 130.509 67.4663 130.729 67.6461 130.721C67.8559 130.712 68.1494 130.353 68.5266 129.645C69.3074 128.169 70.1768 126.913 71.135 125.878C71.8419 125.156 72.5101 124.78 73.1394 124.751C73.8886 124.717 74.5532 125.017 75.1332 125.652C75.3259 125.853 75.4296 126.074 75.4443 126.313C75.4682 126.702 75.3154 126.905 74.9857 126.92C74.8658 126.925 74.7282 126.886 74.5728 126.803L74.5306 126.85C73.9355 126.457 73.548 126.264 73.3681 126.272C72.6489 126.305 71.9985 126.725 71.417 127.532C69.395 130.326 68.2139 133.113 67.8738 135.891C67.7925 136.525 67.4672 136.855 66.8978 136.881ZM78.3216 137.353C77.3626 137.396 76.5304 137.059 75.8251 136.34C75.1834 135.679 74.8358 134.914 74.7824 134.045C74.683 132.428 75.3114 130.673 76.6676 128.78C77.2191 127.974 77.8211 127.256 78.4736 126.626C79.1261 125.996 79.8122 125.424 80.532 124.911C80.6763 124.814 80.8833 124.76 81.153 124.748C82.0222 124.708 82.4696 124.898 82.4954 125.317C82.5027 125.437 82.4211 125.576 82.2505 125.734L82.2533 125.779C82.7414 126.387 83.2315 127.025 83.7234 127.694C84.2152 128.362 84.4897 129.16 84.5468 130.088C84.5946 130.867 84.4336 131.67 84.0638 132.497C83.7239 133.324 83.2314 134.112 82.5863 134.862C81.9693 135.58 81.2841 136.167 80.5307 136.622C79.7772 137.076 79.0409 137.32 78.3216 137.353ZM78.281 135.958C79.0284 135.894 79.8041 135.559 80.6083 134.952C81.4106 134.315 82.0857 133.563 82.6335 132.698C83.2113 131.831 83.4922 131.022 83.4762 130.272C83.4643 129.102 82.7839 127.811 81.435 126.401C80.2034 127.388 79.1318 128.533 78.2201 129.835C77.1452 131.416 76.6455 132.82 76.721 134.047C76.802 135.365 77.322 136.002 78.281 135.958ZM91.5997 140.127C91.3899 140.137 91.1559 139.997 90.8978 139.709C90.6696 139.419 90.4686 139.083 90.2948 138.7C90.151 138.316 90.0717 138.005 90.057 137.765C90.0452 136.595 90.2339 135.265 90.6232 133.776C90.7473 133.35 90.961 133.16 91.2644 133.206C91.293 132.694 91.3134 132.048 91.3254 131.267C91.3675 130.484 91.4172 129.581 91.4744 128.557C91.2988 128.145 90.9713 127.95 90.4918 127.971C90.3719 127.977 89.9269 128.072 89.157 128.257C88.4169 128.441 87.3219 128.716 85.8718 129.082C85.8418 129.084 85.8128 129.1 85.7847 129.131C85.7547 129.133 85.7088 129.12 85.647 129.092C85.3473 129.106 85.1865 128.933 85.1644 128.574C85.1386 128.155 85.315 127.846 85.6935 127.649L85.6513 127.696C86.088 127.466 87.1625 127.102 88.875 126.604C90.1434 126.216 91.1516 125.75 91.8995 125.205L92.0284 122.902C92.0801 121.789 92.205 120.642 92.4029 119.462C92.599 118.252 92.899 117.022 93.3031 115.773C94.1282 113.063 95.1654 110.869 96.4146 109.191C97.4724 107.821 98.5707 107.111 99.7096 107.059C100.699 107.014 101.596 107.439 102.402 108.333C102.53 108.447 102.598 108.579 102.607 108.729C102.627 109.058 102.458 109.231 102.098 109.248C101.888 109.257 101.703 109.175 101.542 109.003C101.028 108.456 100.486 108.195 99.9162 108.221C98.5676 108.282 97.2352 109.829 95.919 112.861C95.3933 114.086 94.9562 115.533 94.6079 117.2C94.2578 118.837 94.0255 120.679 93.9109 122.727L93.9129 123.492L93.8975 124.709C94.7832 124.939 95.7505 125.03 96.7994 124.982L99.6709 124.762C100.572 124.751 101.04 125.03 101.075 125.599C101.106 126.108 100.882 126.373 100.402 126.395L96.896 126.554C95.6429 126.701 94.5552 127.096 93.633 127.739C93.161 134.726 92.6407 138.729 92.0721 139.745C91.937 139.992 91.7795 140.119 91.5997 140.127ZM105.592 136.383C104.273 136.443 103.17 136.088 102.281 135.318C101.422 134.546 100.95 133.472 100.865 132.094C100.847 131.795 100.844 131.495 100.855 131.194C100.897 130.892 100.938 130.59 100.98 130.287C101.23 128.985 102.06 127.566 103.468 126.031C105.049 124.367 106.453 123.508 107.682 123.452C108.701 123.406 109.216 123.953 109.226 125.093C109.286 126.562 108.565 128.036 107.063 129.515C106.409 130.116 105.722 130.672 105.002 131.186C104.312 131.697 103.563 131.972 102.754 132.008L102.709 132.01C102.918 133.953 103.982 134.88 105.9 134.793C106.529 134.764 107.224 134.583 107.985 134.248C108.043 134.215 108.132 134.196 108.252 134.191C108.642 134.173 108.848 134.359 108.872 134.748C108.889 135.018 108.767 135.233 108.506 135.395C107.702 136.002 106.731 136.332 105.592 136.383ZM103.793 129.844C104.709 129.592 105.479 129.167 106.103 128.568C107.211 127.527 107.738 126.557 107.683 125.659L107.677 125.569C107.664 125.359 107.579 125.198 107.422 125.085C107.265 124.972 107.158 124.947 107.102 125.01C106.173 125.052 105.225 125.771 104.259 127.166C104.122 127.382 103.96 127.675 103.772 128.044C103.582 128.383 103.383 128.797 103.172 129.287C103.146 129.348 103.135 129.409 103.138 129.469C103.155 129.738 103.373 129.863 103.793 129.844ZM112.578 136.111C111.829 136.145 111.177 136.04 110.621 135.795C110.095 135.548 109.817 135.186 109.787 134.707C109.767 134.377 109.907 134.206 110.206 134.192C110.176 134.193 110.423 134.287 110.945 134.474C111.466 134.63 112.011 134.696 112.58 134.67C114.318 134.591 115.362 133.733 115.712 132.095C115.85 131.398 115.151 130.289 113.615 128.767C112.527 127.706 111.941 126.471 111.854 125.064C111.825 124.585 112 124.021 112.381 123.373C112.76 122.696 113.235 122.104 113.805 121.597C114.373 121.061 114.927 120.781 115.466 120.756C116.425 120.712 116.979 120.928 117.129 121.401C117.164 121.49 117.185 121.579 117.19 121.669C117.226 121.757 117.246 121.846 117.252 121.936C117.281 122.415 117.116 122.663 116.756 122.679C116.547 122.689 116.377 122.621 116.248 122.477C116.089 122.334 115.875 122.269 115.605 122.281C115.545 122.284 115.47 122.287 115.38 122.291C115.29 122.295 115.217 122.329 115.161 122.391C114.115 122.979 113.547 123.756 113.456 124.721C113.388 125.565 114.104 126.703 115.604 128.136C116.946 129.427 117.653 130.656 117.724 131.824C117.803 133.111 117.208 134.174 115.937 135.013C114.957 135.688 113.837 136.054 112.578 136.111ZM121.271 135.716C120.521 135.75 119.869 135.645 119.313 135.4C118.787 135.153 118.509 134.791 118.48 134.311C118.459 133.982 118.599 133.811 118.899 133.797C118.869 133.798 119.115 133.892 119.637 134.079C120.158 134.235 120.703 134.301 121.272 134.275C123.01 134.196 124.055 133.337 124.405 131.7C124.542 131.003 123.843 129.894 122.307 128.372C121.22 127.311 120.633 126.076 120.546 124.669C120.517 124.19 120.693 123.626 121.074 122.978C121.453 122.301 121.927 121.709 122.497 121.202C123.065 120.666 123.619 120.386 124.158 120.361C125.117 120.317 125.672 120.533 125.821 121.006C125.856 121.095 125.877 121.184 125.882 121.274C125.918 121.362 125.938 121.451 125.944 121.541C125.973 122.02 125.808 122.268 125.449 122.284C125.239 122.294 125.069 122.226 124.94 122.082C124.781 121.939 124.567 121.874 124.297 121.886C124.237 121.889 124.162 121.892 124.072 121.896C123.983 121.9 123.909 121.934 123.853 121.996C122.807 122.584 122.239 123.361 122.148 124.326C122.08 125.17 122.796 126.308 124.297 127.741C125.638 129.032 126.345 130.261 126.417 131.429C126.496 132.716 125.9 133.779 124.629 134.618C123.649 135.293 122.529 135.659 121.271 135.716ZM130.382 119.403C129.932 119.423 129.706 119.163 129.703 118.623L130.047 116.896C130.117 116.562 130.317 116.388 130.646 116.373C131.335 116.342 131.638 116.613 131.553 117.187C131.549 117.608 131.472 118.077 131.324 118.594C131.175 119.111 130.861 119.381 130.382 119.403ZM129.678 133.622C129.408 133.635 129.221 133.523 129.117 133.288C128.976 132.964 128.877 132.563 128.817 132.085C128.758 131.607 128.725 131.068 128.718 130.468C128.735 129.777 128.847 128.901 129.052 127.841C129.287 126.779 129.617 125.548 130.042 124.147C130.144 123.842 130.344 123.683 130.644 123.67C131.213 123.644 131.424 123.889 131.275 124.407C131.179 124.801 131.098 125.195 131.032 125.589C130.966 125.982 130.9 126.375 130.834 126.769C130.727 127.464 130.645 128.084 130.588 128.627C130.531 129.17 130.516 129.651 130.542 130.07C130.632 131.537 130.694 132.3 130.727 132.359C130.836 132.654 130.763 132.943 130.51 133.224C130.255 133.476 129.978 133.609 129.678 133.622ZM137.85 134.647C136.891 134.691 136.059 134.353 135.354 133.635C134.712 132.973 134.364 132.208 134.311 131.34C134.211 129.723 134.84 127.968 136.196 126.075C136.748 125.269 137.35 124.551 138.002 123.921C138.654 123.291 139.341 122.719 140.06 122.206C140.205 122.109 140.412 122.055 140.681 122.042C141.551 122.003 141.998 122.193 142.024 122.612C142.031 122.732 141.95 122.871 141.779 123.028L141.782 123.073C142.27 123.682 142.76 124.32 143.252 124.988C143.744 125.657 144.018 126.455 144.075 127.383C144.123 128.162 143.962 128.965 143.592 129.792C143.252 130.618 142.76 131.406 142.115 132.156C141.498 132.875 140.812 133.462 140.059 133.916C139.306 134.371 138.569 134.615 137.85 134.647ZM137.809 133.253C138.557 133.189 139.333 132.853 140.137 132.246C140.939 131.609 141.614 130.858 142.162 129.992C142.74 129.125 143.021 128.317 143.005 127.567C142.993 126.396 142.312 125.106 140.963 123.696C139.732 124.683 138.66 125.828 137.749 127.13C136.674 128.71 136.174 130.114 136.249 131.342C136.33 132.66 136.85 133.296 137.809 133.253ZM146.994 133.241C146.545 133.261 146.355 132.865 146.425 132.051C146.451 130.999 146.521 129.704 146.637 128.167C146.781 126.6 146.956 124.79 147.16 122.739C147.282 122.283 147.508 122.047 147.838 122.032C148.257 122.013 148.479 122.198 148.503 122.588C148.505 122.618 148.509 122.678 148.514 122.767C148.518 122.827 148.507 122.903 148.483 122.994C148.44 123.266 148.398 123.568 148.358 123.9C148.347 124.201 148.352 124.531 148.374 124.891C148.4 125.31 148.443 125.758 148.502 126.236C148.591 126.712 148.713 127.217 148.866 127.751C149.045 127.743 149.74 127.066 150.95 125.719C152.163 124.433 153.167 123.652 153.961 123.376L153.958 123.331C154.046 123.297 154.135 123.278 154.225 123.274C154.315 123.269 154.39 123.266 154.45 123.263C155.019 123.237 155.411 123.49 155.624 124.021L156.51 128.169C156.892 129.984 157.442 130.874 158.162 130.842C158.461 130.828 158.755 130.71 159.041 130.486C159.443 130.168 159.828 129.835 160.197 129.488C160.565 129.111 160.886 128.721 161.162 128.318C161.338 128.25 161.456 128.215 161.516 128.212C161.726 128.202 161.839 128.332 161.856 128.602C161.867 128.782 161.762 129.027 161.54 129.337C161.18 129.834 160.806 130.346 160.418 130.874C160.027 131.372 159.631 131.766 159.228 132.054C158.679 132.41 158.209 132.596 157.82 132.614C157.011 132.651 156.356 132.02 155.855 130.721L154.867 127.118C154.522 125.902 154.143 125.364 153.731 125.503C153.701 125.504 153.656 125.506 153.596 125.509C153.565 125.481 153.519 125.468 153.459 125.47C153.339 125.476 153.191 125.513 153.015 125.581C152.869 125.647 152.725 125.759 152.585 125.915L151.575 127.087C150.705 128.088 149.982 129.051 149.408 129.978C148.834 130.905 148.376 131.767 148.034 132.563C147.82 132.993 147.474 133.219 146.994 133.241ZM173.514 132.891C173.364 132.898 173.226 132.845 173.099 132.73C172.238 131.929 171.743 130.72 171.613 129.104C171.606 128.985 171.613 128.849 171.634 128.698C171.652 128.517 171.655 128.322 171.643 128.112L171.63 127.167L171.621 127.032C171.588 126.493 171.381 126.307 171.001 126.475C170.427 126.921 169.656 127.572 168.687 128.427C167.746 129.25 166.606 130.263 165.267 131.465C164.703 132.061 163.956 132.38 163.027 132.422C162.488 132.447 162.006 132.183 161.581 131.632C161.185 131.05 161.015 130.487 161.071 129.944C161.113 129.161 161.377 128.308 161.861 127.386C162.343 126.433 162.946 125.49 163.67 124.556C164.422 123.591 165.227 122.744 166.084 122.014C166.968 121.253 167.821 120.704 168.642 120.366C168.964 120.232 169.273 120.127 169.569 120.054C169.865 119.98 170.163 119.937 170.463 119.923C171.752 119.865 172.424 120.285 172.479 121.183C172.497 121.482 172.387 121.638 172.147 121.648C172.057 121.652 171.967 121.657 171.877 121.661C171.785 121.635 171.693 121.594 171.599 121.538C171.032 121.114 170.524 120.911 170.074 120.932C169.625 120.952 168.982 121.252 168.146 121.83C167.482 122.281 166.84 122.835 166.22 123.494C165.599 124.153 165.013 124.885 164.461 125.691C163.938 126.465 163.53 127.16 163.237 127.773C162.942 128.357 162.779 128.875 162.747 129.327C162.724 129.448 162.718 129.599 162.729 129.778C162.759 130.257 162.968 130.488 163.358 130.47C163.837 130.449 164.71 129.974 165.975 129.045C168.993 126.806 171.066 124.85 172.196 123.178C172.472 122.775 172.709 122.238 172.908 121.569C173.032 121.143 173.334 120.919 173.814 120.897C174.353 120.873 174.641 121.16 174.678 121.759C174.707 122.238 174.52 122.847 174.114 123.586C173.529 125.804 173.263 127.333 173.314 128.171C173.453 129.456 173.831 130.475 174.449 131.228C174.544 131.313 174.596 131.431 174.606 131.581C174.622 131.85 174.504 132.126 174.251 132.408C173.999 132.719 173.754 132.881 173.514 132.891ZM181.408 135.055C180.391 135.131 179.537 134.434 178.845 132.964C178.184 131.493 177.761 129.26 177.577 126.266C177.472 124.559 177.49 122.652 177.631 120.543C177.8 118.404 178.091 116.048 178.504 113.477C179.556 106.643 181.117 103.179 183.184 103.085C183.994 103.049 184.623 103.756 185.073 105.207C185.411 106.302 185.562 107.301 185.528 108.204C185.406 111.122 183.928 115.183 181.092 120.386C180.897 120.635 180.662 120.961 180.386 121.364C180.14 121.766 179.839 122.245 179.483 122.801C179.465 123.493 179.447 124.169 179.427 124.831C179.438 125.491 179.461 126.12 179.498 126.719C179.565 127.797 179.723 128.901 179.972 130.031C180.411 131.782 180.959 132.643 181.619 132.613C182.248 132.585 182.853 132.152 183.432 131.315L184.606 129.144C184.741 128.898 184.929 128.769 185.168 128.759C185.468 128.745 185.627 128.888 185.646 129.187C185.649 129.247 185.638 129.308 185.612 129.369C185.615 129.429 185.604 129.489 185.578 129.551C185.294 130.314 185.034 130.972 184.797 131.523C184.589 132.043 184.389 132.457 184.198 132.766C183.357 134.246 182.427 135.009 181.408 135.055ZM183.278 105.333C181.265 106.326 180.025 111.336 179.559 120.366C179.643 120.272 179.767 120.086 179.93 119.808C182.966 114.926 184.397 111.078 184.224 108.263C184.211 108.053 184.182 107.829 184.138 107.591C184.091 107.323 184.028 107.026 183.948 106.699C183.718 105.899 183.495 105.444 183.278 105.333ZM205.605 131.433C205.455 131.44 205.317 131.386 205.189 131.272C204.329 130.47 203.834 129.262 203.704 127.646C203.697 127.526 203.704 127.391 203.724 127.24C203.743 127.059 203.746 126.863 203.734 126.654L203.72 125.709L203.712 125.574C203.679 125.035 203.472 124.849 203.092 125.016C202.518 125.463 201.747 126.114 200.778 126.968C199.836 127.792 198.697 128.804 197.358 130.006C196.794 130.602 196.047 130.922 195.118 130.964C194.578 130.988 194.096 130.725 193.672 130.174C193.275 129.591 193.106 129.028 193.162 128.485C193.204 127.703 193.468 126.85 193.952 125.927C194.434 124.974 195.037 124.031 195.761 123.098C196.513 122.133 197.318 121.285 198.175 120.556C199.059 119.795 199.912 119.246 200.733 118.908C201.055 118.773 201.364 118.669 201.66 118.596C201.956 118.522 202.254 118.479 202.554 118.465C203.843 118.406 204.515 118.826 204.57 119.725C204.588 120.024 204.477 120.179 204.238 120.19C204.148 120.194 204.058 120.198 203.968 120.202C203.876 120.176 203.784 120.136 203.69 120.08C203.123 119.655 202.615 119.453 202.165 119.474C201.716 119.494 201.073 119.793 200.237 120.372C199.573 120.822 198.931 121.377 198.311 122.036C197.69 122.695 197.104 123.427 196.552 124.233C196.029 125.007 195.621 125.701 195.328 126.315C195.033 126.899 194.87 127.417 194.837 127.869C194.815 127.99 194.809 128.14 194.82 128.32C194.85 128.799 195.059 129.03 195.449 129.012C195.928 128.99 196.801 128.515 198.066 127.587C201.084 125.348 203.157 123.392 204.287 121.719C204.562 121.316 204.8 120.78 204.999 120.11C205.123 119.684 205.425 119.46 205.905 119.439C206.444 119.414 206.732 119.701 206.769 120.3C206.798 120.779 206.61 121.388 206.205 122.127C205.62 124.346 205.354 125.875 205.405 126.713C205.544 127.998 205.922 129.017 206.54 129.769C206.635 129.855 206.687 129.973 206.697 130.122C206.713 130.392 206.595 130.668 206.342 130.949C206.09 131.261 205.845 131.422 205.605 131.433ZM220.123 134.287C219.284 134.325 218.743 133.343 218.5 131.343L218.48 128.821C218.492 127.56 218.386 126.799 218.159 126.539C215.071 129.592 212.898 131.147 211.639 131.204C210.35 131.263 209.653 130.423 209.546 128.687C209.469 127.429 209.787 126.003 210.5 124.41C211.187 122.877 211.93 121.762 212.729 121.065C213.842 120.114 214.804 119.62 215.613 119.583C216.242 119.554 216.881 119.676 217.528 119.946C217.59 119.974 217.653 120.016 217.717 120.073C217.81 120.129 217.904 120.185 217.997 120.24C218.216 120.381 218.341 120.45 218.371 120.449C218.461 120.445 218.5 120.353 218.489 120.173C218.517 118.67 218.595 117 218.722 115.163C218.878 113.294 219.083 111.258 219.338 109.054C219.444 108.329 219.603 107.496 219.816 106.555C220.058 105.614 220.355 104.579 220.707 103.452C221.113 102.233 221.75 101.603 222.619 101.564C223.908 101.505 224.695 102.58 224.981 104.789C225.021 104.938 225.046 105.102 225.057 105.281C225.066 105.431 225.075 105.581 225.084 105.73C225.228 108.066 224.824 110.547 223.874 113.172L220.089 121.992C220.121 123.011 220.259 124.522 220.502 126.522C220.551 126.82 220.622 127.253 220.717 127.819C220.84 128.354 220.964 128.903 221.089 129.468C221.214 130.033 221.318 130.509 221.402 130.895C221.518 131.311 221.577 131.533 221.579 131.563C221.623 132.282 221.496 132.903 221.197 133.427C220.901 133.981 220.543 134.267 220.123 134.287ZM220.278 118.47L222.9 112C223.424 110.745 223.742 109.56 223.854 108.444C223.994 107.296 224.002 106.215 223.88 105.2C223.689 103.557 223.368 102.746 222.919 102.766C222.499 102.785 222.076 103.48 221.649 104.851C221.422 105.552 221.242 106.295 221.11 107.082C220.977 107.839 220.875 108.639 220.807 109.483L220.765 109.53C220.704 110.494 220.63 111.728 220.542 113.234C220.452 114.709 220.364 116.454 220.278 118.47ZM211.346 129.371C212.37 129.414 213.445 129.05 214.57 128.278C215.233 127.828 215.829 127.26 216.358 126.576C216.915 125.86 217.422 125.056 217.878 124.164L217.923 124.162C217.987 123.739 218.007 123.333 217.983 122.943C217.882 121.297 217.232 120.5 216.033 120.555C215.164 120.594 214.238 121.177 213.256 122.303C212.556 123.145 211.982 124.072 211.533 125.083C210.899 126.493 210.607 127.618 210.659 128.456C210.694 129.025 210.923 129.33 211.346 129.371ZM227.209 130.767C226.639 130.793 226.341 130.581 226.313 130.132L226.001 125.056C225.788 123.054 225.436 121.479 224.944 120.33C224.911 120.272 224.889 120.167 224.88 120.018C224.851 119.539 225.031 119.29 225.42 119.272C225.6 119.264 225.756 119.362 225.889 119.566C226.684 120.761 227.322 122.834 227.804 125.785C227.903 125.931 228.013 126.001 228.133 125.995C228.522 125.978 229.418 124.901 230.819 122.766L233.366 118.731C233.586 118.391 233.903 118.181 234.319 118.102C234.435 118.037 234.523 118.003 234.583 118C234.853 117.988 234.997 118.132 235.016 118.431C235.019 118.491 235.009 118.566 234.984 118.658C234.99 118.748 234.981 118.853 234.959 118.974L234.753 120.019C234.597 120.417 234.207 120.675 233.583 120.793C233.245 121.169 232.846 121.758 232.384 122.559L231.331 124.499C230.949 125.117 230.501 125.903 229.989 126.857C229.476 127.811 228.883 128.919 228.21 130.181C228.052 130.548 227.718 130.744 227.209 130.767ZM239.531 130.297C238.212 130.357 237.109 130.001 236.22 129.231C235.361 128.459 234.889 127.385 234.804 126.007C234.786 125.708 234.783 125.408 234.794 125.107C234.836 124.805 234.877 124.503 234.919 124.201C235.169 122.898 235.999 121.479 237.407 119.944C238.988 118.281 240.392 117.421 241.621 117.365C242.64 117.319 243.154 117.866 243.164 119.007C243.225 120.475 242.504 121.949 241.002 123.429C240.348 124.029 239.661 124.586 238.941 125.099C238.251 125.611 237.502 125.885 236.692 125.922L236.648 125.924C236.857 127.866 237.921 128.794 239.839 128.706C240.468 128.678 241.163 128.496 241.924 128.161C241.982 128.129 242.071 128.109 242.191 128.104C242.581 128.086 242.787 128.272 242.811 128.661C242.828 128.931 242.706 129.147 242.445 129.309C241.641 129.916 240.67 130.245 239.531 130.297ZM237.731 123.758C238.648 123.506 239.418 123.08 240.042 122.481C241.15 121.44 241.677 120.47 241.621 119.572L241.616 119.482C241.603 119.273 241.518 119.111 241.361 118.998C241.204 118.886 241.097 118.86 241.041 118.923C240.112 118.965 239.164 119.684 238.198 121.079C238.061 121.295 237.899 121.588 237.711 121.957C237.521 122.296 237.321 122.71 237.111 123.2C237.085 123.261 237.074 123.322 237.077 123.382C237.094 123.651 237.312 123.777 237.731 123.758ZM246.033 128.74C245.583 128.761 245.393 128.364 245.464 127.55C245.489 126.498 245.56 125.203 245.676 123.667C245.82 122.099 245.994 120.289 246.198 118.238C246.321 117.782 246.547 117.547 246.876 117.532C247.296 117.513 247.518 117.698 247.542 118.087C247.543 118.117 247.547 118.177 247.553 118.267C247.556 118.327 247.546 118.402 247.521 118.493C247.478 118.766 247.437 119.068 247.397 119.4C247.385 119.701 247.391 120.031 247.413 120.39C247.438 120.809 247.481 121.258 247.54 121.735C247.63 122.212 247.751 122.717 247.904 123.25C248.084 123.242 248.779 122.565 249.988 121.219C251.201 119.933 252.205 119.151 252.999 118.875L252.997 118.83C253.085 118.796 253.174 118.777 253.264 118.773C253.354 118.769 253.429 118.765 253.488 118.763C254.058 118.737 254.449 118.989 254.662 119.52L255.548 123.669C255.93 125.483 256.481 126.374 257.2 126.341C257.5 126.327 257.793 126.209 258.08 125.986C258.481 125.667 258.866 125.334 259.236 124.987C259.603 124.61 259.925 124.22 260.2 123.817C260.377 123.749 260.495 123.714 260.555 123.711C260.764 123.702 260.878 123.832 260.894 124.101C260.905 124.281 260.8 124.526 260.579 124.836C260.218 125.333 259.844 125.845 259.456 126.374C259.066 126.872 258.669 127.265 258.266 127.554C257.717 127.909 257.248 128.095 256.858 128.113C256.049 128.15 255.394 127.519 254.894 126.221L253.906 122.617C253.561 121.402 253.182 120.863 252.77 121.002C252.74 121.004 252.695 121.006 252.635 121.008C252.603 120.98 252.557 120.967 252.497 120.97C252.377 120.975 252.229 121.012 252.053 121.08C251.907 121.147 251.764 121.258 251.623 121.415L250.613 122.587C249.743 123.587 249.021 124.551 248.447 125.478C247.873 126.405 247.415 127.266 247.073 128.062C246.859 128.492 246.512 128.718 246.033 128.74ZM264.234 130.931C263.485 130.965 263.082 130.533 263.027 129.634C262.753 125.173 262.776 120.412 263.096 115.353C262.793 115.307 262.475 115.276 262.144 115.262C261.84 115.215 261.537 115.169 261.233 115.123C260.387 115.041 259.953 114.821 259.931 114.461C259.909 114.102 260.075 113.869 260.429 113.763L260.384 113.765C260.114 113.777 260.158 113.76 260.516 113.714C260.872 113.638 261.333 113.557 261.898 113.471C262.464 113.385 262.912 113.335 263.241 113.32C263.357 112.264 263.64 111.005 264.091 109.543C264.337 108.661 264.531 107.901 264.672 107.264C264.842 106.596 264.974 106.065 265.07 105.67C265.183 105.064 265.554 104.747 266.184 104.719C266.453 104.706 266.567 104.836 266.523 105.108C266.335 105.958 266.102 107.064 265.826 108.428C265.547 109.762 265.254 111.352 264.947 113.197C265.217 113.185 265.546 113.17 265.936 113.152C266.355 113.133 266.836 113.127 267.377 113.132C267.918 113.137 268.385 113.146 268.776 113.158C269.196 113.139 269.525 113.124 269.765 113.114C270.035 113.101 270.176 113.2 270.189 113.41C270.2 113.589 270.092 113.789 269.865 114.01C269.668 114.229 269.435 114.345 269.165 114.357C268.806 114.373 268.27 114.458 267.558 114.61C266.844 114.733 265.94 114.924 264.844 115.184C264.62 118.887 264.703 123.898 265.092 130.216C265.119 130.665 264.833 130.904 264.234 130.931ZM280.809 127.475C280.151 127.535 279.618 127.169 279.209 126.377C279.139 126.23 279.049 125.979 278.937 125.623C278.825 125.268 278.677 124.809 278.492 124.247C278.326 123.504 278.113 123.214 277.852 123.376C277.419 124.146 276.78 125.001 275.936 125.94C274.867 127.13 274.048 127.737 273.479 127.763C272.849 127.792 272.28 127.337 271.772 126.399C271.336 125.669 271.097 124.959 271.055 124.27C270.913 121.964 271.089 119.93 271.581 118.166C271.709 117.799 271.923 117.61 272.222 117.596C272.492 117.584 272.755 117.707 273.012 117.966C273.268 118.224 273.406 118.518 273.426 118.847C273.437 119.027 273.34 119.392 273.133 119.942C272.632 121.076 272.423 122.331 272.508 123.709C272.6 125.206 272.931 125.941 273.5 125.916C273.77 125.903 274.403 125.439 275.398 124.523C277.159 122.852 278.365 120.725 279.018 118.143C279.146 117.777 279.374 117.586 279.704 117.571C280.244 117.547 280.527 117.759 280.555 118.208C280.573 118.508 280.548 118.839 280.481 119.203C280.443 119.565 280.363 119.974 280.24 120.43C280.148 120.884 280.083 121.292 280.045 121.654C280.007 122.017 279.998 122.347 280.016 122.647C280.029 122.856 280.06 123.11 280.108 123.408C280.155 123.676 280.218 123.974 280.298 124.3C280.503 125.192 280.7 125.708 280.889 125.85C280.889 125.85 281.035 125.768 281.325 125.605C281.644 125.41 281.992 125.214 282.371 125.017C282.777 124.788 283.111 124.593 283.372 124.431C283.66 124.238 283.805 124.141 283.805 124.141C284.104 124.127 284.261 124.24 284.276 124.48C284.291 124.719 284.057 125.075 283.575 125.548C283.124 126.019 282.624 126.447 282.077 126.832C281.529 127.217 281.107 127.432 280.809 127.475ZM286.134 126.918C285.835 126.931 285.619 126.596 285.487 125.911C285.352 125.197 285.262 124.465 285.216 123.717C285.187 123.237 285.16 122.803 285.136 122.414C285.14 121.993 285.136 121.678 285.123 121.469C285.105 121.169 285.097 120.794 285.099 120.344C285.1 119.863 285.112 119.322 285.135 118.721C285.149 117.489 285.137 116.559 285.098 115.93C285.08 115.63 285.047 115.347 285.001 115.079C284.953 114.78 284.921 114.512 284.906 114.272L284.895 114.092C284.873 113.733 285.057 113.545 285.446 113.527C285.746 113.513 285.922 113.685 285.974 114.043C286.054 114.37 286.141 115.042 286.233 116.058C286.326 117.075 286.439 118.421 286.572 120.097C286.599 120.546 286.703 120.766 286.883 120.758C287.093 120.749 287.386 120.39 287.763 119.682C288.544 118.206 289.413 116.95 290.372 115.915C291.079 115.193 291.747 114.817 292.376 114.788C293.125 114.754 293.79 115.054 294.37 115.689C294.562 115.89 294.666 116.111 294.681 116.35C294.705 116.739 294.552 116.942 294.222 116.957C294.102 116.962 293.965 116.923 293.809 116.84L293.767 116.887C293.172 116.494 292.785 116.301 292.605 116.309C291.886 116.342 291.235 116.762 290.654 117.569C288.632 120.363 287.45 123.15 287.11 125.928C287.029 126.562 286.704 126.892 286.134 126.918ZM300.464 127.528C299.146 127.588 298.042 127.232 297.153 126.462C296.294 125.69 295.822 124.616 295.738 123.238C295.719 122.939 295.716 122.639 295.727 122.338C295.769 122.036 295.81 121.734 295.852 121.432C296.102 120.129 296.932 118.71 298.34 117.175C299.921 115.512 301.325 114.652 302.554 114.596C303.573 114.55 304.088 115.097 304.098 116.238C304.158 117.706 303.437 119.18 301.935 120.66C301.281 121.26 300.594 121.817 299.874 122.33C299.184 122.842 298.435 123.116 297.626 123.153L297.581 123.155C297.79 125.097 298.854 126.024 300.772 125.937C301.401 125.909 302.097 125.727 302.857 125.392C302.915 125.359 303.004 125.34 303.124 125.335C303.514 125.317 303.721 125.503 303.745 125.892C303.761 126.162 303.639 126.378 303.379 126.54C302.574 127.147 301.603 127.476 300.464 127.528ZM298.665 120.989C299.581 120.737 300.351 120.311 300.975 119.712C302.083 118.671 302.61 117.701 302.555 116.803L302.549 116.713C302.536 116.504 302.451 116.342 302.294 116.229C302.137 116.116 302.03 116.091 301.974 116.154C301.045 116.196 300.097 116.915 299.131 118.31C298.994 118.526 298.832 118.819 298.644 119.188C298.455 119.527 298.255 119.941 298.044 120.431C298.018 120.492 298.007 120.553 298.01 120.613C298.027 120.882 298.245 121.008 298.665 120.989Z" fill="#F5F5F5"/>
<path d="M290.749 39.3566C290.953 40.1727 291.136 41.0002 291.296 41.8282C291.382 42.2312 291.456 42.6343 291.52 43.0378C291.558 43.2448 291.595 43.4409 291.621 43.6482C291.634 43.7355 291.647 43.8337 291.66 43.9209C291.685 44.0735 291.66 43.9319 291.66 43.91C291.672 43.9754 291.685 44.0407 291.686 44.1173C291.941 45.7638 292.109 47.4122 292.212 49.0731C292.26 49.7832 292.276 50.4831 292.248 51.1949C292.24 51.3592 292.233 51.5235 292.215 51.688C292.206 51.7757 292.197 51.8635 292.188 51.9512C292.179 52.0389 292.213 52.1038 292.187 51.9293C292.199 51.9838 292.168 52.0501 292.169 52.1048C292.122 52.445 292.064 52.7745 291.973 53.1048C291.932 53.2698 291.881 53.4241 291.83 53.5894C291.81 53.6555 291.768 53.733 291.758 53.7989C291.798 53.6338 291.8 53.7104 291.779 53.7546C291.758 53.8098 291.737 53.854 291.717 53.9092C291.571 54.2297 291.402 54.5289 291.201 54.8178C291.148 54.8846 291.105 54.9621 291.052 55.029C291.063 55.0068 291.159 54.8844 291.073 54.9957C291.052 55.029 291.031 55.0623 290.999 55.0849C290.893 55.2294 290.775 55.3743 290.658 55.5191C290.434 55.7867 290.189 56.0547 289.943 56.3118C289.675 56.5912 289.397 56.849 289.107 57.1071C288.957 57.2417 288.806 57.3763 288.645 57.5003C288.613 57.5338 288.57 57.5676 288.538 57.5902C288.516 57.6016 288.387 57.7139 288.484 57.6351C288.592 57.5562 288.441 57.6689 288.43 57.6801C288.387 57.7139 288.333 57.7479 288.291 57.7926C287.645 58.2883 286.977 58.7517 286.297 59.1934C286.006 59.3859 285.818 59.7839 285.946 60.1312C286.063 60.4569 286.386 60.7451 286.747 60.7153C287.435 60.6563 288.123 60.6082 288.824 60.6256C289.283 60.6373 289.744 60.6709 290.193 60.7156C290.445 60.7319 290.686 60.7485 290.938 60.7648C291.015 60.7631 291.092 60.7723 291.169 60.7816C291.19 60.7811 291.201 60.7809 291.223 60.7913C291.311 60.8003 291.289 60.8008 291.158 60.7818C291.18 60.7923 291.234 60.7911 291.256 60.7906C291.432 60.8195 291.608 60.8485 291.784 60.8993C291.938 60.9396 292.092 60.9909 292.236 61.0425C292.28 61.0524 292.313 61.0736 292.357 61.0835C292.467 61.1249 292.158 61.0004 292.324 61.0733C292.412 61.1151 292.49 61.1462 292.578 61.1881C292.888 61.3344 293.176 61.5031 293.454 61.6939C293.487 61.715 293.52 61.7471 293.554 61.7682C293.676 61.8531 293.52 61.7471 293.509 61.7364C293.543 61.7904 293.665 61.8533 293.71 61.8961C293.855 62.0133 293.988 62.1306 294.122 62.248C294.379 62.4831 294.637 62.74 294.861 62.9976C294.973 63.1264 295.086 63.2552 295.187 63.3843C295.074 63.2336 295.311 63.5347 295.187 63.3843C295.21 63.4166 295.232 63.438 295.255 63.4703C295.322 63.5564 295.39 63.6424 295.446 63.7287C295.661 64.0193 295.864 64.3103 296.057 64.6124C296.476 65.2705 296.863 65.9622 297.218 66.6546C297.412 67.0333 297.607 67.4228 297.79 67.8017C297.836 67.8882 297.871 67.975 297.916 68.0615C297.939 68.1048 297.962 68.159 297.985 68.2023C298.043 68.3432 297.985 68.2132 297.974 68.1806C298.077 68.3972 298.158 68.6142 298.251 68.831C299.001 70.6088 299.589 72.4449 300.013 74.3284C300.099 74.7313 300.552 74.951 300.923 74.899C301.36 74.8347 301.582 74.4906 301.616 74.0741C301.926 70.7738 301.023 67.5223 301.147 64.2153C301.152 63.9526 301.179 63.6894 301.195 63.4374C301.204 63.3715 301.214 63.3057 301.213 63.24C301.221 63.1304 301.185 63.4704 301.203 63.3059C301.202 63.2731 301.213 63.251 301.212 63.2182C301.231 63.0755 301.249 62.9329 301.268 62.7902C301.354 62.2303 301.473 61.6697 301.614 61.1304C301.696 60.8441 301.777 60.5579 301.869 60.2713C301.91 60.1391 301.951 60.0179 302.003 59.8964C302.023 59.8303 302.055 59.7639 302.075 59.6978C302.127 59.5763 302.054 59.753 302.044 59.7642C302.065 59.7199 302.075 59.676 302.096 59.6317C302.314 59.1127 302.565 58.6038 302.872 58.1265C302.946 58.0045 303.031 57.8823 303.115 57.7601C303.126 57.738 303.222 57.6155 303.126 57.738C303.041 57.8602 303.137 57.7268 303.158 57.7044C303.2 57.6488 303.243 57.5931 303.296 57.5372C303.478 57.3144 303.681 57.102 303.895 56.9113C303.949 56.8554 304.013 56.8102 304.067 56.7652C304.142 56.6979 303.917 56.878 304.003 56.8214C304.035 56.7988 304.067 56.7762 304.1 56.7426C304.218 56.6634 304.326 56.5844 304.455 56.505C304.574 56.4367 304.693 56.3684 304.812 56.3111C304.834 56.2997 304.964 56.2421 304.823 56.2999C304.693 56.3575 304.801 56.3113 304.834 56.2997C304.91 56.2652 304.986 56.2416 305.062 56.218C305.387 56.1014 305.676 55.7777 305.646 55.4173C305.616 55.046 305.39 54.7556 305.027 54.6432C303.617 54.204 302.147 54.0395 300.726 53.6223C300.561 53.5713 300.396 53.5202 300.23 53.4583C300.197 53.4481 300.164 53.4378 300.131 53.4276C300.109 53.4172 299.965 53.3438 300.087 53.4067C300.209 53.4697 300.065 53.3963 300.043 53.3858C299.998 53.3649 299.943 53.3443 299.899 53.3234C299.579 53.1882 299.28 53.0198 298.991 52.8292C298.946 52.7974 298.902 52.7655 298.858 52.7446C298.758 52.6812 298.88 52.7769 298.902 52.7764C298.87 52.7881 298.724 52.6382 298.69 52.6061C298.545 52.478 298.4 52.3499 298.266 52.2106C298.154 52.0928 298.042 51.9639 297.929 51.8351C297.873 51.7707 297.817 51.7063 297.761 51.6419C297.907 51.8028 297.817 51.7063 297.783 51.6633C297.75 51.6203 297.716 51.5663 297.671 51.5235C297.265 50.9964 296.925 50.435 296.616 49.851C296.536 49.6995 296.468 49.5588 296.399 49.4072C296.364 49.3423 296.33 49.2774 296.307 49.2013C296.284 49.169 296.272 49.1255 296.249 49.0932C296.18 48.9415 296.318 49.2448 296.25 49.1041C296.111 48.7899 295.984 48.4644 295.857 48.1499C295.334 46.8048 294.921 45.4134 294.464 44.0449C293.832 42.1988 293.103 40.3878 292.168 38.6797C291.962 38.3013 291.391 38.1717 291.035 38.4093C290.647 38.6696 290.547 39.1313 290.764 39.5423C290.992 39.953 291.21 40.3749 291.416 40.7971C291.508 40.992 291.61 41.1867 291.691 41.3818C291.68 41.3602 291.622 41.2192 291.68 41.3602C291.703 41.4035 291.726 41.4576 291.749 41.5009C291.795 41.6093 291.841 41.7177 291.887 41.8152C292.21 42.5739 292.501 43.3443 292.77 44.1262C293.26 45.5267 293.686 46.9507 294.198 48.3398C294.687 49.6639 295.274 50.9748 296.098 52.1273C296.538 52.7412 297.033 53.3649 297.634 53.833C298.281 54.3548 298.989 54.7221 299.772 55.0002C301.338 55.5673 303.026 55.7051 304.613 56.1951C304.601 55.6702 304.589 55.1453 304.578 54.6094C302.21 55.4277 300.896 57.831 300.191 60.0787C299.822 61.2357 299.608 62.444 299.515 63.6496C299.396 65.2059 299.54 66.7783 299.706 68.3283C299.901 70.2387 300.129 72.1484 299.953 74.0671C300.487 73.9787 301.022 73.9012 301.556 73.8128C301.168 72.1036 300.638 70.4194 299.99 68.7925C299.33 67.155 298.561 65.5417 297.641 64.0302C296.858 62.7565 295.923 61.5189 294.742 60.5931C294.097 60.0931 293.431 59.6921 292.659 59.4138C291.975 59.1554 291.263 59.0945 290.539 59.0449C290.013 59.0127 289.498 58.9585 288.972 58.9373C288.195 58.9107 287.43 58.9605 286.655 59.0214C286.808 59.5322 286.95 60.0324 287.104 60.5432C288.377 59.7164 289.615 58.8137 290.719 57.7498C291.811 56.6862 292.824 55.4712 293.35 54.0262C293.855 52.6364 293.908 51.0925 293.843 49.6169C293.773 47.9444 293.605 46.2741 293.371 44.6271C293.099 42.6855 292.728 40.7462 292.259 38.8418C292.151 38.4284 291.642 38.1552 291.24 38.2954C290.861 38.4898 290.63 38.9107 290.749 39.3566Z" fill="white"/>
<path d="M333.259 60.4301C333.426 61.0282 333.559 61.627 333.66 62.2484C333.648 62.1721 333.635 62.1068 333.623 62.0305C333.814 63.2407 333.863 64.487 333.726 65.7045C333.735 65.6277 333.745 65.5618 333.754 65.485C333.644 66.4722 333.414 67.4401 333.051 68.3563C333.083 68.2899 333.103 68.2238 333.135 68.1575C332.958 68.5991 332.76 69.0302 332.518 69.4404C332.402 69.6508 332.264 69.8617 332.126 70.0617C332.063 70.1507 331.999 70.2396 331.935 70.3286C332.105 70.095 331.967 70.2841 331.925 70.3397C331.882 70.3954 331.84 70.451 331.797 70.4957C331.499 70.8743 331.156 71.2211 330.803 71.5462C330.717 71.6247 330.62 71.7034 330.534 71.7819C330.48 71.8269 330.298 71.9732 330.523 71.7931C330.47 71.8271 330.427 71.8718 330.373 71.9168C330.169 72.0745 329.953 72.2215 329.738 72.3685C329.328 72.6292 328.917 72.8571 328.472 73.053C328.537 73.0187 328.602 72.9954 328.667 72.9611C328.353 73.0994 328.039 73.2376 327.725 73.3868C327.508 73.4901 327.303 73.5822 327.142 73.7498C326.778 74.108 326.857 74.708 327.246 74.9948C327.446 75.1436 327.71 75.1815 327.941 75.2421C328.337 75.3537 328.734 75.4871 329.121 75.6427C329.054 75.6113 328.988 75.5909 328.922 75.5596C329.971 75.985 330.989 76.5204 331.901 77.1786C331.923 77.2 331.945 77.2105 331.968 77.2319C331.779 77.0938 331.857 77.1577 331.901 77.1786C331.957 77.2212 332.001 77.253 332.057 77.2955C332.157 77.3699 332.257 77.4552 332.346 77.5299C332.514 77.6793 332.681 77.8288 332.838 78.0004C332.916 78.0752 332.984 78.1613 333.062 78.2471C333.096 78.2901 333.13 78.3331 333.164 78.3761C333.198 78.4192 333.254 78.4945 333.096 78.301C333.119 78.3334 333.141 78.3548 333.164 78.3871C333.299 78.5592 333.434 78.7422 333.548 78.9366C333.842 79.3787 334.083 79.8548 334.312 80.3421C334.278 80.2772 334.255 80.212 334.22 80.1472C335.049 82.0107 335.455 84.0259 335.849 86.0195C335.949 86.5534 336.059 87.0871 336.169 87.6208C336.206 87.806 336.397 88.0206 336.552 88.1047C336.718 88.1886 336.894 88.2175 337.079 88.1915C337.483 88.1279 337.77 87.7823 337.772 87.3665C337.785 86.4581 337.797 85.5497 337.81 84.6303C337.823 83.7547 337.804 82.8689 337.905 81.9913C337.896 82.0681 337.886 82.134 337.877 82.2108C337.969 81.4538 338.117 80.6956 338.297 79.9585C338.388 79.5954 338.489 79.2321 338.591 78.8688C338.683 78.5714 338.763 78.2632 338.877 77.9653C338.846 78.0316 338.825 78.0977 338.794 78.1641C338.939 77.8107 339.129 77.4783 339.352 77.167C339.384 77.1225 339.415 77.0781 339.447 77.0226C339.521 76.9225 339.309 77.2008 339.426 77.045C339.5 76.9449 339.575 76.8557 339.649 76.7556C339.787 76.5775 339.937 76.41 340.086 76.2426C340.407 75.8963 340.75 75.5605 341.103 75.2354C341.189 75.1569 341.275 75.0893 341.361 75.0109C341.404 74.9771 341.447 74.9433 341.49 74.8986C341.511 74.8762 341.533 74.8539 341.565 74.8422C341.533 74.8648 341.404 74.9771 341.501 74.8874C341.673 74.7523 341.856 74.617 342.028 74.4819C342.383 74.2333 342.75 73.9954 343.151 73.8224C343.086 73.8567 343.021 73.88 342.956 73.9143C342.989 73.9026 343.021 73.8909 343.054 73.8683C343.249 73.7874 343.432 73.6739 343.537 73.4856C343.621 73.3196 343.65 73.1439 343.624 72.9585C343.561 72.5551 343.215 72.2564 342.799 72.2656C342.613 72.2697 342.427 72.2629 342.252 72.2449C342.329 72.2541 342.394 72.2636 342.471 72.2728C342.109 72.2261 341.746 72.1357 341.404 72.001C341.47 72.0324 341.536 72.0528 341.603 72.0842C341.393 72.0013 341.194 71.9072 341.005 71.791C340.906 71.7385 340.817 71.6748 340.717 71.6223C340.673 71.5905 340.617 71.5589 340.573 71.527C340.551 71.5166 340.528 71.4952 340.506 71.4847C340.495 71.474 340.484 71.4634 340.473 71.4636C340.395 71.3997 340.584 71.5487 340.573 71.538C340.194 71.24 339.837 70.9196 339.501 70.566C339.422 70.4693 339.333 70.3837 339.254 70.287C339.22 70.244 339.176 70.1903 339.142 70.1472C339.052 70.0398 339.232 70.2547 339.198 70.2117C339.175 70.1793 339.153 70.1579 339.13 70.1256C338.962 69.9215 338.815 69.7059 338.657 69.4906C338.34 69.038 338.056 68.5629 337.794 68.0763C337.486 67.5142 337.2 66.9297 336.935 66.3447C336.969 66.4096 336.993 66.4747 337.027 66.5396C336.256 64.817 335.647 63.0142 335.136 61.1873C335.017 60.7632 334.91 60.3498 334.802 59.9255C334.694 59.5121 334.185 59.2389 333.783 59.3791C333.371 59.5632 333.14 59.9841 333.259 60.4301C333.511 61.4202 333.784 62.4098 334.101 63.3875C334.466 64.5283 334.885 65.6679 335.358 66.7735C335.865 67.933 336.427 69.0803 337.128 70.1371C337.751 71.0861 338.494 72.0107 339.395 72.7019C339.829 73.0315 340.285 73.3387 340.792 73.5463C341.356 73.7746 341.906 73.9156 342.519 73.9567C342.64 73.965 342.76 73.9624 342.87 73.9599C342.781 73.4258 342.704 72.8913 342.615 72.3572C341.726 72.727 340.962 73.2909 340.232 73.9089C339.501 74.5268 338.816 75.2203 338.242 75.988C337.955 76.3663 337.69 76.7442 337.481 77.1756C337.241 77.6842 337.089 78.2346 336.936 78.7741C336.572 80.0842 336.284 81.4145 336.215 82.7727C336.177 83.5395 336.184 84.3162 336.179 85.0822C336.174 85.8701 336.159 86.6473 336.154 87.4351C336.688 87.3467 337.223 87.2693 337.757 87.1808C337.315 85.0133 336.971 82.8107 336.225 80.7265C335.84 79.6737 335.368 78.6228 334.692 77.7187C334.353 77.2557 333.972 76.8265 333.548 76.442C333.057 76.0152 332.512 75.6333 331.958 75.2955C331.347 74.9151 330.705 74.5791 330.043 74.2984C329.667 74.1316 329.281 73.987 328.884 73.8535C328.565 73.7512 328.245 73.6707 327.926 73.5793C327.992 73.6107 328.059 73.6311 328.125 73.6624C328.226 73.7587 328.315 73.8442 328.416 73.9405C328.45 74.0054 328.473 74.0705 328.507 74.1354C328.52 74.2117 328.532 74.2771 328.545 74.3534C328.536 74.4302 328.526 74.4961 328.517 74.5728C328.486 74.6392 328.465 74.7053 328.434 74.7716C328.37 74.8715 328.286 74.9937 328.188 75.0397C328.21 75.0282 328.221 75.0171 328.242 75.0056C328.296 74.9716 328.35 74.9485 328.404 74.9145C328.556 74.8346 328.718 74.7653 328.881 74.6961C328.816 74.7303 328.751 74.7537 328.686 74.7879C329.13 74.5921 329.585 74.396 330.018 74.1567C330.515 73.8831 330.978 73.5665 331.419 73.2176C332.355 72.4638 333.156 71.5817 333.779 70.5613C334.983 68.6199 335.479 66.2894 335.439 64.0254C335.409 62.6693 335.193 61.3064 334.836 60.0013C334.718 59.5882 334.23 59.3036 333.817 59.4549C333.382 59.563 333.129 59.9844 333.259 60.4301Z" fill="white"/>
<path d="M321.547 82.692C321.543 83.0163 321.531 83.3387 321.51 83.6591C321.5 83.8152 321.489 83.9796 321.478 84.144C321.474 84.196 321.463 84.4394 321.471 84.248C321.467 84.3437 321.454 84.4375 321.443 84.5229C321.373 85.1747 321.284 85.8311 321.17 86.4817C320.939 87.7913 320.632 89.092 320.245 90.3568C320.147 90.6684 320.049 90.9799 319.949 91.2998C319.9 91.438 319.857 91.5863 319.808 91.7245C319.784 91.7893 319.76 91.8542 319.735 91.9275C319.727 91.9609 319.711 91.9924 319.705 92.0174C319.685 92.0656 319.7 92.0425 319.731 91.9442C319.725 91.9692 319.711 91.9924 319.705 92.0174C319.507 92.5346 319.27 93.0338 319.009 93.5189C318.874 93.7605 318.732 94.0002 318.582 94.2296C318.503 94.3433 318.433 94.459 318.354 94.5728C318.338 94.6042 318.315 94.6255 318.299 94.6569C318.386 94.5098 318.34 94.5959 318.314 94.6338C318.265 94.6929 318.223 94.7623 318.174 94.8215C317.835 95.2624 317.469 95.6705 317.057 96.0505C316.944 96.1566 316.824 96.2608 316.705 96.3566C316.672 96.3842 316.613 96.4145 316.738 96.3289C316.705 96.3566 316.664 96.3823 316.631 96.41C316.568 96.4569 316.513 96.5058 316.449 96.5527C316.205 96.7341 315.957 96.8968 315.692 97.0558C315.56 97.131 315.429 97.2063 315.289 97.2797C315.219 97.3164 315.143 97.3428 315.081 97.3814C315.214 97.2977 315.159 97.3466 315.11 97.3704C315.071 97.3878 315.032 97.4052 314.984 97.4207C314.702 97.5404 314.404 97.648 314.105 97.7286C313.842 97.8002 313.634 98.0952 313.658 98.3732C313.668 98.4811 313.695 98.5928 313.753 98.6852C313.822 98.8064 314.008 98.9546 314.154 98.9705C314.728 99.0321 315.295 99.1271 315.851 99.2723C316.125 99.3439 316.388 99.4219 316.658 99.5102C316.723 99.5339 316.796 99.5595 316.861 99.5832C316.909 99.603 317.152 99.6939 316.942 99.6107C317.079 99.6683 317.217 99.7176 317.353 99.7753C317.875 99.9917 318.387 100.25 318.874 100.538C319.122 100.683 319.369 100.836 319.603 101.004C319.655 101.042 319.702 101.07 319.754 101.109C319.784 101.133 319.815 101.149 319.845 101.174C319.685 101.067 319.792 101.135 319.83 101.161C319.95 101.251 320.062 101.338 320.182 101.427C320.636 101.786 321.067 102.166 321.466 102.574C321.665 102.778 321.856 102.98 322.035 103.197C322.084 103.252 322.133 103.307 322.182 103.363C322.201 103.393 322.23 103.418 322.25 103.449C322.139 103.318 322.188 103.373 322.216 103.406C322.318 103.534 322.414 103.653 322.508 103.78C322.845 104.227 323.157 104.703 323.433 105.188C323.577 105.441 323.711 105.7 323.843 105.968C323.864 106.026 323.897 106.077 323.918 106.135C323.821 105.945 323.936 106.174 323.951 106.221C324.008 106.357 324.065 106.493 324.121 106.629C324.355 107.219 324.55 107.827 324.69 108.439C324.725 108.596 324.759 108.754 324.787 108.901C324.81 109.029 324.761 108.745 324.782 108.882C324.789 108.928 324.794 108.982 324.802 109.027C324.811 109.1 324.821 109.172 324.831 109.245C324.879 109.572 324.908 109.904 324.92 110.232C324.939 110.571 325.247 110.879 325.589 110.843C325.751 110.827 325.922 110.77 326.03 110.645C326.15 110.506 326.193 110.357 326.208 110.176C326.21 110.168 326.221 110.003 326.215 110.107C326.209 110.212 326.218 110.055 326.22 110.047C326.225 109.987 326.23 109.926 326.235 109.866C326.249 109.729 326.263 109.591 326.285 109.456C326.317 109.243 326.348 109.03 326.387 108.82C326.454 108.492 326.539 108.16 326.605 107.833C326.699 107.423 326.766 107.017 326.818 106.598C326.856 106.282 326.885 105.963 326.914 105.644C326.931 105.455 326.948 105.266 326.967 105.068C326.967 105.032 326.974 104.999 326.974 104.964C326.985 104.799 326.967 105.068 326.974 104.964C326.986 104.87 326.989 104.783 327.002 104.689C327.063 104.079 327.134 103.462 327.255 102.857C327.318 102.546 327.387 102.246 327.483 101.942C327.524 101.802 327.567 101.654 327.624 101.518C327.551 101.686 327.66 101.438 327.668 101.405C327.704 101.325 327.729 101.252 327.765 101.172C327.875 100.925 328.007 100.692 328.146 100.469C328.205 100.368 328.271 100.269 328.338 100.17C328.366 100.124 328.394 100.077 328.429 100.041C328.445 100.01 328.467 99.9886 328.484 99.9571C328.573 99.8369 328.443 100.018 328.482 99.9655C328.784 99.5689 329.107 99.1948 329.466 98.8554C329.566 98.7641 329.701 98.6721 329.795 98.5705C329.785 98.5769 329.676 98.6663 329.762 98.5982C329.795 98.5705 329.826 98.5512 329.859 98.5236C329.912 98.4831 329.965 98.4425 330.018 98.402C330.24 98.2419 330.468 98.092 330.71 97.9543C330.831 97.8854 330.961 97.8185 331.091 97.7516C331.189 97.704 331.06 97.7709 331.052 97.769C331.089 97.7599 331.121 97.7323 331.159 97.7233C331.227 97.6949 331.295 97.6666 331.354 97.6363C331.616 97.5295 331.881 97.4495 332.16 97.3818C332.421 97.3186 332.633 97.0069 332.607 96.7372C332.578 96.4406 332.391 96.2218 332.111 96.1399C331.823 96.0561 331.536 95.964 331.252 95.8635C331.187 95.8398 331.122 95.8161 331.057 95.7924C331.024 95.7848 330.994 95.7604 330.961 95.7527C331.129 95.7827 331.017 95.7745 330.969 95.7547C330.824 95.6951 330.678 95.6439 330.542 95.5863C329.997 95.3557 329.466 95.102 328.96 94.8188C328.704 94.672 328.455 94.5272 328.211 94.3656C328.098 94.2868 327.982 94.2163 327.86 94.1355C327.845 94.1233 327.685 94.0163 327.685 94.0163C327.708 94.0304 327.729 94.0528 327.752 94.0669C327.729 94.0528 327.708 94.0304 327.685 94.0163C327.655 93.9919 327.617 93.9656 327.588 93.9413C327.116 93.5867 326.676 93.2045 326.262 92.7843C326.057 92.5701 325.851 92.3559 325.666 92.1288C325.645 92.1063 325.632 92.0858 325.611 92.0633C325.63 92.0941 325.729 92.1961 325.611 92.0633C325.57 92.0101 325.521 91.9549 325.481 91.9016C325.385 91.783 325.299 91.6578 325.214 91.5327C325.049 91.2927 324.886 91.0444 324.742 90.7916C324.592 90.5285 324.47 90.2544 324.328 89.9932C324.414 90.1537 324.31 89.9541 324.295 89.9066C324.267 89.8385 324.236 89.7789 324.208 89.7108C324.145 89.5645 324.09 89.4201 324.035 89.2756C323.926 88.9868 323.835 88.6934 323.744 88.4001C323.571 87.8153 323.435 87.2215 323.319 86.6148C323.316 86.5878 323.305 86.5589 323.303 86.532C323.3 86.505 323.289 86.4761 323.287 86.4491C323.301 86.5403 323.307 86.5506 323.296 86.4864C323.279 86.4036 323.265 86.3124 323.249 86.2296C323.225 86.0658 323.201 85.9021 323.177 85.7384C323.131 85.4026 323.087 85.0585 323.05 84.7246C322.972 84.0299 322.911 83.339 322.849 82.6481C322.82 82.3162 322.532 82.0038 322.181 82.0376C321.826 82.0528 321.515 82.3331 321.547 82.692C321.76 85.2109 321.989 87.8126 322.988 90.1604C323.496 91.3581 324.186 92.4483 325.071 93.4163C325.908 94.3291 326.9 95.1018 327.957 95.7401C329.162 96.465 330.469 97.0113 331.822 97.4008C331.803 96.9834 331.791 96.5763 331.773 96.1589C329.661 96.6674 327.91 98.2433 326.872 100.123C326.239 101.27 325.963 102.552 325.817 103.837C325.778 104.197 325.742 104.549 325.711 104.911C325.7 104.997 325.7 105.076 325.689 105.161C325.69 105.196 325.682 105.23 325.683 105.265C325.671 105.429 325.689 105.161 325.681 105.273C325.669 105.438 325.648 105.609 325.636 105.773C325.582 106.279 325.527 106.785 325.422 107.28C325.344 107.657 325.25 108.031 325.172 108.409C325.053 109.006 324.983 109.614 324.931 110.226C325.356 110.209 325.784 110.184 326.218 110.17C326.097 107.751 325.232 105.39 323.837 103.426C322.444 101.454 320.536 99.8114 318.34 98.8064C317.116 98.244 315.799 97.8538 314.458 97.7218C314.476 98.1392 314.488 98.5463 314.507 98.9636C316.82 98.3079 318.672 96.5971 319.9 94.5761C320.537 93.5268 320.974 92.3878 321.34 91.2148C321.751 89.9204 322.088 88.6088 322.34 87.2779C322.629 85.7532 322.817 84.2054 322.848 82.6565C322.854 82.3239 322.511 82.0167 322.179 82.0459C321.799 82.0554 321.559 82.3343 321.547 82.692Z" fill="white"/>
</svg>
